<svg width="492" height="217" viewBox="0 0 492 217" fill="none" xmlns="http://www.w3.org/2000/svg">
<mask id="mask0_26_149" style="mask-type:luminance" maskUnits="userSpaceOnUse" x="0" y="0" width="492" height="217">
<path d="M491.2 0H0V216.1H491.2V0Z" fill="white"/>
</mask>
<g mask="url(#mask0_26_149)">
<path fill-rule="evenodd" clip-rule="evenodd" d="M-0.000123113 36.5133V0.242432H176.711C176.711 0.242432 217.01 20.7629 221.433 35.2664C221.433 35.2664 213.312 41.4528 194.329 43.2203C194.329 43.2203 205.833 45.8716 226.846 39.3341C226.846 39.3341 253.358 62.8327 254.771 94.3095C254.771 94.3095 245.576 96.5976 226.133 95.8954L219.245 84.2248L222.254 95.3749C222.254 95.3749 170.802 96.4644 142.853 89.3701C142.853 89.3701 137.56 83.5227 131.905 60.5446L134.068 86.8882C134.068 86.8882 124.667 87.2393 122.383 82.8084C120.099 78.3895 113.707 53.4623 113.707 53.4623L116.184 81.3798C116.184 81.3798 44.6368 66.9005 -0.012207 36.4891L-0.000123113 36.5133Z" fill="#4D9B44"/>
<path fill-rule="evenodd" clip-rule="evenodd" d="M238.362 9.01947C238.362 9.01947 261.901 21.247 262.674 37.0338C263.459 52.8327 264.124 172.59 271.785 207.105C271.785 207.105 289.753 150.326 277.646 69.9512L270.782 30.6052C270.782 30.6052 278.479 40.7626 284.956 60.605C291.433 80.4475 343.647 215.846 343.647 215.846C343.647 215.846 345.81 152.977 292.279 46.9368C292.279 46.9368 353.072 149.721 390.35 173.304C390.35 173.304 370.17 114.43 322.307 68.9342C322.307 68.9342 426.927 149.793 452.871 153.873C452.871 153.873 400.585 93.7646 385.988 85.5806C371.391 77.3966 309.329 40.8957 309.329 40.8957C309.329 40.8957 434.322 57.2273 491.139 47.1548C491.139 47.1548 400.246 26.3559 355.199 25.8958C310.139 25.4358 275.241 25.8111 275.241 25.8111C275.241 25.8111 284.207 19.3099 302.852 18.9346C321.497 18.5714 389.323 11.8039 415.339 0.653909L346.728 0.581274C346.728 0.581274 303.263 3.15995 269.997 13.6804C269.997 13.6804 252.149 13.0267 248.512 6.75556L242.011 0.472311H220.502C233.42 70.1691 199.332 169.987 214.17 208.836C223.451 126.077 251.436 102.735 238.362 9.14053V9.01947ZM200.612 0.351248H190.462C190.462 0.351248 164.446 74.7454 161.063 169.732C161.063 169.793 197.99 153.244 200.612 0.423884V0.351248ZM164.507 0.351248H151.492C151.492 0.351248 108.728 144.127 103.798 172.517C103.798 172.541 161.933 116.234 164.507 0.387566V0.351248ZM133.657 0.351248L105.248 0.31493C105.248 0.31493 58.4484 77.5298 50.7028 119.321C50.7028 119.321 105.973 69.5517 133.657 0.351248ZM11.8418 38.9345L46.0023 0.254395H67.4991C53.6754 18.3414 11.8418 38.9345 11.8418 38.9345Z" fill="#205732"/>
</g>
</svg>
