<svg width="267" height="573" viewBox="0 0 267 573" fill="none" xmlns="http://www.w3.org/2000/svg">
<path fill-rule="evenodd" clip-rule="evenodd" d="M267.09 322.973C267.09 322.973 217.611 305.331 186.257 331.518C186.257 331.518 232.131 364.791 239.948 368.511C247.764 372.232 242.321 383.038 235.172 377.679C228.023 372.321 190.766 342.324 172.241 344.069C153.716 345.813 142.815 377.573 142.815 377.573C142.815 377.573 196.224 401.784 201.697 410.845C207.17 419.924 201.919 421.687 198.122 421.402C194.325 421.117 159.886 386.972 141.317 389.251C141.317 389.251 131.35 388.93 125.165 404.614C118.98 420.298 113.285 432.777 114.723 437.887C116.147 443.014 120.893 444.723 128.739 445.898C136.585 447.055 165.537 459.801 166.501 466.085C167.465 472.37 158.67 471.213 154.858 469.201C151.046 467.189 119.974 446.734 112.128 452.182C110.763 454.016 109.725 456.098 109.028 458.413C108.331 460.727 108.02 463.112 108.079 465.587C108.316 473.829 137.505 478.689 137.505 478.689C137.505 478.689 140.249 479.847 139.077 482.125C137.905 484.404 134.079 482.962 132.062 482.25C130.045 481.538 110.674 477.123 108.316 480.844C105.958 484.564 105.216 523.8 143.453 542.617C143.453 542.617 153.894 540.339 158.67 525.598C163.446 510.858 167.673 507.013 172.033 508.17C176.409 509.327 168.236 519.243 166.086 522.964C163.95 526.684 153.286 545.733 153.286 549.453C153.286 553.174 167.658 563.66 195.497 566.828C195.497 566.828 207.377 562.823 218.753 523.818C218.753 523.818 221.957 519.546 224.463 522.501C226.97 525.456 213.177 557.144 203.714 568.217C203.714 568.217 212.746 580.732 231.509 578.774C231.509 578.774 241.579 572.774 246.355 545.893C251.131 519.012 253.697 529.088 253.697 529.088C254.038 533.787 253.474 538.345 252.021 542.742C249.648 550.45 243.285 574.626 244.219 577.795C245.154 580.963 267.075 588.191 267.075 588.191V322.973H267.09Z" fill="#4D9B44"/>
<path fill-rule="evenodd" clip-rule="evenodd" d="M267.09 45.9522V0.378418H81.9754C81.9754 0.378418 39.7644 26.1561 35.1369 44.3678C35.1369 44.3678 43.6502 52.1474 63.4654 54.3549C63.4654 54.3549 51.4517 57.7017 29.3673 49.477C29.3673 49.477 1.60231 78.9932 0.119141 118.532C0.119141 118.532 9.75974 121.398 30.1237 120.526L37.3319 105.857L34.1876 119.867C34.1876 119.867 88.0863 121.185 117.364 112.319C117.364 112.319 122.911 104.984 128.844 76.1092L126.604 109.186C126.604 109.186 136.438 109.631 138.84 104.077C141.243 98.5222 147.917 67.2259 147.917 67.2259L145.322 102.296C145.322 102.296 220.341 84.1024 267.09 45.9166V45.9522Z" fill="#4D9B44"/>
<path fill-rule="evenodd" clip-rule="evenodd" d="M202.098 111.963L224.419 109.506C224.419 109.506 204.515 115.666 200.985 117.891C197.455 120.116 197.707 129.088 197.707 129.088L218.739 126.988C200.392 132.471 195.735 137.562 195.735 137.562C190.158 164.355 191.107 213.667 191.107 213.667L200.006 210.765L190.692 217.388C190.173 236.044 192.027 244.892 192.027 244.892C217.152 243.45 235.914 217.993 235.914 217.993C230.649 197.841 232.74 186.821 232.74 186.821C234.193 204.944 239.147 212.723 239.147 212.723C250.775 208.38 267.09 169.731 267.09 169.731L266.704 0.413818L237.723 0.502821C213.562 43.3528 202.098 111.998 202.098 111.998V111.963Z" fill="#30833F"/>
<path d="M181.214 76.6077C181.214 76.6077 181.882 68.0092 183.246 54.9245C184.611 41.8399 191.611 0.378418 191.611 0.378418H201.845C201.845 0.378418 201.504 8.08679 198.093 20.9578C194.667 33.8288 181.214 76.6077 181.214 76.6077ZM204.915 0.378418H214.986C214.126 24.3759 203.047 76.0024 203.047 76.0024L204.915 0.378418ZM219.243 0.378418H233.215C231.85 29.6987 226.214 67.8134 226.214 67.8134L219.243 0.378418ZM241.09 0.378418H252.006C255.373 11.4514 256.901 22.8805 256.604 34.6656C249.663 24.3937 244.487 12.9646 241.075 0.378418H241.09ZM88.6348 55.4764C95.1162 28.8798 120.538 0.378418 120.538 0.378418H134.346C134.346 0.378418 129.081 6.39559 119.054 16.8099C109.028 27.242 88.6348 55.4764 88.6348 55.4764ZM135.043 64.0749L160.45 0.378418H170.358C155.348 40.5937 135.043 64.0749 135.043 64.0749ZM177.922 0.378418H186.45C182.549 33.1168 157.647 71.8901 157.647 71.8901L177.922 0.378418ZM140.842 23.1653C128.339 33.1168 111.668 64.6801 111.668 64.6801C112.677 49.7619 123.608 29.9302 129.748 21.5453C135.889 13.1426 143.215 0.396224 143.215 0.396224H152.782C152.782 0.396224 153.286 13.1604 140.842 23.1831V23.1653ZM267.06 319.804V339.6C238.064 337.66 200.422 329.649 200.422 329.649L267.06 319.804ZM233.2 372.908C233.2 372.908 247.839 357.865 267.06 350.851V366.357C256.115 371.128 244.828 373.318 233.2 372.908ZM191.686 265.739C191.686 265.739 200.184 266.7 213.117 268.641C226.051 270.581 267.06 280.532 267.06 280.532V295.095C267.06 295.095 259.407 294.632 246.711 289.754C234.001 284.876 191.686 265.739 191.686 265.739ZM267.06 299.438V313.751C243.33 312.523 192.294 296.732 192.294 296.732L267.06 299.438ZM244.531 208.398C234.638 190.685 203.492 166.918 203.492 166.918C218.234 168.36 237.842 183.937 246.148 192.607C254.454 201.277 267.06 211.762 267.06 211.762V225.363C267.06 225.363 254.439 226.075 244.531 208.398ZM267.06 261.11V273.234C234.623 267.679 196.358 232.217 196.358 232.217L267.06 261.11ZM204.085 200.138L267.06 236.258V250.322C227.297 228.995 204.085 200.138 204.085 200.138ZM250.805 177.351C261.113 191.61 267.06 199.158 267.06 199.158V179.505C267.06 179.505 238.865 143.348 212.569 134.145C212.569 134.145 240.482 163.02 250.805 177.333V177.351Z" fill="#205732"/>
</svg>
