<svg width="320" height="589" viewBox="0 0 320 589" fill="none" xmlns="http://www.w3.org/2000/svg">
<path fill-rule="evenodd" clip-rule="evenodd" d="M319.78 265.727C319.78 265.727 260.505 283.366 222.957 257.175C222.957 257.175 277.913 223.899 287.27 220.176C296.627 216.454 290.109 205.646 281.552 211.01C272.995 216.36 228.369 246.367 206.176 244.619C183.983 242.858 170.933 211.117 170.933 211.117C170.933 211.117 234.913 186.914 241.471 177.841C248.029 168.768 241.751 166.993 237.193 167.287C232.634 167.58 191.393 201.724 169.16 199.442C169.16 199.442 157.217 199.776 149.82 184.085C142.422 168.394 135.598 155.933 137.317 150.809C139.036 145.686 144.715 143.978 154.098 142.804C163.495 141.643 198.178 128.901 199.324 122.603C200.471 116.319 189.941 117.48 185.382 119.481C180.81 121.483 143.595 141.95 134.198 136.506C132.559 134.665 131.332 132.583 130.493 130.275C129.653 127.954 129.28 125.565 129.36 123.11C129.653 114.878 164.602 110.008 164.602 110.008C164.602 110.008 167.881 108.847 166.481 106.566C165.082 104.284 160.483 105.725 158.084 106.446C155.671 107.166 132.465 111.569 129.639 107.846C126.814 104.124 125.921 64.884 171.72 46.0845C171.72 46.0845 184.222 48.3661 189.941 63.1094C195.659 77.8528 200.724 81.6954 205.962 80.5346C211.201 79.3738 201.404 69.4605 198.845 65.7379C196.285 62.0154 183.516 42.9758 183.516 39.2532C183.516 35.5307 200.737 25.057 234.073 21.8815C234.073 21.8815 248.309 25.8842 261.931 64.8974C261.931 64.8974 265.77 69.1669 268.769 66.2049C271.782 63.2429 255.253 31.568 243.91 20.4804C243.91 20.4804 254.734 7.96531 277.193 9.92664C277.193 9.92664 289.256 15.9308 294.975 42.8157C300.693 69.7006 303.772 59.6137 303.772 59.6137C304.172 54.9039 303.505 50.3541 301.772 45.9645C298.933 38.2526 291.309 14.0895 292.429 10.914C293.548 7.73847 319.807 0.520264 319.807 0.520264V265.741L319.78 265.727Z" fill="#205732"/>
<path fill-rule="evenodd" clip-rule="evenodd" d="M319.78 542.742V588.307H98.0494C98.0494 588.307 47.4919 562.529 41.9469 544.317C41.9469 544.317 52.1437 536.538 75.883 534.323C75.883 534.323 61.4874 530.988 35.0424 539.193C35.0424 539.193 1.78611 509.666 0 470.133C0 470.133 11.5431 467.264 35.9355 468.145L44.5728 482.808L40.8005 468.799C40.8005 468.799 105.354 467.491 140.423 476.337C140.423 476.337 147.074 483.675 154.178 512.535L151.499 479.459C151.499 479.459 163.269 479.019 166.148 484.569C169.027 490.12 177.025 521.421 177.025 521.421L173.906 486.344C173.906 486.344 263.758 504.53 319.767 542.729L319.78 542.742Z" fill="#205732"/>
<path fill-rule="evenodd" clip-rule="evenodd" d="M241.924 476.724L268.649 479.179C268.649 479.179 244.803 473.028 240.578 470.8C236.353 468.572 236.659 459.606 236.659 459.606L261.865 461.714C239.885 456.23 234.314 451.147 234.314 451.147C227.622 424.355 228.769 375.055 228.769 375.055L239.432 377.964L228.275 371.346C227.662 352.693 229.875 343.847 229.875 343.847C259.972 345.288 282.432 370.745 282.432 370.745C276.127 390.892 278.633 401.913 278.633 401.913C280.379 383.781 286.311 376.002 286.311 376.002C300.24 380.339 319.78 419.005 319.78 419.005L319.327 588.32L284.618 588.226C255.68 545.371 241.938 476.737 241.938 476.737L241.924 476.724Z" fill="#257433"/>
<path d="M216.919 512.081C216.919 512.081 217.719 520.674 219.358 533.763C220.998 546.852 229.382 588.306 229.382 588.306H241.644C241.644 588.306 241.245 580.608 237.139 567.732C233.047 554.857 216.919 512.081 216.919 512.081ZM245.31 588.306H257.373C256.333 564.317 243.071 512.682 243.071 512.682L245.31 588.306ZM262.478 588.306H279.206C277.567 558.993 270.822 520.887 270.822 520.887L262.478 588.306ZM288.643 588.306H301.732C305.771 577.232 307.597 565.798 307.237 554.016C298.92 564.29 292.722 575.725 288.643 588.306ZM106.047 533.202C113.804 559.794 144.262 588.306 144.262 588.306H160.803C160.803 588.306 154.498 582.289 142.489 571.869C130.479 561.448 106.047 533.202 106.047 533.202ZM161.643 524.61L192.073 588.306H203.936C185.955 548.092 161.629 524.61 161.629 524.61H161.643ZM213.013 588.306H223.237C218.572 555.564 188.728 516.791 188.728 516.791L213.013 588.306ZM168.587 565.518C153.605 555.564 133.638 524.009 133.638 524.009C134.851 538.926 147.94 558.753 155.298 567.145C162.656 575.538 171.426 588.293 171.426 588.293H182.89C182.89 588.293 183.489 575.538 168.587 565.504V565.518ZM319.78 268.889V249.089C285.058 251.024 239.965 259.043 239.965 259.043L319.78 268.889ZM279.219 215.8C279.219 215.8 296.747 230.837 319.78 237.855V222.351C306.678 217.574 293.162 215.386 279.219 215.8ZM229.502 322.979C229.502 322.979 239.685 322.019 255.174 320.084C270.662 318.149 319.78 308.196 319.78 308.196V293.626C319.78 293.626 310.623 294.093 295.401 298.963C280.179 303.833 229.502 322.966 229.502 322.966V322.979ZM319.78 289.277V274.96C291.362 276.187 230.221 291.985 230.221 291.985L319.78 289.277ZM292.789 380.312C280.939 398.03 243.631 421.793 243.631 421.793C261.292 420.352 284.778 404.768 294.721 396.096C304.665 387.423 319.78 376.949 319.78 376.949V363.353C319.78 363.353 304.665 362.633 292.789 380.312ZM319.78 327.596V315.468C280.939 321.018 235.086 356.482 235.086 356.482L319.78 327.596ZM244.35 388.557L319.78 352.439V338.376C272.155 359.698 244.35 388.571 244.35 388.571V388.557ZM300.306 411.346C312.662 397.083 319.78 389.545 319.78 389.545V409.185C319.78 409.185 286.004 445.329 254.521 454.536C254.521 454.536 287.95 425.663 300.32 411.346H300.306Z" fill="#B3FF88"/>
</svg>
