<svg width="320" height="589" viewBox="0 0 320 589" fill="none" xmlns="http://www.w3.org/2000/svg">
<mask id="mask0_26_141" style="mask-type:luminance" maskUnits="userSpaceOnUse" x="0" y="0" width="320" height="589">
<path d="M319.9 0H0V588.4H319.9V0Z" fill="white"/>
</mask>
<g mask="url(#mask0_26_141)">
<path fill-rule="evenodd" clip-rule="evenodd" d="M320.09 338.973C320.09 338.973 270.611 321.331 239.257 347.518C239.257 347.518 285.131 380.791 292.948 384.511C300.764 388.232 295.321 399.038 288.172 393.679C281.023 388.321 243.766 358.324 225.241 360.069C206.716 361.813 195.815 393.573 195.815 393.573C195.815 393.573 249.224 417.784 254.697 426.845C260.17 435.924 254.919 437.687 251.122 437.402C247.325 437.117 212.886 402.972 194.317 405.251C194.317 405.251 184.35 404.93 178.165 420.614C171.98 436.298 166.285 448.777 167.723 453.887C169.147 459.014 173.893 460.723 181.739 461.898C189.585 463.055 218.537 475.801 219.501 482.085C220.465 488.37 211.67 487.213 207.858 485.201C204.046 483.189 172.974 462.734 165.128 468.182C163.763 470.016 162.725 472.098 162.028 474.413C161.331 476.727 161.02 479.112 161.079 481.587C161.316 489.829 190.505 494.689 190.505 494.689C190.505 494.689 193.249 495.847 192.077 498.125C190.905 500.404 187.079 498.962 185.062 498.25C183.045 497.538 163.674 493.123 161.316 496.844C158.958 500.564 158.216 539.8 196.453 558.617C196.453 558.617 206.894 556.339 211.67 541.598C216.446 526.858 220.673 523.013 225.033 524.17C229.409 525.327 221.236 535.243 219.086 538.964C216.95 542.684 206.286 561.733 206.286 565.453C206.286 569.174 220.658 579.66 248.497 582.828C248.497 582.828 260.377 578.823 271.753 539.818C271.753 539.818 274.957 535.546 277.463 538.501C279.97 541.456 266.177 573.144 256.714 584.217C256.714 584.217 265.746 596.732 284.509 594.774C284.509 594.774 294.579 588.774 299.355 561.893C304.131 535.012 306.697 545.088 306.697 545.088C307.038 549.787 306.474 554.345 305.021 558.742C302.648 566.45 296.285 590.626 297.219 593.795C298.154 596.963 320.075 604.191 320.075 604.191V338.973H320.09Z" fill="#4D9B44"/>
<path fill-rule="evenodd" clip-rule="evenodd" d="M320.09 61.9522V16.3784H134.975C134.975 16.3784 92.7644 42.1561 88.1369 60.3678C88.1369 60.3678 96.6502 68.1474 116.465 70.3549C116.465 70.3549 104.452 73.7017 82.3673 65.477C82.3673 65.477 54.6023 94.9932 53.1191 134.532C53.1191 134.532 62.7597 137.398 83.1237 136.526L90.3319 121.857L87.1876 135.867C87.1876 135.867 141.086 137.185 170.364 128.319C170.364 128.319 175.911 120.984 181.844 92.1092L179.604 125.186C179.604 125.186 189.438 125.631 191.84 120.077C194.243 114.522 200.917 83.2259 200.917 83.2259L198.322 118.296C198.322 118.296 273.341 100.102 320.09 61.9166V61.9522Z" fill="#4D9B44"/>
<path fill-rule="evenodd" clip-rule="evenodd" d="M255.098 127.963L277.419 125.506C277.419 125.506 257.515 131.666 253.985 133.891C250.455 136.116 250.707 145.089 250.707 145.089L271.739 142.988C253.392 148.471 248.735 153.562 248.735 153.562C243.158 180.355 244.107 229.667 244.107 229.667L253.006 226.765L243.692 233.388C243.173 252.044 245.027 260.892 245.027 260.892C270.152 259.45 288.914 233.993 288.914 233.993C283.649 213.841 285.74 202.821 285.74 202.821C287.193 220.944 292.147 228.723 292.147 228.723C303.775 224.38 320.09 185.731 320.09 185.731L319.704 16.4138L290.723 16.5028C266.562 59.3528 255.098 127.998 255.098 127.998V127.963Z" fill="#30833F"/>
<path d="M234.214 92.6077C234.214 92.6077 234.882 84.0092 236.246 70.9245C237.611 57.8399 244.611 16.3784 244.611 16.3784H254.845C254.845 16.3784 254.504 24.0868 251.093 36.9578C247.667 49.8288 234.214 92.6077 234.214 92.6077ZM257.915 16.3784H267.986C267.126 40.3759 256.047 92.0024 256.047 92.0024L257.915 16.3784ZM272.243 16.3784H286.215C284.85 45.6987 279.214 83.8134 279.214 83.8134L272.243 16.3784ZM294.09 16.3784H305.006C308.373 27.4514 309.901 38.8805 309.604 50.6656C302.663 40.3937 297.487 28.9646 294.075 16.3784H294.09ZM141.635 71.4764C148.116 44.8798 173.538 16.3784 173.538 16.3784H187.346C187.346 16.3784 182.081 22.3956 172.054 32.8099C162.028 43.242 141.635 71.4764 141.635 71.4764ZM188.043 80.0749L213.45 16.3784H223.358C208.348 56.5937 188.043 80.0749 188.043 80.0749ZM230.922 16.3784H239.45C235.549 49.1168 210.647 87.8901 210.647 87.8901L230.922 16.3784ZM193.842 39.1653C181.339 49.1168 164.668 80.6801 164.668 80.6801C165.677 65.7619 176.608 45.9302 182.748 37.5453C188.889 29.1426 196.215 16.3962 196.215 16.3962H205.782C205.782 16.3962 206.286 29.1604 193.842 39.1831V39.1653ZM320.06 335.804V355.6C291.064 353.66 253.422 345.649 253.422 345.649L320.06 335.804ZM286.2 388.908C286.2 388.908 300.839 373.865 320.06 366.851V382.357C309.115 387.128 297.828 389.318 286.2 388.908ZM244.686 281.739C244.686 281.739 253.184 282.7 266.117 284.641C279.051 286.581 320.06 296.532 320.06 296.532V311.095C320.06 311.095 312.407 310.632 299.711 305.754C287.001 300.876 244.686 281.739 244.686 281.739ZM320.06 315.438V329.751C296.33 328.523 245.294 312.732 245.294 312.732L320.06 315.438ZM297.531 224.398C287.638 206.685 256.492 182.919 256.492 182.919C271.234 184.36 290.842 199.937 299.148 208.607C307.454 217.277 320.06 227.762 320.06 227.762V241.363C320.06 241.363 307.439 242.075 297.531 224.398ZM320.06 277.11V289.234C287.623 283.679 249.358 248.217 249.358 248.217L320.06 277.11ZM257.085 216.138L320.06 252.258V266.322C280.297 244.995 257.085 216.138 257.085 216.138ZM303.805 193.351C314.113 207.61 320.06 215.158 320.06 215.158V195.505C320.06 195.505 291.865 159.348 265.569 150.145C265.569 150.145 293.482 179.02 303.805 193.333V193.351Z" fill="#205732"/>
</g>
</svg>
