<svg version="1.2" xmlns="http://www.w3.org/2000/svg" viewBox="0 0 320 589" width="136" height="250">
	<title>bg_arvore_inferior_direito-svg</title>
	<style>
		.s0 { fill: #205732 } 
		.s1 { fill: #257433 } 
		.s2 { fill: #b3ff88 } 
	</style>
	<path fill-rule="evenodd" class="s0" d="m319.8 265.7c0 0-59.3 17.7-96.8-8.5 0 0 54.9-33.3 64.3-37 9.3-3.7 2.8-14.6-5.7-9.2-8.6 5.4-53.2 35.4-75.4 33.6-22.2-1.7-35.3-33.5-35.3-33.5 0 0 64-24.2 70.6-33.3 6.5-9 0.3-10.8-4.3-10.5-4.6 0.3-45.8 34.4-68 32.1 0 0-12 0.4-19.4-15.3-7.4-15.7-14.2-28.2-12.5-33.3 1.7-5.1 7.4-6.8 16.8-8 9.4-1.2 44.1-13.9 45.2-20.2 1.2-6.3-9.4-5.1-13.9-3.1-4.6 2-41.8 22.4-51.2 17q-2.5-2.8-3.7-6.2-1.3-3.5-1.1-7.2c0.3-8.2 35.2-13.1 35.2-13.1 0 0 3.3-1.2 1.9-3.4-1.4-2.3-6-0.9-8.4-0.2-2.4 0.8-25.6 5.2-28.5 1.4-2.8-3.7-3.7-42.9 42.1-61.7 0 0 12.5 2.3 18.2 17 5.8 14.8 10.8 18.6 16.1 17.4 5.2-1.1-4.6-11-7.2-14.8-2.5-3.7-15.3-22.7-15.3-26.4 0-3.8 17.2-14.2 50.6-17.4 0 0 14.2 4 27.8 43 0 0 3.9 4.3 6.9 1.3 3-3-13.5-34.6-24.9-45.7 0 0 10.8-12.5 33.3-10.6 0 0 12.1 6 17.8 32.9 5.7 26.9 8.8 16.8 8.8 16.8q0.6-7.1-2-13.6c-2.9-7.7-10.5-31.9-9.4-35.1 1.1-3.2 27.4-10.4 27.4-10.4v265.2z"/>
	<path fill-rule="evenodd" class="s0" d="m319.8 542.7v45.6h-221.8c0 0-50.5-25.8-56.1-44 0 0 10.2-7.8 34-10 0 0-14.4-3.3-40.9 4.9 0 0-33.2-29.5-35-69.1 0 0 11.5-2.8 35.9-2l8.7 14.7-3.8-14c0 0 64.6-1.3 99.6 7.5 0 0 6.7 7.4 13.8 36.2l-2.7-33c0 0 11.8-0.5 14.6 5.1 2.9 5.5 10.9 36.8 10.9 36.8l-3.1-35.1c0 0 89.9 18.2 145.9 56.4z"/>
	<path fill-rule="evenodd" class="s1" d="m241.9 476.7l26.7 2.5c0 0-23.8-6.2-28-8.4-4.2-2.2-3.9-11.2-3.9-11.2l25.2 2.1c-22-5.5-27.6-10.6-27.6-10.6-6.7-26.7-5.5-76-5.5-76l10.6 2.9-11.1-6.7c-0.6-18.6 1.6-27.5 1.6-27.5 30.1 1.5 52.5 26.9 52.5 26.9-6.3 20.2-3.8 31.2-3.8 31.2 1.8-18.1 7.7-25.9 7.7-25.9 13.9 4.3 33.5 43 33.5 43l-0.5 169.3-34.7-0.1c-28.9-42.8-42.7-111.5-42.7-111.5z"/>
	<path fill-rule="evenodd" class="s2" d="m237.1 567.7c4.1 12.9 4.5 20.6 4.5 20.6h-12.2c0 0-8.4-41.4-10-54.5-1.7-13.1-2.5-21.7-2.5-21.7 0 0 16.1 42.8 20.2 55.6zm6-55c0 0 13.2 51.6 14.3 75.6h-12.1zm27.8 8.2c0 0 6.7 38.1 8.3 67.4h-16.7zm36.4 33.2q0.6 17.6-5.5 34.2h-13.1q6.2-18.8 18.6-34.2zm-164.7 17.8c12 10.4 18.3 16.4 18.3 16.4h-16.5c0 0-30.5-28.5-38.3-55.1 0 0 24.5 28.3 36.5 38.7zm19.1-47.2h0.1q-0.1 0-0.1 0zm0 0c0.9 0.9 24.7 24.2 42.3 63.6h-11.8zm27-7.8c0 0 29.9 38.8 34.5 71.5h-10.2zm-20.1 48.7c14.9 10.1 14.3 22.8 14.3 22.8h-11.5c0 0-8.8-12.7-16.1-21.1-7.4-8.4-20.5-28.2-21.7-43.2 0 0 20 31.6 35 41.5zm71.3-306.4c0 0 45.1-8 79.9-10v19.8zm79.8-36.7v15.5c-23.1-7-40.6-22-40.6-22q20.9-0.6 40.6 6.5zm-90.3 100.7c0 0 50.7-19.2 65.9-24 15.2-4.9 24.4-5.4 24.4-5.4v14.6c0 0-49.1 9.9-64.6 11.9-15.5 1.9-25.7 2.9-25.7 2.9zm0.7-31c0 0 61.2-15.8 89.6-17v14.3zm89.5 71.3v13.6c0 0-15.1 10.5-25 19.2-10 8.7-33.5 24.2-51.1 25.7 0 0 37.3-23.8 49.1-41.5 11.9-17.7 27-17 27-17zm-84.7-6.8c0 0 45.9-35.5 84.7-41v12.1zm9.3 32.1q0 0 0 0zm0 0c1-1 28.6-29.3 75.4-50.2v14.1zm56 22.8c12.3-14.3 19.4-21.8 19.4-21.8v19.6c0 0-33.7 36.1-65.2 45.4 0 0 33.4-28.9 45.8-43.2z"/>
</svg>