<svg width="320" height="589" viewBox="0 0 320 589" fill="none" xmlns="http://www.w3.org/2000/svg">
<mask id="mask0_23_9834" style="mask-type:luminance" maskUnits="userSpaceOnUse" x="0" y="0" width="320" height="589">
<path d="M319.9 0H0V588.4H319.9V0Z" fill="white"/>
</mask>
<g mask="url(#mask0_23_9834)">
<path fill-rule="evenodd" clip-rule="evenodd" d="M319.78 265.728C319.78 265.728 260.505 283.366 222.957 257.175C222.957 257.175 277.913 223.899 287.27 220.177C296.627 216.454 290.109 205.647 281.552 211.01C272.994 216.361 228.369 246.368 206.175 244.62C183.982 242.859 170.933 211.117 170.933 211.117C170.933 211.117 234.913 186.914 241.471 177.841C248.029 168.768 241.751 166.994 237.192 167.287C232.634 167.581 191.393 201.724 169.16 199.442C169.16 199.442 157.217 199.776 149.82 184.085C142.422 168.395 135.597 155.933 137.317 150.809C139.036 145.686 144.715 143.978 154.098 142.804C163.495 141.643 198.178 128.901 199.324 122.604C200.471 116.319 189.941 117.48 185.382 119.481C180.81 121.483 143.595 141.95 134.198 136.506C132.558 134.665 131.332 132.584 130.492 130.275C129.653 127.954 129.279 125.566 129.359 123.111C129.653 114.878 164.602 110.008 164.602 110.008C164.602 110.008 167.881 108.847 166.481 106.566C165.082 104.284 160.483 105.725 158.084 106.446C155.671 107.166 132.465 111.569 129.639 107.847C126.814 104.124 125.921 64.8842 171.72 46.0848C171.72 46.0848 184.222 48.3663 189.94 63.1097C195.659 77.8531 200.724 81.6957 205.962 80.5349C211.201 79.3741 201.404 69.4607 198.844 65.7382C196.285 62.0157 183.516 42.976 183.516 39.2535C183.516 35.5309 200.737 25.0572 234.073 21.8817C234.073 21.8817 248.309 25.8844 261.931 64.8976C261.931 64.8976 265.77 69.1672 268.769 66.2051C271.782 63.2431 255.253 31.5682 243.91 20.4807C243.91 20.4807 254.734 7.96555 277.193 9.92689C277.193 9.92689 289.256 15.931 294.974 42.8159C300.693 69.7009 303.772 59.614 303.772 59.614C304.171 54.9041 303.505 50.3544 301.772 45.9647C298.933 38.2528 291.309 14.0897 292.428 10.9142C293.548 7.73872 319.807 0.520508 319.807 0.520508V265.741L319.78 265.728Z" fill="#205732"/>
<path fill-rule="evenodd" clip-rule="evenodd" d="M319.78 542.742V588.307H98.0494C98.0494 588.307 47.4919 562.529 41.9469 544.317C41.9469 544.317 52.1437 536.538 75.883 534.323C75.883 534.323 61.4874 530.988 35.0424 539.193C35.0424 539.193 1.78611 509.667 0 470.133C0 470.133 11.5431 467.264 35.9355 468.145L44.5728 482.808L40.8005 468.799C40.8005 468.799 105.354 467.491 140.423 476.337C140.423 476.337 147.074 483.676 154.178 512.535L151.499 479.459C151.499 479.459 163.269 479.019 166.148 484.57C169.027 490.12 177.025 521.421 177.025 521.421L173.906 486.344C173.906 486.344 263.758 504.53 319.767 542.729L319.78 542.742Z" fill="#205732"/>
<path fill-rule="evenodd" clip-rule="evenodd" d="M241.924 476.724L268.649 479.179C268.649 479.179 244.803 473.028 240.578 470.8C236.353 468.572 236.659 459.606 236.659 459.606L261.865 461.714C239.885 456.23 234.314 451.147 234.314 451.147C227.622 424.355 228.769 375.055 228.769 375.055L239.432 377.964L228.275 371.346C227.662 352.693 229.875 343.847 229.875 343.847C259.972 345.288 282.432 370.746 282.432 370.746C276.127 390.893 278.633 401.913 278.633 401.913C280.379 383.781 286.311 376.002 286.311 376.002C300.24 380.339 319.78 419.005 319.78 419.005L319.327 588.32L284.618 588.227C255.68 545.371 241.938 476.738 241.938 476.738L241.924 476.724Z" fill="#257433"/>
<path d="M216.919 512.082C216.919 512.082 217.719 520.674 219.358 533.763C220.998 546.852 229.382 588.307 229.382 588.307H241.645C241.645 588.307 241.245 580.608 237.139 567.733C233.047 554.857 216.919 512.082 216.919 512.082ZM245.31 588.307H257.373C256.333 564.317 243.071 512.682 243.071 512.682L245.31 588.307ZM262.478 588.307H279.206C277.567 558.994 270.822 520.888 270.822 520.888L262.478 588.307ZM288.643 588.307H301.732C305.771 577.233 307.597 565.798 307.237 554.017C298.92 564.291 292.722 575.725 288.643 588.307ZM106.047 533.203C113.805 559.794 144.262 588.307 144.262 588.307H160.803C160.803 588.307 154.498 582.289 142.489 571.869C130.479 561.449 106.047 533.203 106.047 533.203ZM161.643 524.61L192.074 588.307H203.936C185.955 548.093 161.63 524.61 161.63 524.61H161.643ZM213.014 588.307H223.237C218.572 555.565 188.728 516.792 188.728 516.792L213.014 588.307ZM168.587 565.518C153.605 555.565 133.638 524.01 133.638 524.01C134.851 538.927 147.941 558.753 155.298 567.146C162.656 575.538 171.426 588.294 171.426 588.294H182.89C182.89 588.294 183.489 575.538 168.587 565.505V565.518ZM319.78 268.89V249.09C285.058 251.024 239.965 259.043 239.965 259.043L319.78 268.89ZM279.219 215.8C279.219 215.8 296.747 230.837 319.78 237.855V222.351C306.678 217.575 293.162 215.387 279.219 215.8ZM229.502 322.98C229.502 322.98 239.685 322.019 255.174 320.085C270.662 318.15 319.78 308.196 319.78 308.196V293.626C319.78 293.626 310.623 294.093 295.401 298.963C280.179 303.833 229.502 322.967 229.502 322.967V322.98ZM319.78 289.277V274.96C291.362 276.188 230.222 291.985 230.222 291.985L319.78 289.277ZM292.789 380.312C280.939 398.031 243.631 421.794 243.631 421.794C261.292 420.353 284.778 404.769 294.721 396.096C304.665 387.424 319.78 376.95 319.78 376.95V363.354C319.78 363.354 304.665 362.634 292.789 380.312ZM319.78 327.596V315.468C280.939 321.018 235.087 356.483 235.087 356.483L319.78 327.596ZM244.35 388.558L319.78 352.44V338.377C272.155 359.698 244.35 388.571 244.35 388.571V388.558ZM300.306 411.347C312.662 397.084 319.78 389.545 319.78 389.545V409.185C319.78 409.185 286.004 445.33 254.521 454.536C254.521 454.536 287.95 425.663 300.32 411.347H300.306Z" fill="#B3FF88"/>
</g>
</svg>
