<svg width="1910" height="637" viewBox="0 0 1910 637" fill="none" xmlns="http://www.w3.org/2000/svg">
<rect y="247" width="1910" height="390" fill="white"/>
<mask id="mask0_307_251" style="mask-type:luminance" maskUnits="userSpaceOnUse" x="0" y="0" width="1910" height="323">
<path d="M1909.7 0.590332H0.243408V322.765H1909.7V0.590332Z" fill="white"/>
</mask>
<g mask="url(#mask0_307_251)">
<path d="M261.68 50.8522C241.949 82.7382 226.859 117.302 223.995 154.982C222.603 173.239 223.332 191.535 225.904 209.646C228.397 227.2 231.328 247.723 243.143 261.684C245.543 264.522 250.343 262.161 250.303 258.714C250.144 242.486 243.501 226.709 240.941 210.759C238.077 192.927 237.388 174.697 238.581 156.679C240.955 120.789 247.386 84.4353 264.239 52.3504C265.128 50.6534 262.688 49.2215 261.667 50.8522H261.68Z" fill="white"/>
<path d="M708.878 16.6989C690.314 32.6618 675.542 51.9393 666.287 74.6771C661.738 85.867 658.702 97.4812 657.243 109.467C655.904 120.511 654.14 135.877 660.731 145.661C662.799 148.737 667.042 148.061 668.289 144.667C671.896 134.909 669.88 122.645 670.795 112.383C671.816 101.008 674.017 89.6721 677.319 78.7341C683.962 56.7255 695.247 35.7112 711.424 19.2578C713.082 17.574 710.615 15.2008 708.865 16.6989H708.878Z" fill="white"/>
<path d="M918.348 10.388C911.89 20.6366 905.937 30.6863 902.489 42.4066C899.002 54.2859 897.623 67.0138 898.02 79.3704C898.405 91.515 900.792 103.845 904.969 115.26C908.721 125.482 914.94 138.966 925.137 144.203C927.643 145.489 930.175 143.381 929.672 140.716C928.704 135.585 925.826 130.958 923.837 126.159C921.716 121.041 919.263 116.043 917.313 110.859C913.389 100.411 910.856 89.513 909.782 78.4026C907.687 56.7785 910.644 31.3758 921.371 12.1514C922.471 10.1759 919.554 8.47881 918.348 10.388Z" fill="white"/>
<path d="M1441.75 62.9304C1457 93.8485 1466.16 126.822 1468.75 161.174C1469.97 177.455 1470.29 193.895 1469.19 210.189C1468.15 225.688 1463.68 241.001 1465.86 256.487C1466.38 260.199 1471.4 259.894 1473.1 257.428C1482.35 244.051 1482.89 226.006 1483.81 210.176C1484.85 192.649 1483.92 175.188 1480.98 157.872C1475.19 123.852 1462.48 90.7063 1444.42 61.3659C1443.37 59.6556 1440.88 61.1538 1441.75 62.9304Z" fill="white"/>
<path d="M1654.17 32.8874C1644.82 50.9186 1637.56 69.3873 1635.16 89.7121C1633.96 99.9872 1634.08 110.395 1635.16 120.683C1636.12 129.659 1637.54 140.902 1644.39 147.478C1646 149.016 1648.7 148.34 1649.31 146.179C1651.77 137.521 1648.93 127.511 1647.96 118.761C1646.94 109.44 1646.74 100.053 1647 90.68C1647.54 71.6014 1650.03 51.9793 1657.08 34.1205C1657.75 32.4367 1654.97 31.2832 1654.15 32.8874H1654.17Z" fill="white"/>
<path d="M1901.61 269.308C1887.69 293.292 1863.91 310.209 1837.99 320.285C1836.28 320.922 1834.34 321.571 1832.63 322.208H24.3242C14.472 317.276 6.11808 308.711 3.75778 298.224C1.39747 286.663 8.0408 273.166 19.6036 270.594C6.10482 258.595 -3.74745 241.89 -5.45801 223.898C-6.9564 205.907 0.323404 186.842 15.1084 176.566C30.1056 166.291 52.1705 166.716 65.0196 179.351C52.5948 142.944 67.8042 99.47 98.8594 76.7587C130.127 54.2728 174.256 52.3371 208.322 70.1163C226.528 79.7551 241.737 94.3126 252.451 111.668C262.092 126.875 268.735 144.216 270.87 161.996C284.156 152.781 302.137 151.071 316.71 157.501C331.495 164.144 341.984 178.701 343.92 194.77C370.268 175.705 410.539 179.351 433.028 202.911C431.105 185.993 428.745 170.574 430.88 155.579V155.367C432.378 142.732 436.873 130.958 447.375 119.172C469.864 94.3258 509.075 86.4107 539.48 100.756C526.843 74.8362 540.117 40.577 565.828 27.7166C591.526 14.8694 624.942 22.7845 644.434 43.7855C663.926 64.7733 669.708 96.6858 662.216 124.316C667.573 104.177 696.705 98.3961 718.982 99.47C726.686 99.6821 733.542 100.968 738.475 102.466C766.745 111.455 788.174 147.664 794.817 175.068C792.894 159.649 796.315 143.792 803.595 130.096C810.663 117.461 820.953 106.749 833.802 99.8943C860.362 85.9731 895.501 90.2555 917.765 109.957C905.977 81.4786 914.331 45.9201 937.469 25.5688C960.82 5.00527 997.233 1.37253 1024.01 16.7918C1050.78 32.2111 1065.99 65.4096 1059.99 95.824C1080.56 64.7733 1131.11 63.6994 1157.67 89.8313C1173.95 105.9 1181.02 128.81 1180.16 151.734C1179.73 166.079 1175.87 180.65 1169.23 193.497C1178.66 180.212 1188.3 166.729 1200.07 155.804C1206.07 150.236 1212.71 145.304 1219.99 141.459C1241.63 130.322 1272.04 131.82 1286.18 151.734C1281.48 120.246 1302.68 86.6228 1333.52 77.6337C1364.15 68.6446 1400.14 85.1379 1413.43 114.253C1434.42 97.3354 1466.76 104.826 1486.04 124.104C1489.69 127.75 1492.68 132.032 1495.26 136.527C1507.68 159.225 1506.82 186.431 1499.12 211.276C1504.05 204.846 1512.61 201.001 1519.47 198.854C1534.03 194.783 1550.96 197.143 1562.53 207.418C1563.37 191.999 1564.24 176.142 1568.73 161.16C1573.23 146.378 1581.58 132.456 1594.65 123.892C1594.87 123.892 1594.87 123.679 1595.08 123.679C1608.37 115.539 1626.78 114.465 1639.21 123.892C1642.42 89.8313 1668.77 59.6423 1701.76 49.7915C1734.52 40.1528 1772.01 50.4411 1796.86 73.9877C1821.71 97.5475 1833.92 133.318 1830.7 167.365C1855.34 154.942 1888.1 166.729 1902.67 190.275C1917.46 213.835 1915.31 245.324 1901.6 269.308H1901.61Z" fill="white"/>
<path d="M147.537 120.471C173.911 139.722 193.616 166.437 209.555 194.571C217.338 208.293 224.048 222.427 228.941 237.448C233.635 251.873 234.192 268.79 241.737 281.969C243.66 285.323 248.632 284.448 249.733 280.922C254.48 265.622 247.638 246.994 242.771 232.357C237.427 216.328 230.453 200.511 221.502 186.165C203.614 157.488 177.492 135.545 148.969 118.031C147.405 117.064 146.132 119.41 147.564 120.444L147.537 120.471Z" fill="white"/>
<path d="M437.708 88.585C447.945 119.185 452.015 150.753 450.305 182.957C449.483 198.482 447.215 213.928 443.94 229.109C442.349 236.48 440.493 243.786 438.265 250.998C436.037 258.184 433.187 264.787 434.963 272.344C435.547 274.823 438.875 276.295 441.036 274.823C452.93 266.736 455.423 246.146 458.102 233.02C461.456 216.54 462.782 199.755 462.385 182.957C461.602 150.13 453.912 117.329 440.771 87.2857C440.002 85.5356 437.072 86.7819 437.682 88.585H437.708Z" fill="white"/>
<path d="M496.345 148.433C475.911 170.468 458.832 194.598 446.938 222.334C441.262 235.566 436.78 249.473 433.558 263.514C430.508 276.852 425.469 294.565 430.641 307.81C431.874 310.952 436.568 312.357 438.425 308.83C444.511 297.243 443.848 282.433 446.328 269.745C449.086 255.638 452.838 241.823 457.652 228.274C467.398 200.856 480.87 173.981 498.97 151.084C500.416 149.255 498.002 146.643 496.332 148.446L496.345 148.433Z" fill="white"/>
<path d="M578.518 155.817C589.192 177.747 597.214 200.67 601.776 224.654C604.004 236.388 605.515 248.201 606.377 260.12C607.159 270.912 605.091 283.839 610.753 293.491C612.344 296.195 616.176 296.063 617.794 293.491C624.199 283.295 620.844 268.923 619.359 257.72C617.754 245.615 615.195 233.617 611.708 221.923C604.64 198.164 594.456 175.214 581.13 154.306C580.069 152.649 577.669 154.094 578.518 155.831V155.817Z" fill="white"/>
<path d="M818.566 77.1565C829.518 110.461 828.723 147.12 818.605 180.464C814.084 195.367 808.315 209.699 800.373 223.129C796.328 229.984 791.807 236.507 786.874 242.751C782.578 248.201 777.791 253.504 776.279 260.438C775.656 263.315 778.056 265.821 780.973 265.131C795.241 261.75 805.319 243.507 812.333 231.866C821.178 217.203 828.391 200.948 832.17 184.203C840.405 147.664 835.34 110.766 821.721 76.2814C820.966 74.3722 817.903 75.1147 818.579 77.1432L818.566 77.1565Z" fill="white"/>
<path d="M808.223 101.591C813.248 128.996 811.286 159.132 805.637 186.285C802.892 199.477 799.073 212.43 794.233 225.012C789.327 237.753 781.437 249.659 779.024 263.235C778.52 266.046 781.583 269.506 784.461 267.412C796.09 258.979 801.659 245.589 806.87 232.662C812.572 218.476 816.577 203.653 818.778 188.512C823.193 158.27 819.799 129.884 811.538 100.676C810.928 98.5154 807.825 99.4435 808.223 101.591Z" fill="white"/>
<path d="M1163.5 63.9513C1173.8 89.8446 1175.81 117.024 1173.05 144.561C1171.72 157.727 1168.58 170.839 1163.95 183.222C1161.53 189.705 1158.57 195.963 1155.19 201.982C1152.08 207.511 1149.1 212.35 1150.14 218.86C1150.48 221.061 1153.09 221.989 1154.98 221.605C1167.31 219.072 1173.26 199.609 1177.26 189.334C1182.71 175.347 1185.92 160.67 1187.17 145.728C1189.57 116.905 1181.3 87.2857 1166.54 62.652C1165.61 61.1008 1162.79 62.1216 1163.5 63.9248V63.9513Z" fill="white"/>
<path d="M1225.37 91.1041C1205.34 108.777 1189.33 130.375 1178.5 154.823C1173.18 166.795 1169.11 179.218 1166.35 192.026C1163.69 204.395 1160.74 218.622 1165.45 230.832C1166.58 233.749 1170.13 233.63 1171.3 230.832C1175.94 219.695 1175.85 206.994 1178.07 195.247C1180.42 182.904 1183.96 170.746 1188.43 158.999C1197.49 135.135 1211.1 112.821 1228.08 93.7823C1229.71 91.9526 1227.23 89.4866 1225.4 91.1041H1225.37Z" fill="white"/>
<path d="M1393.34 213.04C1400.9 232.105 1411.37 250.348 1425.3 265.502C1432.4 273.245 1440.8 279.689 1449.73 285.204C1454.22 287.975 1458.86 290.481 1463.7 292.576C1469.01 294.883 1473.99 295.32 1479.69 295.665C1484.46 295.956 1485.27 289.685 1481.94 287.352C1477.83 284.475 1474.2 281.532 1469.62 279.304C1465.37 277.236 1461.15 275.048 1457.07 272.675C1448.82 267.889 1441 262.267 1433.48 256.421C1417.95 244.342 1405.05 229.52 1396.65 211.661C1395.79 209.831 1392.6 211.144 1393.35 213.053L1393.34 213.04Z" fill="white"/>
<path d="M1388.21 262.321C1403.28 271.681 1418.98 278.893 1436.32 282.99C1444.86 285.005 1453.75 286.066 1462.52 286.292C1470.54 286.49 1480.13 286 1486.96 281.333C1488.6 280.206 1488.28 277.886 1486.43 277.236C1479.03 274.624 1470.29 275.301 1462.52 275.181C1454.4 275.062 1446.33 274.399 1438.28 273.312C1421.88 271.111 1405.06 266.285 1390.34 258.661C1387.92 257.402 1385.86 260.889 1388.19 262.334L1388.21 262.321Z" fill="white"/>
<path d="M1731.53 136.726C1734.15 157.515 1730.27 176.606 1722.4 195.818C1718.74 204.754 1714.11 213.451 1708.65 221.419C1703.4 229.069 1693.89 236.587 1691.88 245.92C1691.37 248.254 1693.02 251.383 1695.82 251.091C1706.61 249.951 1714.19 239.092 1719.84 230.846C1726.17 221.618 1731.06 211.542 1734.4 200.856C1740.77 180.504 1740.14 156.785 1734.96 136.275C1734.5 134.419 1731.27 134.75 1731.53 136.739V136.726Z" fill="white"/>
<path d="M1707.19 155.062C1708.5 173.729 1706.18 191.959 1701.26 209.977C1698.89 218.675 1695.93 227.292 1692.2 235.512C1690.26 239.768 1688.07 243.958 1686.6 248.413C1685.3 252.364 1683.18 256.368 1683.27 260.623C1683.31 262.519 1685.31 264.495 1687.33 263.713C1691.47 262.095 1694.12 258.714 1697.04 255.519C1700.38 251.873 1702.72 247.326 1704.74 242.844C1708.97 233.431 1712.27 223.686 1714.25 213.557C1718.07 194.014 1717.11 173.65 1712.46 154.359C1711.75 151.469 1706.98 152.012 1707.19 155.075V155.062Z" fill="white"/>
<path d="M474.585 295.015C469.228 302.944 463.234 310.222 457.015 317.713C455.941 318.999 454.88 320.498 453.594 322.208H192.263C181.775 317.064 172.771 309.361 167.202 299.51C159.06 284.303 160.134 265.675 165.703 249.394C169.774 237.395 176.418 226.046 186.482 218.343C196.547 210.64 210.257 206.994 222.47 211.064C213.254 188.154 212.406 161.373 223.968 139.523C230.187 127.737 240.464 117.674 252.464 111.681C262.317 106.749 273.455 104.402 284.382 105.9C308.807 108.897 329.798 132.669 327.013 157.09C339.862 137.176 366.21 128.598 389.349 132.894C404.982 135.89 419.343 144.243 430.906 155.38V155.592C436.475 160.736 441.408 166.517 445.466 172.934C449.961 179.576 453.607 186.855 454.894 194.571C455.968 202.5 454.244 210.852 448.9 216.633C451.26 216.209 453.833 215.983 456.18 216.421C470.739 217.495 483.814 230.342 487.023 245.125C490.882 262.254 484.238 280.246 474.598 295.029L474.585 295.015Z" fill="white"/>
<path d="M920.337 298.873C914.131 308.936 904.703 316.865 893.989 322.221H577.39C557.036 310.222 537.769 291.383 538.83 266.112C539.692 248.545 552.329 232.052 569.037 226.709C585.744 221.366 605.449 227.133 616.375 240.842C612.729 223.925 611.018 206.146 615.739 189.44C620.446 172.947 632.659 157.528 649.154 152.596C665.862 147.889 686.216 156.242 691.56 172.722C686.853 145.741 696.493 115.751 718.558 99.6954C718.77 99.6954 718.77 99.4833 718.982 99.4833C732.269 89.8446 749.825 85.7743 765.459 90.2688C783.877 95.6251 797.376 111.681 803.582 130.11C805.08 134.18 806.366 138.25 807.016 142.533C811.087 165.668 806.366 189.44 801.871 212.563C812.373 202.712 823.512 192.649 837.209 188.154C850.92 183.66 868.052 186.232 876.194 198.217C883.05 208.068 881.763 221.989 876.194 232.702C870.625 243.414 861.409 251.767 852.419 259.682C864.419 254.538 876.831 248.97 889.905 248.545C903.192 248.121 917.327 253.689 923.321 265.463C928.678 275.963 926.317 288.811 920.324 298.873H920.337Z" fill="white"/>
<path d="M1352.18 322.208H1081.86C1074.58 317.064 1067.94 309.148 1062.58 297.362C1052.73 276.162 1058.3 247.458 1079.07 234.823C1096.64 224.322 1122.78 230.328 1133.06 247.67C1122.99 226.033 1121.92 199.477 1134.13 178.926C1143.56 163.083 1161.98 152.158 1180.18 151.72C1187.04 151.72 1193.68 152.794 1200.1 155.791C1200.31 155.791 1200.31 156.003 1200.52 156.003C1214.87 162.857 1224.95 176.991 1230.08 191.986C1235.23 207.193 1236.51 223.262 1237.36 239.317C1242.51 223.474 1249.15 207.405 1261.77 196.48C1274.41 185.555 1294.33 181.697 1307.61 191.336C1320.67 200.763 1323.46 219.178 1320.46 234.81C1317.25 250.441 1309.54 265.012 1305.46 280.431C1316.18 277.01 1327.32 273.789 1338.46 274.863C1349.59 275.937 1361.16 282.791 1363.94 293.703C1366.94 304.203 1360.73 315.552 1352.17 322.194L1352.18 322.208Z" fill="white"/>
<path d="M1769.87 301.22C1766.66 308.936 1762.38 316.003 1756.81 322.208H1429.72C1424.79 311.933 1424.79 299.298 1429.51 289.009C1434.87 277.448 1446.22 268.87 1458.86 266.948C1447.07 259.019 1437.65 247.246 1434.43 233.537C1431.22 219.828 1435.08 204.197 1445.78 194.982C1456.71 185.993 1474.28 185.131 1484.56 194.982C1478.12 171.634 1474.49 144.866 1486.05 124.09C1486.9 122.804 1487.55 121.731 1488.41 120.444C1500.2 103.089 1522.25 94.5247 1542.82 96.4604C1562.74 98.3828 1581.17 109.095 1594.65 123.878C1595.3 124.303 1595.94 124.952 1596.36 125.589C1609.86 141.432 1618.43 160.922 1623.79 181.061C1639.86 164.568 1667.49 160.935 1687.41 172.708C1707.11 184.27 1717.4 210.189 1710.97 232.251C1728.1 222.188 1751.88 228.83 1764.09 244.674C1776.09 260.305 1777.38 282.804 1769.87 301.22Z" fill="white"/>
<path d="M239.775 253.53C239.615 253.53 239.456 253.504 239.284 253.451C238.449 253.186 237.984 252.284 238.25 251.436C241.22 242.089 248.288 233.961 257.119 229.705C265.141 225.847 274.728 225.131 283.281 227.597C281.968 216.407 289.606 205.973 298.517 201.054C307.123 196.295 318.049 194.81 331.826 196.454C332.715 196.56 333.338 197.355 333.232 198.217C333.126 199.092 332.317 199.702 331.455 199.609C318.288 198.032 308.051 199.424 300.068 203.839C291.715 208.466 284.262 219.059 286.901 229.599C287.047 230.169 286.861 230.779 286.41 231.177C285.96 231.548 285.336 231.668 284.779 231.469C276.399 228.26 266.613 228.711 258.524 232.569C250.462 236.467 244.018 243.865 241.3 252.404C241.087 253.08 240.451 253.517 239.775 253.517V253.53Z" fill="white"/>
<path d="M432.312 251.794C431.582 251.794 430.919 251.29 430.747 250.547C429.381 244.515 425.257 239.225 419.741 236.427C414.172 233.603 407.489 233.418 401.826 235.91C401.468 236.083 400.991 236.109 400.58 235.91C400.182 235.738 399.864 235.42 399.705 235.009C396.933 228.008 390.33 222.745 382.878 221.618C375.492 220.504 367.549 223.567 362.828 229.44C362.285 230.13 361.25 230.249 360.574 229.692C359.885 229.135 359.779 228.128 360.322 227.438C365.732 220.69 374.802 217.137 383.342 218.449C391.378 219.669 398.551 225.052 402.039 232.37C408.244 230.156 415.299 230.58 421.173 233.564C427.538 236.785 432.285 242.884 433.876 249.831C434.075 250.693 433.531 251.555 432.67 251.741C432.55 251.767 432.431 251.78 432.312 251.78V251.794Z" fill="white"/>
<path d="M679.6 277.567C679.122 277.567 678.658 277.342 678.366 276.971C673.314 270.766 665.902 266.576 657.986 265.463C650.043 264.323 641.768 266.311 635.218 270.885C634.475 271.376 633.494 271.217 632.99 270.488C632.486 269.758 632.672 268.764 633.388 268.26C640.615 263.249 649.725 261.048 658.436 262.294C666.379 263.408 673.885 267.345 679.348 273.219C684.241 265.542 692.886 260.266 701.996 259.603C711.808 258.701 722.019 263.593 727.813 271.601C728.331 272.304 728.171 273.312 727.455 273.829C726.753 274.346 725.745 274.187 725.228 273.471C720.388 266.815 712.193 262.718 703.972 262.718C703.388 262.718 702.805 262.745 702.208 262.785C693.43 263.434 685.103 268.897 681.005 276.692C680.753 277.17 680.289 277.488 679.745 277.541C679.692 277.541 679.639 277.541 679.586 277.541L679.6 277.567Z" fill="white"/>
<path d="M808.979 241.81C808.183 241.81 807.493 241.213 807.401 240.405C806.075 229.798 801.314 221.167 794.326 216.712C787.139 212.112 775.351 212.655 770.339 220.239C769.941 220.849 769.211 221.087 768.509 220.875C767.832 220.663 767.368 220 767.421 219.284C767.859 209.818 760.672 200.511 751.39 198.522C742.094 196.547 731.765 202.128 728.304 210.958C727.972 211.793 727.005 212.191 726.235 211.86C725.413 211.542 725.002 210.613 725.334 209.791C729.325 199.569 741.339 193.126 752.066 195.393C761.454 197.408 768.986 205.88 770.405 215.307C777.287 209.062 788.664 209.288 796.063 213.994C803.847 218.953 809.138 228.433 810.57 239.994C810.689 240.869 810.053 241.664 809.191 241.77C809.124 241.77 809.058 241.797 808.992 241.797L808.979 241.81Z" fill="white"/>
<path d="M1127.87 280.259C1127.87 280.259 1127.75 280.259 1127.69 280.259C1126.81 280.153 1126.19 279.357 1126.29 278.482C1127.25 270.09 1134.26 262.732 1142.59 261.326C1149.68 260.146 1157.52 263.487 1161.84 269.387C1163.82 265.463 1167.13 262.241 1171.15 260.451C1176.12 258.21 1182.12 258.237 1187.16 260.584C1187.95 260.955 1188.3 261.91 1187.93 262.705C1187.53 263.527 1186.64 263.885 1185.78 263.474C1181.59 261.552 1176.62 261.485 1172.44 263.355C1168.25 265.224 1164.99 268.989 1163.67 273.418C1163.49 274.054 1162.92 274.505 1162.25 274.558C1161.59 274.558 1160.97 274.253 1160.69 273.656C1157.63 267.266 1149.91 263.275 1143.12 264.495C1136.15 265.648 1130.26 271.827 1129.45 278.853C1129.37 279.662 1128.68 280.272 1127.87 280.272V280.259Z" fill="white"/>
<path d="M1300.88 300.796C1300.77 300.796 1300.69 300.796 1300.58 300.769C1299.71 300.597 1299.15 299.775 1299.31 298.913C1299.71 296.712 1298.73 294.923 1297.83 293.809C1296.02 291.568 1293 290.083 1290.15 290.004C1285.28 289.884 1280.3 292.496 1275.06 295.691C1274.66 295.957 1274.14 295.996 1273.75 295.851C1273.28 295.718 1272.94 295.387 1272.75 294.962C1269.86 288.201 1264.01 282.632 1257.12 280.073C1250.18 277.528 1242.13 277.952 1235.57 281.2C1234.73 281.585 1233.85 281.24 1233.42 280.471C1233.02 279.676 1233.36 278.721 1234.15 278.323C1241.48 274.677 1250.49 274.187 1258.23 277.077C1265.35 279.715 1271.47 285.244 1274.9 292.059C1279.13 289.513 1284.17 286.822 1289.74 286.822H1290.22C1294.05 286.941 1297.89 288.85 1300.31 291.833C1302.16 294.154 1302.91 296.885 1302.41 299.523C1302.3 300.292 1301.61 300.836 1300.85 300.836L1300.88 300.796Z" fill="white"/>
<path d="M1344.62 167.511C1344.4 167.511 1344.16 167.458 1343.96 167.352C1343.15 166.994 1342.79 166.026 1343.16 165.231C1347.18 156.613 1356.26 150.646 1365.77 150.408H1366.35C1374.66 150.408 1382.8 154.73 1387.53 161.531C1392.78 152.025 1402.65 145.171 1413.43 143.779C1425.08 142.214 1437.55 147.226 1444.99 156.52C1445.53 157.223 1445.42 158.217 1444.74 158.76C1444.05 159.331 1443.02 159.211 1442.48 158.509C1435.76 150.09 1424.62 145.595 1413.84 146.934C1403.16 148.326 1393.46 155.605 1389.14 165.482C1388.91 166.039 1388.34 166.41 1387.74 166.437H1387.68C1387.09 166.437 1386.54 166.106 1386.26 165.575C1382.47 158.363 1374.52 153.603 1366.35 153.603C1366.18 153.603 1366.02 153.603 1365.85 153.603C1357.52 153.815 1349.57 159.026 1346.07 166.583C1345.8 167.166 1345.22 167.511 1344.61 167.511H1344.62Z" fill="white"/>
<path d="M1495.46 278.297C1494.61 278.297 1493.89 277.607 1493.85 276.745C1493.48 265.304 1500.45 253.888 1510.81 249.009C1520.38 244.515 1532.44 245.761 1540.99 251.992C1543.8 242.499 1551.67 234.637 1561.27 232.012C1571.65 229.175 1583.5 232.649 1590.68 240.683C1591.27 241.333 1591.22 242.354 1590.56 242.937C1589.91 243.52 1588.87 243.441 1588.3 242.818C1581.89 235.685 1571.4 232.582 1562.09 235.101C1552.82 237.647 1545.35 245.681 1543.5 255.121C1543.39 255.678 1542.99 256.142 1542.46 256.314C1541.91 256.5 1541.3 256.381 1540.88 255.996C1533.25 249.235 1521.45 247.551 1512.18 251.9C1502.93 256.262 1496.72 266.431 1497.05 276.639C1497.07 277.528 1496.38 278.257 1495.51 278.297H1495.44H1495.46Z" fill="white"/>
<path d="M1654.05 230.023C1653.29 230.023 1652.63 229.506 1652.48 228.751C1651.58 224.482 1648.13 220.889 1643.9 219.815C1639.67 218.714 1634.93 220.226 1632.07 223.514C1631.64 224.018 1630.93 224.216 1630.28 223.964C1629.66 223.726 1629.25 223.116 1629.26 222.44C1629.44 216.301 1625.64 210.229 1620.02 207.697C1614.43 205.164 1607.38 206.305 1602.85 210.454C1602.19 211.051 1601.2 211.011 1600.58 210.362C1600 209.712 1600.04 208.691 1600.69 208.108C1606.12 203.109 1614.57 201.73 1621.36 204.793C1627.06 207.378 1631.21 212.987 1632.23 219.125C1635.79 216.633 1640.43 215.652 1644.7 216.739C1650.09 218.118 1654.46 222.692 1655.61 228.114C1655.8 228.976 1655.24 229.838 1654.38 230.01C1654.26 230.037 1654.15 230.05 1654.05 230.05V230.023Z" fill="white"/>
<path d="M1847.25 243.308C1847.17 243.308 1847.07 243.308 1846.99 243.282C1846.12 243.149 1845.54 242.327 1845.67 241.452C1847.18 231.8 1842.54 221.313 1834.38 215.943C1826.27 210.574 1814.77 210.454 1806.49 215.678C1806.02 215.983 1805.46 215.996 1804.95 215.771C1804.47 215.546 1804.11 215.068 1804.05 214.538C1802.61 203.361 1792.39 196.189 1784.09 193.457C1773.97 190.13 1762.58 190.766 1752.5 191.31C1752.49 191.31 1752.44 191.31 1752.42 191.31C1751.57 191.31 1750.89 190.647 1750.82 189.798C1750.78 188.91 1751.44 188.154 1752.34 188.114C1762.71 187.544 1774.41 186.881 1785.1 190.408C1796.31 194.107 1804.58 202.354 1806.8 211.82C1815.9 207.153 1827.66 207.67 1836.13 213.278C1845.31 219.311 1850.54 231.111 1848.84 241.956C1848.72 242.751 1848.03 243.308 1847.26 243.308H1847.25Z" fill="white"/>
<path d="M965.263 248.744C965.143 248.744 965.037 248.744 964.931 248.705C964.069 248.519 963.512 247.67 963.698 246.809C966.071 235.738 974.571 226.325 985.365 222.851C995.443 219.576 1006.87 221.711 1015.17 228.154C1019.42 217.826 1028.5 209.792 1039.32 206.888C1050.94 203.786 1063.65 206.769 1072.64 214.671C1073.31 215.254 1073.37 216.262 1072.79 216.925C1072.17 217.574 1071.18 217.641 1070.52 217.057C1062.49 209.964 1050.58 207.18 1040.16 209.964C1029.77 212.762 1020.81 221.154 1017.4 231.336C1017.23 231.84 1016.8 232.238 1016.27 232.37C1015.76 232.53 1015.21 232.37 1014.79 232.012C1007.27 225.171 996.132 222.745 986.346 225.887C976.626 229.016 968.949 237.488 966.814 247.472C966.655 248.227 965.992 248.744 965.249 248.744H965.263Z" fill="white"/>
<path d="M990.855 164.939C990.006 164.939 989.29 164.25 989.25 163.388C988.958 154.796 982.488 146.722 974.16 144.588C965.833 142.453 956.246 146.444 951.883 153.855C951.578 154.385 950.942 154.558 950.345 154.637C949.722 154.571 949.191 154.134 948.992 153.55C944.325 139.417 930.19 129.235 915.312 129.235C915.192 129.235 915.1 129.235 914.993 129.235C899.983 129.38 885.888 139.881 881.459 154.2C881.193 155.048 880.305 155.526 879.456 155.26C878.608 154.995 878.13 154.107 878.396 153.258C883.222 137.64 898.604 126.185 914.954 126.026H915.312C930.495 126.026 944.961 135.758 950.928 149.639C956.524 142.718 966.363 139.298 974.956 141.485C984.596 143.964 992.128 153.325 992.459 163.295C992.472 164.183 991.796 164.912 990.921 164.952H990.855V164.939Z" fill="white"/>
<path d="M480.698 210.905C480.552 210.905 480.393 210.879 480.247 210.826C479.411 210.587 478.921 209.699 479.16 208.85C481.454 200.988 488.375 194.544 496.398 192.861C503.094 191.416 510.387 193.351 515.691 197.673C516.195 188.393 521.725 179.589 530.092 175.333C539.719 170.454 551.944 172.125 559.847 179.351C560.51 179.96 560.55 180.968 559.967 181.604C559.357 182.254 558.336 182.294 557.713 181.724C550.831 175.453 539.825 173.968 531.55 178.184C523.249 182.387 517.972 192.145 518.98 201.386C519.059 202.088 518.661 202.765 518.012 203.03C517.388 203.348 516.619 203.136 516.155 202.592C511.634 197.183 503.943 194.584 497.061 195.976C490.165 197.435 484.198 202.963 482.236 209.738C482.024 210.441 481.4 210.892 480.698 210.892V210.905Z" fill="white"/>
<path d="M59.9276 242.049C59.4237 242.049 58.9331 241.81 58.6281 241.372C52.8865 233.351 54.7694 221.074 62.6327 215.121C69.0506 210.242 78.3724 210.375 84.976 214.737C84.1804 207.272 87.3761 199.066 93.542 193.709C100.172 187.929 109.825 185.171 120.142 186.218C128.058 186.987 136.12 189.705 146.251 195.035C147.033 195.446 147.325 196.414 146.914 197.196C146.503 197.992 145.561 198.283 144.753 197.859C135.02 192.741 127.329 190.13 119.837 189.4C110.422 188.459 101.617 190.925 95.6504 196.122C88.9805 201.903 86.2887 211.435 89.2325 218.794C89.5242 219.523 89.2325 220.371 88.543 220.769C87.8932 221.167 86.9915 221.008 86.4876 220.385C81.4621 214.1 70.9865 212.788 64.5554 217.667C58.1242 222.533 56.533 232.94 61.2138 239.516C61.7177 240.232 61.5586 241.24 60.8426 241.744C60.5641 241.943 60.2326 242.049 59.9143 242.049H59.9276Z" fill="white"/>
</g>
</svg>
