<svg version="1.2" xmlns="http://www.w3.org/2000/svg" viewBox="0 0 1910 229" width="1910" height="229"><defs><clipPath clipPathUnits="userSpaceOnUse" id="cp1"><path d="m1909.7 0.59h-1909.46v322.18l1909.46-0.01z"/></clipPath></defs><style>.a{fill:#fff}</style><g clip-path="url(#cp1)"><path class="a" d="m261.7 50.9c-19.8 31.8-34.8 66.4-37.7 104.1-1.4 18.2-0.7 36.5 1.9 54.6 2.5 17.6 5.4 38.1 17.2 52.1 2.4 2.8 7.2 0.5 7.2-3-0.2-16.2-6.8-32-9.4-47.9-2.8-17.9-3.5-36.1-2.3-54.1 2.4-35.9 8.8-72.3 25.6-104.3 0.9-1.7-1.5-3.2-2.5-1.5z"/><path class="a" d="m708.9 16.7c-18.6 16-33.4 35.2-42.6 58-4.6 11.2-7.6 22.8-9.1 34.8-1.3 11-3.1 26.4 3.5 36.2 2.1 3 6.3 2.4 7.6-1 3.6-9.8 1.6-22.1 2.5-32.3 1-11.4 3.2-22.7 6.5-33.7 6.7-22 17.9-43 34.1-59.4 1.7-1.7-0.8-4.1-2.5-2.6z"/><path class="a" d="m918.3 10.4c-6.4 10.2-12.4 20.3-15.8 32-3.5 11.9-4.9 24.6-4.5 37 0.4 12.1 2.8 24.4 7 35.9 3.7 10.2 9.9 23.7 20.1 28.9 2.5 1.3 5.1-0.8 4.6-3.5-1-5.1-3.9-9.7-5.9-14.5-2.1-5.2-4.5-10.2-6.5-15.3-3.9-10.5-6.4-21.4-7.5-32.5-2.1-21.6 0.8-47 11.6-66.2 1.1-2-1.8-3.7-3.1-1.8z"/><path class="a" d="m1441.8 62.9c15.2 30.9 24.4 63.9 27 98.3 1.2 16.3 1.5 32.7 0.4 49-1 15.5-5.5 30.8-3.3 46.3 0.5 3.7 5.5 3.4 7.2 0.9 9.2-13.3 9.8-31.4 10.7-47.2 1-17.6 0.1-35-2.8-52.3-5.8-34-18.5-67.2-36.6-96.5-1-1.7-3.5-0.2-2.6 1.5z"/><path class="a" d="m1654.2 32.9c-9.4 18-16.6 36.5-19 56.8-1.2 10.3-1.1 20.7 0 31 0.9 9 2.3 20.2 9.2 26.8 1.6 1.5 4.3 0.8 4.9-1.3 2.5-8.7-0.4-18.7-1.3-27.4-1.1-9.4-1.3-18.7-1-28.1 0.5-19.1 3-38.7 10.1-56.6 0.6-1.7-2.1-2.8-2.9-1.2z"/><path class="a" d="m1901.6 269.3c-13.9 24-37.7 40.9-63.6 51-1.7 0.6-3.7 1.3-5.4 1.9h-1808.3c-9.8-4.9-18.2-13.5-20.5-24-2.4-11.5 4.2-25 15.8-27.6-13.5-12-23.3-28.7-25.1-46.7-1.5-18 5.8-37.1 20.6-47.3 15-10.3 37.1-9.9 49.9 2.8-12.4-36.5 2.8-79.9 33.9-102.6 31.2-22.5 75.4-24.5 109.4-6.7 18.2 9.7 33.4 24.2 44.2 41.6 9.6 15.2 16.2 32.5 18.4 50.3 13.3-9.2 31.2-10.9 45.8-4.5 14.8 6.6 25.3 21.2 27.2 37.3 26.4-19.1 66.6-15.4 89.1 8.1-1.9-16.9-4.3-32.3-2.1-47.3v-0.2c1.5-12.7 6-24.4 16.5-36.2 22.5-24.9 61.7-32.8 92.1-18.4-12.7-26 0.6-60.2 26.3-73.1 25.7-12.8 59.1-4.9 78.6 16.1 19.5 21 25.3 52.9 17.8 80.5 5.4-20.1 34.5-25.9 56.8-24.8 7.7 0.2 14.5 1.5 19.5 3 28.2 9 49.7 45.2 56.3 72.6-1.9-15.5 1.5-31.3 8.8-45 7.1-12.6 17.4-23.4 30.2-30.2 26.6-13.9 61.7-9.6 84 10.1-11.8-28.5-3.5-64.1 19.7-84.4 23.3-20.6 59.7-24.2 86.5-8.8 26.8 15.4 42 48.6 36 79 20.6-31 71.1-32.1 97.7-6 16.3 16.1 23.3 39 22.5 61.9-0.5 14.4-4.3 28.9-11 41.8 9.5-13.3 19.1-26.8 30.9-37.7 6-5.6 12.6-10.5 19.9-14.3 21.6-11.2 52-9.7 66.2 10.2-4.7-31.5 16.5-65.1 47.3-74.1 30.7-9 66.6 7.5 79.9 36.7 21-17 53.4-9.5 72.6 9.8 3.7 3.6 6.7 7.9 9.3 12.4 12.4 22.7 11.5 49.9 3.8 74.8 5-6.5 13.5-10.3 20.4-12.4 14.5-4.1 31.5-1.8 43 8.5 0.9-15.4 1.7-31.3 6.2-46.2 4.5-14.8 12.9-28.7 26-37.3 0.2 0 0.2-0.2 0.4-0.2 13.3-8.2 31.7-9.2 44.1 0.2 3.2-34.1 29.6-64.3 62.6-74.1 32.7-9.6 70.2 0.6 95.1 24.2 24.8 23.5 37 59.3 33.8 93.4 24.6-12.5 57.4-0.7 72 22.9 14.8 23.5 12.6 55-1.1 79z"/><path class="a" d="m147.5 120.5c26.4 19.2 46.1 45.9 62.1 74.1 7.7 13.7 14.4 27.8 19.3 42.8 4.7 14.5 5.3 31.4 12.8 44.6 2 3.3 6.9 2.4 8-1.1 4.8-15.3-2.1-33.9-6.9-48.5-5.4-16.1-12.3-31.9-21.3-46.2-17.9-28.7-44-50.7-72.5-68.2-1.6-0.9-2.9 1.4-1.4 2.4z"/><path class="a" d="m437.7 88.6c10.2 30.6 14.3 62.2 12.6 94.4-0.8 15.5-3.1 30.9-6.4 46.1-1.6 7.4-3.4 14.7-5.6 21.9-2.3 7.2-5.1 13.8-3.3 21.3 0.5 2.5 3.9 4 6 2.5 11.9-8.1 14.4-28.7 17.1-41.8 3.4-16.5 4.7-33.2 4.3-50-0.8-32.9-8.5-65.7-21.6-95.7-0.8-1.8-3.7-0.5-3.1 1.3z"/><path class="a" d="m496.3 148.4c-20.4 22.1-37.5 46.2-49.4 73.9-5.6 13.3-10.1 27.2-13.3 41.2-3.1 13.4-8.1 31.1-3 44.3 1.3 3.2 6 4.6 7.8 1 6.1-11.6 5.4-26.4 7.9-39.1 2.8-14.1 6.5-27.9 11.4-41.4 9.7-27.4 23.2-54.3 41.3-77.2 1.4-1.8-1-4.5-2.7-2.7z"/><path class="a" d="m578.5 155.8c10.7 21.9 18.7 44.9 23.3 68.9 2.2 11.7 3.7 23.5 4.6 35.4 0.8 10.8-1.3 23.7 4.4 33.4 1.5 2.7 5.4 2.6 7 0 6.4-10.2 3-24.6 1.6-35.8-1.6-12.1-4.2-24.1-7.7-35.8-7.1-23.7-17.2-46.7-30.6-67.6-1-1.7-3.4-0.2-2.6 1.5z"/><path class="a" d="m818.6 77.2c10.9 33.3 10.1 69.9 0 103.3-4.5 14.9-10.3 29.2-18.2 42.6-4.1 6.9-8.6 13.4-13.5 19.7-4.3 5.4-9.1 10.7-10.6 17.6-0.6 2.9 1.8 5.4 4.7 4.7 14.2-3.4 24.3-21.6 31.3-33.2 8.9-14.7 16.1-31 19.9-47.7 8.2-36.5 3.1-73.4-10.5-107.9-0.7-1.9-3.8-1.2-3.1 0.8z"/><path class="a" d="m808.2 101.6c5 27.4 3.1 57.5-2.6 84.7-2.7 13.2-6.5 26.1-11.4 38.7-4.9 12.8-12.8 24.7-15.2 38.2-0.5 2.8 2.6 6.3 5.5 4.2 11.6-8.4 17.2-21.8 22.4-34.7 5.7-14.2 9.7-29 11.9-44.2 4.4-30.2 1-58.6-7.3-87.8-0.6-2.2-3.7-1.3-3.3 0.9z"/><path class="a" d="m1163.5 64c10.3 25.8 12.3 53 9.5 80.6-1.3 13.1-4.4 26.2-9 38.6-2.5 6.5-5.4 12.8-8.8 18.8-3.1 5.5-6.1 10.3-5.1 16.9 0.4 2.2 3 3.1 4.9 2.7 12.3-2.5 18.3-22 22.3-32.3 5.4-14 8.6-28.6 9.9-43.6 2.4-28.8-5.9-58.4-20.7-83-0.9-1.6-3.7-0.6-3 1.2z"/><path class="a" d="m1225.4 91.1c-20.1 17.7-36.1 39.3-46.9 63.7-5.3 12-9.4 24.4-12.2 37.2-2.6 12.4-5.6 26.6-0.9 38.8 1.2 2.9 4.7 2.8 5.9 0 4.6-11.1 4.5-23.8 6.8-35.6 2.3-12.3 5.9-24.5 10.3-36.2 9.1-23.9 22.7-46.2 39.7-65.2 1.6-1.8-0.9-4.3-2.7-2.7z"/><path class="a" d="m1393.3 213c7.6 19.1 18.1 37.3 32 52.5 7.1 7.7 15.5 14.2 24.4 19.7 4.5 2.8 9.2 5.3 14 7.4 5.3 2.3 10.3 2.7 16 3.1 4.8 0.3 5.6-6 2.2-8.3-4.1-2.9-7.7-5.9-12.3-8.1-4.2-2.1-8.4-4.3-12.5-6.6-8.3-4.8-16.1-10.4-23.6-16.3-15.5-12.1-28.4-26.9-36.8-44.7-0.9-1.9-4.1-0.6-3.4 1.4z"/><path class="a" d="m1388.2 262.3c15.1 9.4 30.8 16.6 48.1 20.7 8.6 2 17.4 3.1 26.2 3.3 8 0.2 17.6-0.3 24.5-5 1.6-1.1 1.3-3.4-0.6-4.1-7.4-2.6-16.1-1.9-23.9-2-8.1-0.1-16.2-0.8-24.2-1.9-16.4-2.2-33.2-7-48-14.6-2.4-1.3-4.4 2.2-2.1 3.6z"/><path class="a" d="m1731.5 136.7c2.7 20.8-1.2 39.9-9.1 59.1-3.7 9-8.3 17.7-13.7 25.6-5.3 7.7-14.8 15.2-16.8 24.5-0.5 2.4 1.1 5.5 3.9 5.2 10.8-1.1 18.4-12 24-20.3 6.4-9.2 11.3-19.3 14.6-29.9 6.4-20.4 5.7-44.1 0.6-64.6-0.5-1.9-3.7-1.5-3.5 0.4z"/><path class="a" d="m1707.2 155.1c1.3 18.6-1 36.9-5.9 54.9-2.4 8.7-5.4 17.3-9.1 25.5-1.9 4.3-4.1 8.5-5.6 12.9-1.3 4-3.4 8-3.3 12.2 0 1.9 2 3.9 4 3.1 4.2-1.6 6.8-5 9.7-8.2 3.4-3.6 5.7-8.2 7.7-12.7 4.3-9.4 7.6-19.1 9.5-29.2 3.9-19.6 2.9-39.9-1.7-59.2-0.8-2.9-5.5-2.4-5.3 0.7z"/><path class="a" d="m474.6 295c-5.4 7.9-11.4 15.2-17.6 22.7-1.1 1.3-2.1 2.8-3.4 4.5h-261.3c-10.5-5.1-19.5-12.8-25.1-22.7-8.1-15.2-7.1-33.8-1.5-50.1 4.1-12 10.7-23.4 20.8-31.1 10-7.7 23.8-11.3 36-7.2-9.2-22.9-10.1-49.7 1.5-71.6 6.2-11.8 16.5-21.8 28.5-27.8 9.8-5 21-7.3 31.9-5.8 24.4 3 45.4 26.8 42.6 51.2 12.9-19.9 39.2-28.5 62.3-24.2 15.7 3 30 11.3 41.6 22.5v0.2c5.6 5.1 10.5 10.9 14.6 17.3 4.5 6.7 8.1 14 9.4 21.7 1.1 7.9-0.7 16.3-6 22 2.4-0.4 4.9-0.6 7.3-0.2 14.5 1.1 27.6 13.9 30.8 28.7 3.9 17.2-2.8 35.1-12.4 49.9z"/><path class="a" d="m920.3 298.9c-6.2 10-15.6 18-26.3 23.3h-316.6c-20.4-12-39.6-30.8-38.6-56.1 0.9-17.6 13.5-34 30.2-39.4 16.7-5.3 36.4 0.4 47.4 14.1-3.7-16.9-5.4-34.7-0.7-51.4 4.7-16.5 17-31.9 33.5-36.8 16.7-4.7 37 3.6 42.4 20.1-4.7-27 4.9-56.9 27-73 0.2 0 0.2-0.2 0.4-0.2 13.3-9.7 30.8-13.7 46.5-9.2 18.4 5.3 31.9 21.4 38.1 39.8 1.5 4.1 2.8 8.2 3.4 12.4 4.1 23.2-0.6 46.9-5.1 70.1 10.5-9.9 21.6-20 35.3-24.4 13.7-4.5 30.9-2 39 10 6.9 9.9 5.6 23.8 0 34.5-5.6 10.7-14.8 19.1-23.8 27 12-5.2 24.4-10.7 37.5-11.2 13.3-0.4 27.4 5.2 33.4 17 5.4 10.5 3 23.3-3 33.4z"/><path class="a" d="m1352.2 322.2h-270.3c-7.3-5.1-14-13.1-19.3-24.8-9.9-21.2-4.3-49.9 16.5-62.6 17.5-10.5 43.7-4.5 54 12.9-10.1-21.7-11.2-48.2 1-68.8 9.5-15.8 27.9-26.7 46.1-27.2 6.8 0 13.5 1.1 19.9 4.1 0.2 0 0.2 0.2 0.4 0.2 14.4 6.9 24.5 21 29.6 36 5.1 15.2 6.4 31.3 7.3 47.3 5.1-15.8 11.8-31.9 24.4-42.8 12.6-10.9 32.5-14.8 45.8-5.2 13.1 9.5 15.9 27.9 12.9 43.5-3.3 15.6-11 30.2-15 45.6 10.7-3.4 21.8-6.6 33-5.5 11.1 1 22.7 7.9 25.4 18.8 3 10.5-3.2 21.9-11.7 28.5z"/><path class="a" d="m1769.9 301.2c-3.2 7.7-7.5 14.8-13.1 21h-327.1c-4.9-10.3-4.9-22.9-0.2-33.2 5.4-11.6 16.7-20.1 29.4-22.1-11.8-7.9-21.2-19.7-24.5-33.4-3.2-13.7 0.7-29.3 11.4-38.5 10.9-9 28.5-9.9 38.8 0-6.5-23.4-10.1-50.1 1.4-70.9 0.9-1.3 1.5-2.4 2.4-3.7 11.8-17.3 33.8-25.9 54.4-23.9 19.9 1.9 38.4 12.6 51.9 27.4 0.6 0.4 1.2 1.1 1.7 1.7 13.5 15.8 22 35.3 27.4 55.5 16.1-16.5 43.7-20.2 63.6-8.4 19.7 11.6 30 37.5 23.6 59.6 17.1-10.1 40.9-3.5 53.1 12.4 12 15.6 13.3 38.1 5.8 56.5z"/><path class="a" d="m239.8 253.5q-0.3 0-0.5 0c-0.9-0.3-1.3-1.2-1.1-2.1 3-9.3 10.1-17.4 18.9-21.7 8-3.9 17.6-4.6 26.2-2.1-1.3-11.2 6.3-21.6 15.2-26.5 8.6-4.8 19.5-6.3 33.3-4.6 0.9 0.1 1.5 0.9 1.4 1.7-0.1 0.9-0.9 1.5-1.7 1.4-13.2-1.6-23.4-0.2-31.4 4.2-8.4 4.7-15.8 15.3-13.2 25.8 0.1 0.6 0 1.2-0.5 1.6-0.4 0.3-1.1 0.5-1.6 0.3-8.4-3.2-18.2-2.8-26.3 1.1-8 3.9-14.5 11.3-17.2 19.8-0.2 0.7-0.8 1.1-1.5 1.1z"/><path class="a" d="m432.3 251.8c-0.7 0-1.4-0.5-1.6-1.3-1.3-6-5.4-11.3-11-14.1-5.5-2.8-12.2-3-17.9-0.5-0.3 0.2-0.8 0.2-1.2 0-0.4-0.2-0.7-0.5-0.9-0.9-2.8-7-9.4-12.3-16.8-13.4-7.4-1.1-15.4 2-20.1 7.8-0.5 0.7-1.6 0.8-2.2 0.3-0.7-0.6-0.8-1.6-0.3-2.3 5.4-6.7 14.5-10.3 23-9 8.1 1.3 15.3 6.7 18.7 14 6.2-2.2 13.3-1.8 19.2 1.2 6.3 3.2 11.1 9.3 12.7 16.2 0.2 0.9-0.4 1.8-1.2 1.9q-0.2 0.1-0.4 0.1z"/><path class="a" d="m679.6 277.6c-0.5 0-0.9-0.3-1.2-0.6-5.1-6.2-12.5-10.4-20.4-11.5-8-1.2-16.2 0.8-22.8 5.4-0.7 0.5-1.7 0.3-2.2-0.4-0.5-0.7-0.3-1.7 0.4-2.2 7.2-5.1 16.3-7.3 25-6 8 1.1 15.5 5 20.9 10.9 4.9-7.7 13.6-12.9 22.7-13.6 9.8-0.9 20 4 25.8 12 0.5 0.7 0.4 1.7-0.3 2.2-0.7 0.5-1.8 0.4-2.3-0.3-4.8-6.7-13-10.8-21.2-10.8q-0.9 0-1.8 0.1c-8.8 0.6-17.1 6.1-21.2 13.9-0.2 0.5-0.7 0.8-1.3 0.8q0 0-0.1 0z"/><path class="a" d="m809 241.8c-0.8 0-1.5-0.6-1.6-1.4-1.3-10.6-6.1-19.2-13.1-23.7-7.2-4.6-18.9-4-24 3.5-0.4 0.6-1.1 0.9-1.8 0.7-0.7-0.2-1.1-0.9-1.1-1.6 0.5-9.5-6.7-18.8-16-20.8-9.3-2-19.6 3.6-23.1 12.5-0.3 0.8-1.3 1.2-2.1 0.9-0.8-0.4-1.2-1.3-0.9-2.1 4-10.2 16-16.7 26.8-14.4 9.4 2 16.9 10.5 18.3 19.9 6.9-6.2 18.3-6 25.7-1.3 7.7 5 13 14.4 14.5 26 0.1 0.9-0.5 1.7-1.4 1.8q-0.1 0-0.2 0z"/><path class="a" d="m1127.9 280.3c0 0-0.2 0-0.2 0-0.9-0.1-1.5-0.9-1.4-1.8 0.9-8.4 8-15.8 16.3-17.2 7.1-1.2 14.9 2.2 19.2 8.1 2-3.9 5.3-7.2 9.3-8.9 5-2.3 11-2.3 16.1 0.1 0.7 0.4 1.1 1.3 0.7 2.1-0.4 0.8-1.3 1.2-2.1 0.8-4.2-1.9-9.2-2-13.4-0.1-4.2 1.8-7.4 5.6-8.7 10-0.2 0.7-0.8 1.1-1.5 1.2-0.6 0-1.2-0.3-1.5-0.9-3.1-6.4-10.8-10.4-17.6-9.2-7 1.1-12.8 7.3-13.7 14.4 0 0.8-0.7 1.4-1.5 1.4z"/><path class="a" d="m1300.9 300.8c-0.1 0-0.2 0-0.3 0-0.9-0.2-1.4-1-1.3-1.9 0.4-2.2-0.6-4-1.5-5.1-1.8-2.2-4.8-3.7-7.7-3.8-4.8-0.1-9.8 2.5-15 5.7-0.4 0.3-1 0.3-1.4 0.2-0.4-0.2-0.8-0.5-1-0.9-2.8-6.8-8.7-12.4-15.6-14.9-6.9-2.6-15-2.1-21.5 1.1-0.9 0.4-1.8 0-2.2-0.7-0.4-0.8 0-1.8 0.8-2.2 7.3-3.6 16.3-4.1 24-1.2 7.1 2.6 13.3 8.1 16.7 15 4.2-2.6 9.3-5.3 14.8-5.3h0.5c3.8 0.1 7.7 2.1 10.1 5 1.9 2.4 2.6 5.1 2.1 7.7-0.1 0.8-0.8 1.3-1.6 1.3z"/><path class="a" d="m1344.6 167.5q-0.3 0-0.6-0.1c-0.8-0.4-1.2-1.4-0.8-2.2 4-8.6 13.1-14.6 22.6-14.8h0.5c8.4 0 16.5 4.3 21.2 11.1 5.3-9.5 15.2-16.3 25.9-17.7 11.7-1.6 24.2 3.4 31.6 12.7 0.5 0.7 0.4 1.7-0.3 2.3-0.6 0.5-1.7 0.4-2.2-0.3-6.7-8.4-17.9-12.9-28.7-11.6-10.6 1.4-20.3 8.7-24.7 18.6-0.2 0.5-0.8 0.9-1.4 0.9-0.6 0-1.2-0.3-1.4-0.8-3.8-7.2-11.8-12-20-12q-0.2 0-0.5 0c-8.3 0.2-16.2 5.4-19.7 13-0.3 0.6-0.9 0.9-1.5 0.9z"/><path class="a" d="m1495.5 278.3c-0.9 0-1.6-0.7-1.7-1.6-0.3-11.4 6.7-22.8 17-27.7 9.6-4.5 21.6-3.2 30.2 3 2.8-9.5 10.7-17.4 20.3-20 10.4-2.8 22.2 0.6 29.4 8.7 0.6 0.6 0.5 1.7-0.1 2.2-0.7 0.6-1.7 0.5-2.3-0.1-6.4-7.1-16.9-10.2-26.2-7.7-9.3 2.5-16.8 10.6-18.6 20-0.1 0.6-0.5 1-1 1.2-0.6 0.2-1.2 0.1-1.6-0.3-7.6-6.8-19.4-8.4-28.7-4.1-9.3 4.4-15.5 14.5-15.2 24.7 0.1 0.9-0.6 1.7-1.5 1.7h-0.1z"/><path class="a" d="m1654 230c-0.7 0-1.4-0.5-1.5-1.2-0.9-4.3-4.4-7.9-8.6-9-4.2-1.1-9 0.4-11.8 3.7-0.5 0.5-1.2 0.7-1.8 0.5-0.6-0.3-1-0.9-1-1.6 0.1-6.1-3.7-12.2-9.3-14.7-5.6-2.5-12.6-1.4-17.2 2.8-0.6 0.6-1.6 0.5-2.2-0.1-0.6-0.7-0.6-1.7 0.1-2.3 5.4-5 13.9-6.4 20.7-3.3 5.7 2.6 9.8 8.2 10.8 14.3 3.6-2.5 8.2-3.4 12.5-2.4 5.4 1.4 9.8 6 10.9 11.4 0.2 0.9-0.4 1.7-1.2 1.9q-0.2 0.1-0.4 0.1z"/><path class="a" d="m1847.3 243.3q-0.2 0-0.3 0c-0.9-0.2-1.5-1-1.3-1.8 1.5-9.7-3.2-20.2-11.3-25.6-8.1-5.3-19.6-5.4-27.9-0.2-0.5 0.3-1 0.3-1.5 0.1-0.5-0.3-0.9-0.7-1-1.3-1.4-11.1-11.6-18.3-19.9-21-10.1-3.4-21.5-2.7-31.6-2.2 0 0-0.1 0-0.1 0-0.8 0-1.5-0.7-1.6-1.5 0-0.9 0.6-1.6 1.5-1.7 10.4-0.6 22.1-1.2 32.8 2.3 11.2 3.7 19.5 12 21.7 21.4 9.1-4.6 20.9-4.1 29.3 1.5 9.2 6 14.4 17.8 12.7 28.7-0.1 0.8-0.8 1.3-1.5 1.3z"/><path class="a" d="m965.3 248.7q-0.2 0.1-0.4 0c-0.8-0.2-1.4-1-1.2-1.9 2.4-11.1 10.9-20.5 21.7-23.9 10-3.3 21.5-1.2 29.8 5.3 4.2-10.4 13.3-18.4 24.1-21.3 11.6-3.1 24.4-0.1 33.3 7.8 0.7 0.6 0.8 1.6 0.2 2.2-0.6 0.7-1.6 0.7-2.3 0.2-8-7.1-19.9-9.9-30.3-7.1-10.4 2.8-19.4 11.2-22.8 21.3-0.2 0.5-0.6 0.9-1.1 1.1-0.5 0.1-1.1 0-1.5-0.4-7.5-6.8-18.7-9.3-28.5-6.1-9.7 3.1-17.4 11.6-19.5 21.6-0.1 0.7-0.8 1.2-1.6 1.2z"/><path class="a" d="m990.9 164.9c-0.9 0-1.6-0.7-1.6-1.5-0.3-8.6-6.8-16.7-15.1-18.8-8.4-2.1-18 1.8-22.3 9.3-0.3 0.5-1 0.7-1.6 0.7-0.6 0-1.1-0.5-1.3-1-4.7-14.2-18.8-24.4-33.7-24.4q-0.2 0-0.3 0c-15 0.2-29.1 10.7-33.5 25-0.3 0.8-1.2 1.3-2 1.1-0.9-0.3-1.4-1.2-1.1-2 4.8-15.7 20.2-27.1 36.6-27.3h0.3c15.2 0 29.7 9.8 35.6 23.6 5.6-6.9 15.5-10.3 24.1-8.1 9.6 2.5 17.1 11.8 17.5 21.8 0 0.9-0.7 1.6-1.6 1.7z"/><path class="a" d="m480.7 210.9q-0.2 0-0.5-0.1c-0.8-0.2-1.3-1.1-1-2 2.3-7.8 9.2-14.3 17.2-15.9 6.7-1.5 14 0.5 19.3 4.8 0.5-9.3 6-18.1 14.4-22.4 9.6-4.8 21.8-3.2 29.7 4.1 0.7 0.6 0.7 1.6 0.2 2.2-0.6 0.7-1.7 0.7-2.3 0.1-6.9-6.2-17.9-7.7-26.2-3.5-8.3 4.2-13.5 13.9-12.5 23.2 0.1 0.7-0.3 1.4-1 1.6-0.6 0.3-1.4 0.1-1.8-0.4-4.6-5.4-12.3-8-19.1-6.6-6.9 1.4-12.9 7-14.9 13.7-0.2 0.7-0.8 1.2-1.5 1.2z"/><path class="a" d="m59.9 242c-0.5 0-1-0.2-1.3-0.6-5.7-8-3.8-20.3 4-26.3 6.5-4.9 15.8-4.7 22.4-0.4-0.8-7.4 2.4-15.6 8.5-21 6.7-5.8 16.3-8.5 26.6-7.5 8 0.8 16 3.5 26.2 8.8 0.7 0.4 1 1.4 0.6 2.2-0.4 0.8-1.3 1.1-2.1 0.7-9.8-5.2-17.5-7.8-25-8.5-9.4-0.9-18.2 1.5-24.1 6.7-6.7 5.8-9.4 15.3-6.5 22.7 0.3 0.7 0 1.6-0.7 2-0.6 0.4-1.5 0.2-2-0.4-5-6.3-15.5-7.6-21.9-2.7-6.5 4.8-8.1 15.2-3.4 21.8 0.5 0.7 0.4 1.7-0.4 2.2-0.2 0.2-0.6 0.3-0.9 0.3z"/></g></svg>