<svg width="318" height="64" viewBox="0 0 318 64" fill="none" xmlns="http://www.w3.org/2000/svg">
<path d="M315.42 55.5814C315.34 55.4748 315.274 55.3549 315.207 55.2351C315.154 55.0886 315.14 54.9554 315.207 54.8088C315.26 54.6623 315.367 54.5691 315.5 54.5025C315.634 54.4492 315.754 54.4492 315.874 54.5025C315.994 54.5558 316.087 54.649 316.14 54.7689C316.207 54.9021 316.22 55.0353 316.18 55.1685C316.14 55.3017 316.047 55.4082 315.914 55.4748C315.754 55.5547 315.594 55.5947 315.407 55.5814H315.42ZM312.714 63.0535C312.794 62.4941 313.274 62.2543 313.62 61.9213C313.86 61.7082 314.127 61.5484 314.247 61.2154C314.287 61.0689 314.38 60.9757 314.527 60.9224C314.674 60.8691 314.807 60.8958 314.927 60.989C315.127 61.0956 315.194 61.2554 315.14 61.4685C315.074 61.7482 314.9 61.8814 314.62 61.8947C314.394 61.8947 314.18 61.8281 313.967 61.9613C313.514 62.2277 313.154 62.5873 312.914 63.0535H312.701H312.714ZM317.18 63.0535H314.58C314.567 62.9203 314.634 62.867 314.74 62.8404C314.927 62.7871 315.1 62.7338 315.287 62.7072C315.607 62.6805 315.86 62.5207 316.02 62.241C316.247 61.8681 316.607 61.8681 316.927 62.1877C317.007 62.2676 317.087 62.3609 317.18 62.4408V63.0668V63.0535ZM170.649 63.0535C170.609 62.8803 170.675 62.7738 170.849 62.7605C171.182 62.7072 171.529 62.6273 171.862 62.534C173.555 62.2277 175.248 62.2277 176.941 62.5607C177.288 62.5873 177.621 62.6672 177.941 62.8004C178.048 62.8537 178.168 62.907 178.128 63.0668L170.649 63.0668V63.0535ZM315.42 55.5814C315.34 56.1674 314.954 56.6203 314.66 57.0998C314.247 57.7657 313.78 58.3784 313.367 59.0311C313.087 59.4306 312.861 59.8569 312.687 60.323C313.087 60.0966 313.42 59.9235 313.74 59.737C314.14 59.5239 314.527 59.2974 314.9 59.0577C315.34 58.7514 315.847 58.4983 315.874 57.819C315.874 57.486 316.34 57.3795 316.62 57.5793C316.793 57.6725 316.86 57.8323 316.82 58.0188C316.767 58.2319 316.633 58.4184 316.407 58.445C316.047 58.4983 315.754 58.6581 315.514 58.9245C315.394 59.0177 315.26 59.111 315.127 59.1909C314.394 59.7237 313.607 60.1499 312.847 60.6294C312.501 60.8425 312.261 61.1488 312.141 61.5484C311.981 62.0545 311.754 62.5473 311.567 63.0401H311.047C311.047 62.1211 310.967 61.2154 310.501 60.3763C310.367 60.1499 310.314 59.8968 310.314 59.6304C310.341 59.3773 310.261 59.1509 310.061 58.9778C309.914 58.8446 309.834 58.6714 309.834 58.4716C309.834 58.3784 309.834 58.2852 309.874 58.2053C309.914 58.1254 309.967 58.0454 310.034 57.9922C310.101 57.9389 310.194 57.8989 310.287 57.8856C310.381 57.8856 310.474 57.8856 310.554 57.9255C311.034 58.0987 311.181 58.5249 310.821 58.8979C310.594 59.1243 310.541 59.3907 310.647 59.697C310.674 59.8169 310.727 59.9234 310.741 60.0433C310.887 60.7226 311.221 61.3353 311.327 62.0279C311.341 62.1345 311.314 62.2676 311.474 62.3476C311.714 61.7216 311.954 61.1355 312.194 60.5494C312.394 60.07 312.554 59.5771 312.394 59.0444C312.394 58.9911 312.394 58.9378 312.394 58.8845C312.421 57.9921 312.167 57.1397 312.087 56.2606C312.087 56.0209 311.967 55.8611 311.754 55.7812C311.634 55.7279 311.541 55.6613 311.474 55.5547C311.301 55.3017 311.301 55.0619 311.501 54.8355C311.581 54.729 311.674 54.6757 311.807 54.649C311.927 54.6224 312.047 54.649 312.154 54.7156C312.421 54.8488 312.514 55.022 312.394 55.3549C312.221 55.8611 312.421 56.3406 312.434 56.8334C312.434 56.9799 312.581 57.0332 312.701 56.9133C312.781 56.8201 312.847 56.7268 312.901 56.607C313.02 56.3272 313.127 56.0342 313.207 55.7279C313.367 55.0885 313.727 54.4759 313.274 53.7966C313.127 53.5702 313.314 53.3038 313.554 53.2106C313.78 53.1306 313.967 53.1972 314.1 53.397C314.247 53.6234 314.22 53.8365 314.02 54.0097C313.834 54.1828 313.74 54.396 313.754 54.6623C313.74 54.7822 313.714 54.9021 313.687 55.022C313.5 55.8744 313.207 56.6736 312.807 57.4461C312.541 58.0055 312.541 58.5649 312.807 59.1243C313.607 57.859 314.66 56.7934 315.434 55.5281L315.42 55.5814ZM228.016 63.0535C228.029 62.8537 228.123 62.6939 228.296 62.5873C228.709 62.281 229.149 62.0013 229.603 61.7482C230.003 61.5085 230.029 61.4285 229.803 61.0156C229.589 60.6427 229.363 60.2698 229.149 59.9101C229.096 59.8302 229.003 59.7236 229.083 59.6304C229.189 59.5105 229.296 59.6171 229.403 59.6571C229.429 59.6704 229.469 59.6837 229.496 59.7103C230.682 60.4296 231.909 61.0423 233.136 61.6683C233.722 61.9346 234.269 62.2543 234.789 62.6273C234.935 62.7338 235.069 62.8404 235.002 63.0535L228.043 63.0535H228.016ZM202.859 61.9746C202.659 61.4152 202.539 60.8425 202.512 60.2564C202.725 60.3363 202.912 60.4296 203.085 60.5628C203.232 60.6161 203.272 60.7226 203.219 60.8691C203.085 61.2288 203.085 61.6417 202.859 61.988V61.9746ZM218.417 60.8425C218.67 61.0289 218.91 61.2554 219.11 61.4951C219.217 61.6017 219.257 61.7349 219.124 61.8548C218.684 62.2676 218.164 62.574 217.591 62.7738C217.884 62.0812 218.124 61.4818 218.404 60.8425H218.417ZM211.964 46.511C211.978 46.6042 212.004 46.6575 212.004 46.7107C212.084 47.7363 212.071 48.7885 212.551 49.7342C212.551 49.7475 212.551 49.7608 212.564 49.7875C212.671 50.0006 212.618 50.1604 212.431 50.2936C212.244 50.4002 212.098 50.2936 211.964 50.187C211.684 49.934 211.431 49.6543 211.151 49.3879C210.951 49.2147 210.911 49.015 211.045 48.7885C211.285 48.1759 211.484 47.5498 211.711 46.9371C211.738 46.764 211.831 46.6175 211.978 46.511H211.964ZM223.59 53.2638C223.657 53.4503 223.617 53.5968 223.47 53.73C222.91 54.3693 222.257 54.9021 221.537 55.3549C221.43 55.4349 221.323 55.4482 221.19 55.4082C220.75 55.2351 220.497 54.5158 220.75 54.1163C221.097 53.5568 221.403 52.9841 221.71 52.3981C221.95 51.9585 222.177 51.519 222.403 51.0661C222.577 50.7331 222.67 50.7198 222.937 50.9862C223.23 51.3059 223.483 51.6522 223.683 52.0384C223.87 52.2649 223.857 52.4913 223.683 52.7044C223.563 52.8642 223.523 53.0507 223.59 53.2505V53.2638ZM219.417 53.0107C219.444 52.9308 219.47 52.7976 219.51 52.6645C219.67 52.185 219.857 51.7188 219.99 51.2393C220.23 50.4268 220.364 49.5877 220.417 48.7486C220.417 48.6154 220.417 48.4555 220.577 48.4023C220.71 48.3623 220.804 48.4689 220.884 48.5621C220.937 48.6287 220.99 48.6953 221.043 48.7619C221.403 49.2015 221.75 49.6543 222.123 50.0805C222.443 50.4535 222.483 50.4934 222.243 50.9463C221.697 51.9718 221.017 52.9175 220.417 53.9031C220.284 54.1162 220.177 54.1162 220.017 53.9431C219.857 53.7833 219.724 53.6101 219.564 53.437C219.444 53.3171 219.39 53.1706 219.404 53.0107H219.417ZM224.496 55.1152C224.39 55.7012 224.35 56.2873 224.376 56.8734C224.39 57.4328 224.296 57.9788 224.27 58.5249C224.27 58.6848 224.23 58.8313 224.177 58.9778C224.03 59.2708 223.803 59.4173 223.47 59.404C223.19 59.404 223.15 59.1909 223.07 59.0044C222.897 58.6847 222.857 58.3518 222.977 58.0055C223.123 57.6325 222.977 57.2729 222.63 57.2063C222.043 57.0865 221.883 56.5803 221.617 56.1807C221.55 56.0875 221.523 55.9943 221.55 55.8877C221.577 55.7811 221.643 55.7012 221.737 55.648C222.003 55.4482 222.23 55.2218 222.497 55.0353C222.95 54.7156 223.31 54.2894 223.723 53.9165C224.017 53.6501 224.23 53.7167 224.323 54.0896C224.403 54.4226 224.443 54.7689 224.496 55.1152ZM239.642 61.7615C239.495 61.8015 239.455 61.7615 239.428 61.7216C238.948 61.1488 238.468 60.5894 238.042 59.9767C237.642 59.404 237.148 58.9245 236.575 58.5249C235.695 57.9256 234.949 57.193 234.322 56.3273C234.042 55.9277 234.029 55.8078 234.402 55.5148C235.082 54.9554 235.709 54.3427 236.282 53.6634C236.389 53.5435 236.509 53.437 236.682 53.4769C236.855 53.5169 236.909 53.6767 236.935 53.8366C237.162 54.9953 237.455 56.1275 237.828 57.2463C238.162 58.2319 238.415 59.2309 238.895 60.1632C239.162 60.6827 239.375 61.2287 239.628 61.7748L239.642 61.7615ZM202.512 52.3714C202.605 51.8253 202.739 51.2926 202.819 50.7465C203.005 49.4279 203.232 48.1226 203.179 46.7773C203.179 46.7107 203.179 46.6441 203.179 46.5642C203.205 46.2312 203.285 46.1513 203.605 46.2446C204.392 46.4443 205.152 46.7374 205.885 47.1103C206.285 47.3234 206.312 47.43 206.138 47.8695C205.978 48.2824 205.778 48.6953 205.632 49.1215C205.192 50.3469 204.965 51.6255 204.725 52.8909C204.645 53.2904 204.619 53.3171 204.205 53.1972C203.685 53.0507 203.219 52.7577 202.685 52.6777C202.512 52.6511 202.459 52.5313 202.485 52.3714H202.512ZM224.843 62.1478C224.71 62.0013 224.656 61.8281 224.696 61.6416C224.696 61.2421 224.696 60.8425 224.696 60.4562C224.696 60.1233 224.763 59.9102 225.123 59.7903C225.296 59.7503 225.416 59.6571 225.523 59.5105C225.616 59.364 225.656 59.2042 225.63 59.0444C225.63 58.8845 225.576 58.738 225.456 58.6182C225.336 58.4983 225.203 58.4317 225.043 58.4184C224.896 58.3918 224.75 58.3518 224.736 58.1919C224.67 57.6592 224.616 57.0998 224.936 56.6336C225.243 56.1408 225.643 55.7412 226.15 55.4615C226.496 55.2884 226.843 55.1552 227.19 54.9953C227.909 54.649 228.589 54.2361 229.216 53.7433C229.536 53.5169 229.589 53.5169 229.883 53.7966C230.123 54.023 230.349 54.2494 230.576 54.4892C230.936 54.8621 230.936 54.9421 230.576 55.2884C230.309 55.5414 230.003 55.7412 229.763 56.0076C229.056 56.7668 228.363 57.5393 227.683 58.3118C227.456 58.5516 227.256 58.8047 227.083 59.0844C226.71 59.7237 226.296 60.3363 225.83 60.9224C225.51 61.322 225.19 61.7216 224.856 62.1478H224.843ZM240.695 63.0801C240.681 62.947 240.641 62.8137 240.588 62.6805C239.975 61.4818 239.508 60.2032 238.962 58.9778C238.188 57.2463 237.628 55.4482 237.295 53.5968C237.228 53.2904 237.295 53.0241 237.522 52.7977C237.802 52.4913 238.002 52.1317 238.268 51.812C238.482 51.519 238.588 51.1993 238.575 50.8397C238.575 49.9873 238.348 49.2014 237.895 48.4822C237.682 48.1492 236.895 47.8828 236.495 48.0427C236.135 48.1759 235.789 48.1492 235.455 47.9494C234.855 47.6298 234.429 47.7896 234.309 48.4422C234.255 48.7086 234.135 48.9484 233.962 49.1748C233.656 49.6277 233.456 50.1205 233.389 50.6666C233.296 51.0395 233.389 51.3592 233.696 51.6122C234.015 51.8653 234.015 52.2515 234.202 52.5579C234.255 52.6511 234.175 52.7177 234.095 52.7577C233.496 53.0774 233.002 53.5435 232.442 53.9165C232.229 54.1029 232.002 54.1162 231.776 53.9697C231.362 53.6767 230.936 53.4236 230.483 53.1972C230.269 53.104 230.269 52.9575 230.416 52.7843C230.682 52.5046 230.922 52.2249 231.149 51.9186C232.149 50.4801 232.976 48.9484 233.242 47.1902C233.362 46.5376 233.416 45.8849 233.402 45.2323C233.402 44.8327 233.296 44.4465 233.109 44.0868C232.869 43.6606 232.669 43.5807 232.216 43.7672C231.829 43.927 231.482 44.1534 231.176 44.4464C230.456 45.139 229.789 45.8982 229.216 46.724C228.403 47.8562 227.643 49.0416 226.963 50.267C226.376 51.2925 226.19 52.438 225.923 53.5702C225.696 54.5291 225.576 55.5148 224.803 56.3406C224.763 56.0475 224.763 55.7678 224.803 55.4748C224.963 54.316 225.11 53.1439 225.283 51.9852C225.576 50.1071 225.99 48.2558 226.55 46.431C226.67 46.0581 226.843 45.7251 227.083 45.4321C227.603 44.7395 228.176 44.1002 228.816 43.5008C229.336 43.0612 229.896 42.6883 230.509 42.3953C231.362 41.969 232.176 41.4763 232.949 40.9302C234.162 40.0111 235.349 39.0521 236.175 37.7335C236.722 36.8544 237.082 35.9088 237.228 34.8832C237.295 34.4037 237.135 34.2439 236.642 34.3371C236.029 34.4703 235.455 34.6967 234.922 35.043C234.389 35.3627 233.882 35.7223 233.349 36.042C232.656 36.5082 232.069 37.0942 231.576 37.7735C231.016 38.4928 230.389 39.172 229.963 39.9845C229.896 40.1043 229.829 40.2242 229.763 40.3441C229.349 41.3564 228.869 42.3287 228.336 43.2743C228.043 43.7938 227.696 44.2467 227.27 44.6729C227.203 44.4997 227.23 44.3399 227.323 44.1801C227.629 43.3543 227.896 42.5152 228.163 41.6761C228.269 41.3298 228.443 41.0101 228.669 40.7171C229.536 39.5316 230.176 38.2397 230.603 36.8411C230.762 36.4416 230.869 36.0153 230.909 35.5891C230.962 34.5236 230.736 33.5246 230.216 32.5923C229.963 32.1394 229.696 32.1527 229.429 32.6189C229.069 33.3115 228.843 34.0574 228.749 34.8433C228.616 35.7756 228.603 36.6946 228.709 37.627C228.776 38.3329 228.683 39.0122 228.429 39.6648C228.229 40.1976 228.069 40.7437 227.936 41.3031C227.843 41.7826 227.696 42.2354 227.509 42.6883C227.19 43.4874 226.923 44.3133 226.683 45.1391C226.643 45.2723 226.603 45.4054 226.55 45.5253C226.443 45.7517 226.31 45.7517 226.19 45.5253C225.883 45.0192 225.776 44.4731 225.856 43.8871C226.016 42.5285 226.323 41.1965 226.776 39.9046C227.11 39.0255 227.296 38.1198 227.363 37.1741C227.39 36.335 227.216 35.5225 226.883 34.75C226.736 34.3904 226.563 34.3638 226.23 34.6035C225.75 34.9631 225.39 35.416 225.15 35.9621C224.87 36.6147 224.67 37.294 224.55 37.9999C224.376 38.8657 224.163 39.7181 224.163 40.6105C224.137 41.5828 224.363 42.4885 224.856 43.341C225.15 43.8471 225.35 44.4065 225.603 44.9392C225.683 45.1524 225.776 45.3522 225.896 45.5386C226.23 45.9382 226.283 46.3778 226.07 46.8439C225.456 48.5222 225.15 50.2803 224.883 52.0384C224.856 52.1983 224.87 52.3848 224.696 52.5046C224.483 52.4114 224.483 52.2382 224.496 52.0651C224.496 51.0661 224.416 50.0672 224.296 49.0682C224.243 48.4689 224.11 47.8695 223.91 47.2968C223.19 45.2323 222.137 43.3676 220.737 41.6893C220.47 41.423 220.19 41.1699 219.884 40.9302C219.604 40.7171 219.524 40.4507 219.644 40.1177C219.884 39.1454 220.244 38.213 220.35 37.2008C220.484 36.3084 220.497 35.416 220.417 34.5236C220.364 33.9509 220.284 33.3914 220.164 32.832C219.99 31.9929 219.75 31.1671 219.444 30.3547C219.43 30.3014 219.404 30.2614 219.404 30.2081C219.19 29.036 218.51 28.0904 217.844 27.1447C217.231 26.279 216.524 25.4665 216.044 24.4942C215.711 23.7883 215.284 23.1356 214.764 22.5629C214.697 22.4696 214.618 22.4297 214.511 22.4297C214.538 22.6827 214.644 22.9092 214.831 23.0823C215.444 23.7749 215.671 24.6274 215.831 25.4931C216.057 26.7718 216.017 28.0371 215.711 29.3024C215.551 29.8885 215.311 30.4479 215.004 30.9673C214.591 31.7265 214.071 32.4191 213.658 33.1783C213.071 34.2705 212.311 35.2695 211.951 36.4815C211.551 37.8534 211.218 39.2253 211.298 40.6638C211.351 41.1166 211.191 41.4762 210.818 41.7426C210.311 42.1555 209.831 42.6084 209.378 43.0879C209.298 43.1811 209.205 43.2477 209.098 43.2743C208.938 43.1012 208.845 42.8881 208.791 42.6617C208.405 41.5162 208.112 40.3441 207.898 39.1454C207.672 38.0266 207.378 36.9211 207.032 35.8422C206.858 35.3627 206.632 34.9232 206.352 34.5103C205.418 33.0718 204.405 31.6999 203.139 30.5278C201.886 29.3291 200.472 28.3967 198.886 27.7041C197.686 27.198 196.539 26.5986 195.433 25.9193C195.166 25.7328 194.873 25.573 194.553 25.4798C193.633 25.2667 192.873 24.7472 192.087 24.2944C191.313 23.8415 190.567 23.3354 189.713 23.0157C189.633 22.9891 189.567 22.9225 189.473 22.9758C189.42 23.0157 189.42 23.069 189.473 23.1223C189.98 23.5885 190.42 24.1346 190.993 24.5341C192.033 25.2933 192.806 26.2789 193.286 27.4644C193.726 28.41 194.033 29.3957 194.193 30.4212C194.393 31.8597 194.7 33.2849 194.793 34.7367C194.86 35.6957 195.22 36.5881 195.606 37.4538C196.006 38.3862 196.379 39.3318 196.859 40.2375C197.046 40.5972 196.966 41.0101 196.926 41.4096C196.819 42.6617 196.819 43.927 196.926 45.179C196.979 45.9515 197.086 46.724 197.259 47.4832C197.473 48.4156 197.779 49.308 198.179 50.1738C198.593 51.1327 199.086 52.0384 199.686 52.8909C199.859 53.1439 199.832 53.1706 199.526 53.2505C198.259 53.5302 197.086 53.9964 195.979 54.6623C195.38 55.0086 194.753 55.2084 194.06 55.2884C193.766 55.3416 193.673 55.2351 193.726 54.942C193.78 54.6224 193.873 54.3027 193.926 53.9831C194.1 53.064 194.18 52.1317 194.153 51.1993C194.06 49.5477 194.006 47.8828 193.54 46.2712C193.313 45.472 192.926 44.7262 192.62 43.967C192.033 42.4752 191.407 40.9834 190.793 39.505C190.487 38.7858 190.1 38.1065 189.647 37.4805C189.393 37.1209 189.14 37.1342 188.954 37.5337C188.674 38.0931 188.447 38.6659 188.247 39.2653C187.62 41.4763 187.42 43.7139 187.647 45.9915C187.874 48.3623 188.22 50.7332 189.14 52.9575C189.407 53.6101 189.647 54.2894 189.927 54.9287C190.14 55.4348 190.407 55.9277 190.713 56.3938C191.393 57.3661 191.833 58.445 192.033 59.6304C192.073 60.1632 192.18 60.6827 192.353 61.2021C192.407 61.3353 192.42 61.4685 192.353 61.6017C192.193 61.6416 192.167 61.5084 192.113 61.4285C191.193 60.0034 190.273 58.5915 189.354 57.1664C188.46 55.8211 187.647 54.4359 186.914 53.0107C186.554 52.2915 186.141 51.5856 185.754 50.8663C185.421 50.2537 185.141 49.6276 184.901 48.975C184.581 48.1359 184.141 47.35 183.794 46.5242C183.367 45.5253 183.101 44.4598 182.728 43.4342C182.634 43.2211 182.661 43.0346 182.794 42.8482C183.607 41.8092 184.194 40.6371 184.941 39.545C186.514 37.2674 187.62 34.79 187.94 32.0062C188.047 31.0606 188.18 30.1149 188.127 29.1692C188.034 27.6775 188.047 26.1591 187.794 24.6806C187.567 23.2954 187.127 22.0035 186.46 20.7648C186.42 20.6715 186.354 20.5916 186.287 20.5117C186.247 20.4584 186.194 20.4318 186.127 20.4184C186.061 20.4184 186.007 20.4318 185.967 20.4851C185.861 20.5916 185.754 20.7115 185.647 20.8314C183.901 23.0024 182.648 25.4265 181.901 28.117C181.608 29.1826 181.381 30.2614 181.208 31.3536C181.168 31.5534 181.181 31.7665 181.168 31.9796C181.074 33.1384 181.168 34.2839 181.168 35.4426C181.181 36.7612 181.421 38.0532 181.888 39.2919C182.221 40.171 182.394 41.09 182.408 42.0223C182.434 42.1289 182.408 42.2088 182.328 42.2887C182.061 41.7959 181.928 41.2631 181.714 40.757C181.154 39.4517 180.821 38.0665 180.461 36.7079C180.154 35.5358 179.568 34.4703 178.968 33.4181C178.835 33.1783 178.768 32.912 178.621 32.6722C178.408 32.3126 178.181 31.9796 177.915 31.6599C177.115 30.7009 176.302 29.7553 175.208 29.116C174.995 28.9828 174.755 28.8629 174.515 28.7563C174.115 28.6098 173.915 28.743 173.888 29.1692C173.875 29.7952 173.915 30.4079 174.035 31.0206C174.488 34.0974 175.715 36.8145 177.728 39.1854C178.528 40.1177 179.448 40.9435 180.621 41.4096C180.781 41.4762 180.928 41.5828 181.074 41.6494C181.301 41.7293 181.488 41.8625 181.634 42.049C181.781 42.2355 181.861 42.4486 181.874 42.7016C181.888 42.8348 181.928 42.968 181.981 43.1012C182.608 44.5131 183.074 45.9782 183.594 47.4167C184.567 50.0672 185.874 52.5712 187.247 55.0353C187.634 55.7279 188.02 56.4205 188.407 57.1264C188.554 57.3795 188.714 57.6326 188.887 57.8723C190.087 59.6038 191.247 61.3753 192.367 63.1601H193.1C193.073 63.0402 193.033 62.9336 192.966 62.8271C192.66 62.4275 192.633 61.9613 192.593 61.4951C192.473 59.737 192.7 58.0188 193.3 56.3539C193.313 56.2473 193.38 56.1674 193.46 56.1008C193.553 56.0475 193.646 56.0209 193.753 56.0475C194.366 56.1141 194.993 56.1141 195.58 56.3672C195.819 56.4738 196.073 56.5137 196.339 56.5004C197.259 56.4605 198.006 56.9399 198.766 57.3262C199.312 57.6325 199.806 58.0055 200.259 58.4317C200.619 58.738 200.872 59.1642 201.259 59.3907C201.726 59.6704 201.846 60.07 201.912 60.5362C202.059 61.4285 202.259 62.2943 202.539 63.1601H202.952C203.019 62.534 203.325 61.9746 203.499 61.3886C203.605 61.0289 203.712 61.0023 204.085 61.1355C204.805 61.3886 205.538 61.575 206.285 61.7216C206.912 61.8547 207.552 61.908 208.178 62.0412C209.098 62.201 209.925 62.574 210.645 63.1733H213.351C213.404 63.0535 213.418 62.9469 213.378 62.8137C213.138 62.0545 212.844 61.322 212.498 60.6027C211.285 58.5649 209.791 56.7801 207.978 55.2484C207.685 55.0353 207.685 54.9154 207.925 54.6224C208.685 53.6368 209.325 52.5712 209.858 51.4391C210.071 50.9995 210.271 50.56 210.498 50.1338C210.645 49.8408 210.738 49.8141 210.951 50.0406C211.445 50.5334 211.991 50.9463 212.511 51.3991C213.004 51.8253 213.284 52.3714 213.364 53.0107C213.484 54.0763 213.658 55.1285 213.858 56.1807C214.244 58.2186 214.498 60.2698 214.911 62.3076C214.951 62.6139 215.057 62.907 215.231 63.1733H215.644C215.751 62.9336 215.751 62.7072 215.644 62.4674C215.364 61.6949 215.284 60.8824 215.124 60.0966C214.724 58.1786 214.431 56.2473 213.991 54.356C213.738 53.2239 213.511 52.0917 213.151 50.9862C213.071 50.7997 213.058 50.6 213.111 50.4002C213.164 50.2004 213.258 50.0405 213.418 49.9074C213.684 49.6277 213.978 49.3879 214.298 49.1881C215.137 48.7752 215.644 48.0427 216.151 47.3367C216.911 46.2845 217.537 45.1391 218.004 43.927C218.044 43.7539 218.137 43.6073 218.27 43.5008C218.31 43.5274 218.35 43.5407 218.364 43.5674C218.417 43.6872 218.47 43.8204 218.51 43.9536C218.79 44.9792 219.204 45.9382 219.737 46.8572C219.884 47.057 219.87 47.2435 219.737 47.43C219.63 47.5632 219.59 47.7097 219.604 47.8695C219.617 48.0293 219.697 48.1758 219.817 48.2824C220.097 48.5355 220.164 48.8285 220.044 49.1748C220.017 49.308 220.004 49.4412 219.99 49.5877C219.937 50.4002 219.764 51.1993 219.484 51.9585C219.404 52.2516 219.23 52.4647 218.977 52.6112C218.884 51.7587 218.444 51.0262 218.684 50.187C218.75 50.0405 218.75 49.8807 218.684 49.7342C218.617 49.5877 218.51 49.4812 218.35 49.4279C218.03 49.308 217.737 49.3613 217.484 49.601C217.271 49.8674 217.244 50.1338 217.431 50.4268C217.537 50.6666 217.724 50.8131 217.977 50.853C218.11 50.853 218.23 50.9063 218.324 51.0128C218.417 51.1061 218.457 51.226 218.457 51.3592C218.484 51.6122 218.564 51.8653 218.604 52.1184C218.617 52.2249 218.684 52.3581 218.537 52.438C218.364 52.3981 218.217 52.3181 218.097 52.1849C217.817 51.9585 217.537 51.7188 217.244 51.519C216.977 51.3325 216.897 51.3591 216.764 51.6388C216.497 52.1317 216.324 52.6511 216.231 53.2106C216.231 53.4636 216.151 53.69 215.964 53.8632C215.537 54.1828 215.604 54.5691 215.791 54.982C215.911 55.1685 215.991 55.3816 216.031 55.608C216.151 57.0864 216.604 58.445 217.404 59.697C217.631 60.0433 217.724 60.4163 217.697 60.8292C217.671 61.1755 217.591 61.5085 217.444 61.8281C217.271 62.281 216.977 62.6805 216.964 63.1867H218.004C218.417 62.9336 218.804 62.6406 219.177 62.3476C219.484 62.0812 219.71 62.0945 220.044 62.281C220.75 62.6939 221.483 63.0268 222.337 63.0135C222.603 63.0135 222.857 63.0668 223.083 63.2H223.817C223.523 62.3476 223.51 61.4419 223.337 60.5628C223.31 60.4163 223.297 60.2564 223.283 60.0966C223.243 59.9234 223.31 59.8169 223.47 59.7769C223.683 59.7104 223.883 59.5905 224.11 59.6837C224.163 59.697 224.19 59.7903 224.203 59.8569C224.216 59.9634 224.23 60.0567 224.216 60.1632C224.177 61.029 224.376 61.8814 224.323 62.7472C224.323 62.907 224.35 63.0535 224.416 63.2H224.723C224.723 62.9603 224.803 62.7604 224.963 62.5873C225.296 62.201 225.616 61.7882 225.91 61.3619C226.67 60.2165 227.776 59.5239 228.963 58.9512C229.709 58.6049 230.443 58.2053 231.149 57.7791C231.376 57.6459 231.589 57.5126 231.816 57.3795C231.909 57.2995 232.016 57.2729 232.136 57.2862C232.256 57.3129 232.336 57.3661 232.402 57.4727C232.869 58.0721 233.429 58.5382 234.095 58.8979C234.749 59.2442 235.375 59.6438 235.989 60.0833C236.482 60.4696 236.948 60.8691 237.428 61.282C237.988 61.7882 238.615 62.1744 239.335 62.4142C239.762 62.5207 240.055 62.7871 240.215 63.2H240.628L240.695 63.0801ZM276.184 61.7082C276.438 61.5883 276.691 61.4552 276.944 61.3353C277.011 61.3086 277.078 61.2953 277.118 61.3752C277.144 61.4552 277.118 61.5084 277.038 61.5484C276.771 61.6949 276.491 61.7482 276.198 61.7082H276.184ZM267.492 60.403C267.332 60.403 267.185 60.3497 267.065 60.2298C266.559 59.8702 266.065 59.4972 265.572 59.0977C264.999 58.6315 264.972 58.5383 265.399 57.9123C265.412 57.8856 265.439 57.859 265.452 57.819C265.545 57.6592 265.665 57.6592 265.785 57.7791C266.012 58.0055 266.265 58.2319 266.479 58.485C266.945 59.0177 267.212 59.6704 267.479 60.3896L267.492 60.403ZM295.916 44.7528C296.049 45.1124 296.142 45.3788 296.236 45.6452C296.431 46.2135 296.298 46.693 295.836 47.0837C295.836 47.0837 295.729 47.1636 295.676 47.2169C295.089 47.723 294.502 48.2291 293.903 48.7219C293.503 49.0549 293.143 49.4412 292.636 49.6543C293.689 48.0293 294.409 46.1913 295.916 44.7528ZM307.768 54.8088C307.781 54.9287 307.781 55.0619 307.648 55.1285C307.514 55.1951 307.408 55.1685 307.314 55.0486C306.981 54.7156 306.688 54.356 306.448 53.9564C306.381 53.8099 306.368 53.6634 306.421 53.5036C306.488 53.1972 306.488 52.8909 306.421 52.5712C306.355 52.0917 306.261 51.6122 306.128 51.146C306.075 51.0395 306.075 50.9329 306.115 50.8131C306.155 50.7065 306.235 50.6266 306.341 50.5733C306.581 50.4401 306.821 50.2936 307.061 50.1604C307.368 49.9873 307.448 50.0406 307.501 50.3735C307.621 50.9995 307.648 51.6389 307.594 52.2782C307.501 53.1173 307.474 53.9298 307.754 54.7289C307.754 54.7422 307.754 54.7689 307.754 54.7822L307.768 54.8088ZM249.627 54.2361C249.107 54.3027 248.667 54.3427 248.227 54.4093C248.014 54.4359 247.934 54.356 247.854 54.1562C247.601 53.5302 247.654 52.8643 247.654 52.2116C247.654 51.2659 247.907 50.3735 248.161 49.4678C248.187 49.3879 248.214 49.2813 248.321 49.308C248.521 49.3746 248.694 49.4811 248.841 49.641C248.974 49.7741 248.841 49.894 248.774 50.0139C248.681 50.2403 248.654 50.4801 248.707 50.7331C248.747 51.0395 248.761 51.3458 248.761 51.6655C248.721 52.3048 248.881 52.8909 249.254 53.4237C249.401 53.6901 249.534 53.9564 249.627 54.2361ZM273.331 60.9224C273.291 60.6294 273.398 60.3896 273.651 60.2298C274.638 59.4706 275.691 58.818 276.718 58.1254C276.771 58.0854 276.838 58.0588 276.904 58.0321C277.158 57.9256 277.251 57.9922 277.184 58.2452C277.051 58.8046 277.011 59.364 277.051 59.9368C277.091 60.2698 276.958 60.5095 276.651 60.656C276.051 60.989 275.451 61.3486 274.851 61.6816C274.585 61.8414 274.305 61.9879 274.038 62.1344C273.958 62.1877 273.878 62.201 273.785 62.1744C273.691 62.1478 273.638 62.0812 273.611 61.988C273.478 61.6417 273.371 61.282 273.318 60.9224H273.331ZM291.449 51.479C292.089 50.7598 292.796 50.1205 293.556 49.5211C294.516 48.7619 295.489 48.0294 296.422 47.2169C296.756 46.9239 296.782 46.9238 296.969 47.3101C297.355 48.0826 297.822 48.8019 298.355 49.4945C298.489 49.6676 298.475 49.7608 298.315 49.8674C297.262 50.5866 296.116 51.1594 294.902 51.5589C293.836 51.8786 292.783 51.6255 291.716 51.6122C291.609 51.6122 291.529 51.5723 291.463 51.479H291.449ZM252.827 54.1562C253.347 53.8232 253.693 53.2771 254.08 52.7843C254.293 52.5446 254.347 52.2649 254.227 51.9718C254.04 51.3991 254.307 51.1061 254.893 51.1993C255.413 51.3192 255.946 51.3725 256.493 51.3592C256.773 51.3325 257 51.4391 257.173 51.6655C257.666 52.2649 258.173 52.8509 258.693 53.437C259.333 54.1695 260.013 54.8488 260.746 55.4881C261.319 55.981 261.866 56.5137 262.426 57.0332C262.532 57.1264 262.626 57.233 262.679 57.3528C262.746 57.4727 262.732 57.5926 262.639 57.6858C262.546 57.7657 262.439 57.7391 262.346 57.6858C262.213 57.6325 262.093 57.566 261.973 57.4994C260.466 56.6469 258.986 55.7545 257.346 55.1685C257.186 55.1152 257.066 55.022 257.08 54.8355C257.146 54.1163 256.786 53.5036 256.586 52.8509C256.546 52.7444 256.52 52.5845 256.36 52.5978C256.173 52.6112 256.186 52.7843 256.173 52.9175C256.106 53.3437 256.066 53.77 256.053 54.2095C256.053 54.3693 256.053 54.5558 255.853 54.649C255.773 54.5558 255.707 54.4759 255.64 54.4093C255.28 54.0097 255.2 53.9831 254.72 54.2894C254.493 54.4359 254.24 54.4892 253.973 54.4359C253.68 54.3826 253.387 54.356 253.093 54.3427C252.933 54.3693 252.84 54.3027 252.813 54.1429L252.827 54.1562ZM256.253 51.0395C256.053 50.9995 255.853 50.9729 255.653 50.9463C255.053 50.9196 254.533 50.7198 254.093 50.3336C253.587 49.934 253.107 49.4811 252.6 49.0549C251.84 48.3756 251.134 47.6298 250.52 46.8306C250 46.1913 249.467 45.552 248.881 44.9659C248.654 44.7395 248.387 44.5397 248.134 44.3132C247.974 44.2067 247.894 44.0602 247.894 43.8737C247.934 43.3942 247.961 42.9148 248.027 42.4353C248.081 42.0623 248.201 42.0223 248.521 42.2088C249.174 42.5684 249.787 42.9947 250.334 43.5008C251.067 44.1934 251.587 45.0591 252.347 45.7384C252.8 46.1247 253.2 46.5509 253.547 47.0304C254.187 47.9494 254.893 48.8285 255.64 49.6676C255.946 50.0006 256.2 50.3735 256.466 50.7331C256.52 50.7997 256.586 50.8796 256.546 50.9729C256.493 51.0928 256.373 51.0528 256.266 51.0661L256.253 51.0395ZM311.367 38.1597C311.554 38.1464 311.634 38.213 311.647 38.3595C311.674 38.5726 311.647 38.7724 311.607 38.9722C311.354 40.1843 310.607 41.1166 309.834 42.0357C309.741 42.1156 309.648 42.1822 309.528 42.2221C308.354 42.7016 307.248 43.2877 306.181 43.9803C305.835 44.2067 305.515 44.4731 305.168 44.6995C304.848 44.9126 304.768 44.8727 304.661 44.5131C304.568 44.0203 304.408 43.5407 304.195 43.0879C304.008 42.7416 303.795 42.4086 303.621 42.049C303.435 41.6894 303.475 41.5961 303.768 41.3431C303.848 41.2765 303.928 41.2099 304.021 41.1699C304.741 40.757 305.488 40.3974 306.261 40.0911C307.274 39.7048 308.341 39.4517 309.341 38.9989C309.914 38.7458 310.514 38.5726 311.061 38.2796C311.154 38.2397 311.261 38.1997 311.367 38.1597ZM270.052 46.1913C270.105 46.4177 270.105 46.6308 270.052 46.8572C269.972 47.4433 269.958 48.0293 270.025 48.6154C270.105 49.6809 270.238 50.7465 270.292 51.812C270.358 52.9042 270.518 53.9697 270.798 55.0353C271.172 56.4871 271.545 57.9522 272.038 59.3641C272.131 59.5905 272.171 59.8302 272.131 60.07C271.985 60.949 271.665 61.7615 271.198 62.5207C271.012 62.8004 270.985 62.8137 270.705 62.6406C269.998 62.201 269.305 61.7615 268.599 61.3087C268.239 61.0822 267.959 60.7759 267.772 60.403C267.305 59.3907 267.199 58.3384 267.465 57.2596C267.705 56.1541 267.759 55.0353 267.612 53.9165C267.559 53.5968 267.612 53.3038 267.745 53.0107C267.919 52.6511 268.065 52.2782 268.212 51.9186C268.892 50.2537 269.305 48.4955 269.785 46.764C269.838 46.5509 269.918 46.3644 270.038 46.1913H270.052ZM308.448 60.7759C308.448 60.8425 308.448 60.9091 308.461 60.989C308.461 61.0822 308.501 61.1622 308.501 61.2421C308.528 61.5351 308.448 61.6017 308.194 61.4951C308.128 61.4685 308.074 61.4419 308.008 61.4019C307.354 60.9757 306.674 60.6027 305.955 60.2964C305.555 60.1099 305.221 59.8568 304.955 59.5105C304.381 58.8046 303.728 58.192 303.008 57.6592C302.208 57.0731 301.275 56.7934 300.395 56.4072C300.022 56.2473 299.622 56.2074 299.222 56.3006C298.769 56.4071 298.302 56.4871 297.835 56.527C296.876 56.6336 295.969 56.8866 295.102 57.2995C294.596 57.5393 294.062 57.6592 293.503 57.6725C292.529 57.7124 291.569 57.6725 290.596 57.7791C289.73 57.8457 288.876 57.9655 288.036 58.1387C287.263 58.3118 286.517 58.6182 285.743 58.7913C284.543 59.0844 283.37 59.4439 282.224 59.8835C281.317 60.2031 281.464 60.3097 280.891 59.3507C280.837 59.2841 280.811 59.2175 280.837 59.1376C280.851 59.0577 280.904 58.9911 280.984 58.9645C281.33 58.7513 281.677 58.4983 282.037 58.2985C283.437 57.4993 284.797 56.6336 286.117 55.7145C287.743 54.609 289.303 53.397 290.77 52.0784C290.956 51.8919 291.169 51.8253 291.423 51.8919C292.409 52.0784 293.409 52.1716 294.409 52.1849C295.209 52.2116 295.996 52.2915 296.796 52.3315C297.275 52.3315 297.755 52.3714 298.235 52.4513C298.955 52.5845 299.675 52.6378 300.408 52.6112C301.048 52.5579 301.675 52.4647 302.302 52.3315C302.622 52.2516 302.915 52.3315 303.182 52.5313C303.541 52.8243 303.928 53.104 304.301 53.3704C304.688 53.7034 305.141 53.9165 305.635 54.023C305.941 54.0763 306.181 54.2361 306.355 54.5025C306.661 54.9154 307.021 55.3017 307.408 55.648C307.954 56.1141 308.234 56.7135 308.234 57.4327C308.248 58.5516 308.394 59.6704 308.461 60.7892L308.448 60.7759ZM317.18 33.1917C316.5 32.8454 315.767 32.7921 315.007 32.7654C313.607 32.6989 312.247 32.9786 310.901 33.2583C310.381 33.3781 309.874 33.5646 309.408 33.831C308.088 34.5769 306.888 35.4559 305.795 36.4948C305.341 36.921 304.848 37.3073 304.435 37.7735C303.941 38.3063 303.475 38.8523 302.982 39.3984C302.942 39.4384 302.915 39.4784 302.875 39.5183C302.448 39.9446 302.302 40.2509 301.835 39.5183C301.728 39.3851 301.608 39.2519 301.475 39.1454C301.208 38.8657 301.195 38.8523 301.422 38.5327C301.875 37.8934 302.262 37.2274 302.675 36.5615C303.515 35.1762 304.368 33.791 305.075 32.3259C305.675 31.1272 306.115 29.8885 306.408 28.5832C306.661 27.3445 306.954 26.1191 307.141 24.8671C307.314 23.7083 307.408 22.5362 307.194 21.3641C307.128 20.9912 307.034 20.6182 306.914 20.2586C306.794 19.859 306.621 19.8058 306.261 19.9923C305.195 20.5517 304.208 21.2043 303.275 21.9502C302.022 22.9358 300.968 24.0946 300.115 25.4265C299.302 26.7718 298.622 28.1969 298.075 29.6754C297.595 30.8741 297.169 32.0995 296.809 33.3515C296.662 33.9375 296.529 34.5236 296.382 35.1097C296.276 35.5226 296.262 35.5092 295.849 35.376C294.916 35.0697 294.209 34.417 293.436 33.8843C293.103 33.6578 292.743 33.498 292.423 33.2449C292.369 33.205 292.303 33.165 292.236 33.205C292.143 33.2716 292.183 33.3781 292.236 33.4314C292.529 33.7244 292.743 34.0841 293.076 34.3504C293.836 34.9365 294.369 35.6957 294.676 36.6014C295.062 37.6137 295.249 38.6526 295.262 39.7447C295.262 40.2642 295.342 40.7703 295.356 41.2898C295.356 42.4752 295.116 43.6206 294.649 44.7261C294.342 45.5519 293.982 46.3644 293.569 47.137C293.023 48.1492 292.476 49.1748 291.876 50.1738C291.623 50.5733 291.316 50.9196 290.943 51.2127C289.863 52.0651 288.783 52.9442 287.663 53.7566C285.903 55.0486 284.09 56.2606 282.25 57.4327C281.704 57.779 281.157 58.112 280.611 58.4317C280.264 58.6448 280.157 58.6315 279.917 58.2985C279.624 57.9122 279.277 57.5793 278.864 57.3129C278.464 57.0465 278.477 56.9533 278.864 56.6869C280.317 55.6746 281.584 54.4492 282.664 53.0507C283.89 51.4657 285.157 49.9073 286.263 48.2291C287.383 46.6042 288.41 44.9259 289.356 43.1944C289.89 42.1822 290.37 41.1566 290.796 40.0911C291.076 39.3718 291.236 38.6392 291.276 37.8667C291.316 36.7479 291.036 36.2817 289.69 36.2018C289.023 36.1885 288.383 36.2817 287.756 36.4948C286.503 36.8678 285.33 37.4006 284.224 38.1065C283.864 38.3329 283.464 38.5061 283.09 38.7192C282.344 39.1321 281.677 39.6515 281.064 40.2509C280.651 40.6505 280.197 41.0234 279.717 41.3564C279.264 41.7293 278.837 42.1289 278.437 42.5684C278.051 42.9547 277.638 43.341 277.544 43.927C277.544 43.9403 277.544 43.9669 277.531 43.9803C276.944 44.2466 276.944 44.9792 276.398 45.3255C275.918 45.6185 275.678 46.1913 275.398 46.6974C274.825 47.683 274.345 48.722 273.971 49.8008C273.918 49.9473 273.865 50.0938 273.785 50.227C273.758 50.2803 273.718 50.3069 273.665 50.3069C273.585 50.3069 273.545 50.2404 273.531 50.1738C273.531 50.1072 273.531 50.0405 273.518 49.9739C273.385 48.2824 273.131 46.6042 272.491 45.0192C272.291 44.4864 272.038 43.9669 271.732 43.4875C271.558 43.2477 271.398 43.0479 271.052 43.1678C270.825 43.2344 270.838 43.0479 270.865 42.9147C270.945 42.635 270.985 42.342 271.052 42.049C271.345 40.6371 271.318 39.1987 271.358 37.7735C271.398 36.9744 271.318 36.1885 271.145 35.416C271.078 35.1496 270.998 34.8832 270.918 34.6168C270.785 34.1773 270.425 34.0308 270.038 34.2972C269.732 34.5103 269.478 34.7633 269.265 35.0564C268.385 36.1485 267.625 37.3206 266.999 38.586C266.505 39.5982 266.079 40.6371 265.705 41.6893C265.252 42.9414 264.866 44.22 264.546 45.4987C264.546 45.5386 264.492 45.5786 264.452 45.6319C264.279 45.5386 264.146 45.4054 264.039 45.2456C263.172 44.2333 262.173 43.3942 261.039 42.715C260.493 42.382 259.919 42.0889 259.239 42.1289C258.786 42.1555 258.626 42.2488 258.48 42.6883C258.32 43.2344 258.306 43.7805 258.426 44.3266C258.72 45.9648 259.293 47.5232 259.919 49.0682C260.439 50.3469 261.053 51.5856 261.693 52.8243C261.986 53.437 262.332 54.0097 262.719 54.5691C262.852 54.7156 262.919 54.8888 262.932 55.0886C262.932 55.2084 262.932 55.3283 262.932 55.4482C262.892 55.8344 262.839 56.2207 262.786 56.7002C262.372 56.3406 261.986 56.0475 261.653 55.7279C260.666 54.7556 259.679 53.7833 258.72 52.7977C258.173 52.2249 257.68 51.5989 257.16 50.9995C256.626 50.3869 256.493 49.601 256.24 48.8818C256 48.1226 255.8 47.35 255.653 46.5642C255.613 46.3644 255.587 46.1513 255.587 45.9515C255.547 44.6196 255.587 43.2877 255.72 41.9691C255.88 39.6648 255.493 37.4538 254.88 35.2695C254.36 33.4048 253.2 31.913 251.694 30.7143C251.294 30.3946 251.227 30.4212 251.014 30.8741C250.734 31.4601 250.56 32.0728 250.494 32.7122C250.427 33.3515 250.414 33.9908 250.4 34.6301C250.374 36.4549 250.694 38.1997 251.387 39.8913C251.64 40.5306 251.854 41.1966 252.107 41.8359C252.52 42.9147 253.24 43.8071 253.84 44.7794C254.467 45.7917 255.12 46.804 255.56 47.9095C255.76 48.4156 255.92 48.9484 256.12 49.5344C255.8 49.4412 255.733 49.2147 255.6 49.0549C254.76 48.0693 253.96 47.0437 253.12 46.0714C252.773 45.6585 252.52 45.1923 252.374 44.6596C252.067 43.6473 251.48 42.7949 250.934 41.9158C250.334 40.9168 249.627 40.0111 248.814 39.172C248.707 39.0788 248.627 38.9722 248.574 38.839C248.547 38.7591 248.521 38.6526 248.427 38.6393C247.907 38.5194 247.547 38.1331 247.067 37.92C246.174 37.4938 245.228 37.2274 244.228 37.1342C243.681 37.0942 243.468 37.3473 243.694 37.8534C244.068 38.7325 244.628 39.465 245.374 40.0644C245.774 40.424 246.188 40.757 246.627 41.0767C246.721 41.1299 246.787 41.2099 246.814 41.3164C246.841 41.423 246.814 41.5295 246.747 41.6094C246.561 41.9557 246.361 42.302 246.174 42.6483C246.121 42.7549 246.028 42.8215 245.921 42.8614C245.801 42.9014 245.694 42.8881 245.588 42.8215C245.174 42.675 244.761 42.5684 244.334 42.5152C243.921 42.4619 243.801 42.5684 243.774 42.9813C243.761 43.5407 243.881 44.0735 244.134 44.5796C244.401 45.1257 244.721 45.6319 245.121 46.0981C245.428 46.4177 245.508 46.7906 245.348 47.2035C245.294 47.4433 245.228 47.6697 245.148 47.8961C244.774 48.682 244.601 49.5211 244.361 50.3602C244.121 51.2126 244.201 52.0384 244.374 52.8642C244.521 53.5568 244.694 54.2494 244.854 54.9287C244.908 55.1685 244.854 55.3816 244.708 55.5814C244.561 55.7812 244.361 55.8744 244.121 55.901C243.934 55.901 243.894 55.7679 243.894 55.6213C243.894 55.2884 243.801 54.9687 243.801 54.649C243.788 53.8099 243.574 53.0107 243.401 52.1983C242.988 50.2004 242.508 48.2158 241.988 46.2446C241.655 45.0192 241.241 43.8338 240.761 42.6617C240.615 42.3686 240.628 42.0756 240.815 41.7959C241.028 41.423 241.281 41.0767 241.588 40.757C241.828 40.5306 241.948 40.2509 241.921 39.9179C241.921 39.7447 241.921 39.5716 241.961 39.3984C242.001 39.1986 241.988 38.9989 241.908 38.8124C241.828 38.6259 241.695 38.4794 241.521 38.3729C241.068 38.1331 240.708 37.7868 240.441 37.3606C240.335 37.1874 240.175 37.0942 239.975 37.0676C239.548 36.961 239.122 36.921 238.682 36.9477C238.495 36.9477 238.322 37.001 238.175 37.1208C238.028 37.2407 237.922 37.3872 237.868 37.5604C237.788 37.9333 237.575 38.1731 237.215 38.2929C236.948 38.3862 236.829 38.5727 236.829 38.8524C236.789 39.2386 236.749 39.6116 236.948 39.9579C237.015 40.1177 237.055 40.2908 237.042 40.464C237.042 40.7437 237.148 40.9701 237.348 41.1566C237.788 41.5295 238.228 41.8891 238.788 42.0623C238.922 42.1022 239.042 42.1556 239.162 42.2221C239.375 42.342 239.615 42.3953 239.868 42.382C240.281 42.3687 240.281 42.3686 240.375 42.7282C240.535 43.3542 240.868 43.9137 241.041 44.5264C241.255 45.2589 241.481 45.9782 241.681 46.7107C242.201 48.7353 242.668 50.7731 243.081 52.8243C243.334 54.063 243.508 55.3017 243.601 56.567C243.694 57.8323 243.774 59.111 243.961 60.3763C244.041 61.0156 244.081 61.6417 244.094 62.281C244.094 62.5607 244.134 62.8271 244.201 63.1068H244.508C244.614 62.8937 244.641 62.6806 244.588 62.4541C244.508 61.988 244.481 61.5218 244.508 61.0556C244.508 60.7759 244.508 60.5095 244.481 60.2298C244.321 59.2575 244.241 58.2718 244.121 57.2995C244.094 57.1131 244.001 56.86 244.281 56.7668C244.494 56.7002 244.881 57.0465 244.908 57.2862C244.908 57.3528 244.908 57.4194 244.894 57.486C244.788 58.3118 244.801 59.1376 244.921 59.9634C245.041 60.9357 245.254 61.908 245.054 62.8937C245.054 62.9603 245.054 63.0269 245.054 63.1068H245.988C246.467 62.4408 246.761 61.6816 246.867 60.8691C246.934 60.1499 247.214 59.5105 247.441 58.8446C247.641 58.2852 247.694 58.2586 248.267 58.4184C248.387 58.445 248.507 58.4716 248.614 58.5116C249.001 58.6315 249.027 58.6981 248.801 59.0577C248.761 59.1376 248.707 59.2042 248.654 59.2708C248.187 59.9101 247.787 60.5894 247.441 61.3087C247.174 61.8947 246.774 62.4408 246.707 63.1201H254.813C255.413 62.0013 255.64 60.7493 256.213 59.6171C256.306 59.3374 256.506 59.1776 256.813 59.1509C258.093 58.9911 259.386 58.818 260.666 58.6448C261.173 58.5382 261.693 58.5382 262.213 58.6315C262.706 58.7513 262.772 58.8579 262.639 59.3507C262.586 59.5106 262.546 59.6837 262.519 59.8569C262.466 60.7226 262.133 61.4951 261.826 62.281C261.693 62.5474 261.613 62.8271 261.573 63.1201H262.199C262.479 62.6939 262.746 62.241 263.052 61.8281C263.586 61.1222 264.212 60.4962 264.559 59.6704C264.666 59.4173 264.879 59.3907 265.119 59.4706C265.465 59.5905 265.785 59.7636 266.079 59.9767C267.012 60.696 267.972 61.3619 268.958 62.0012C269.518 62.3209 270.038 62.6939 270.518 63.1201H271.345C271.438 62.9736 271.518 62.8271 271.625 62.6805C271.918 62.201 272.265 61.7482 272.665 61.3353C272.905 61.1089 272.945 61.1089 273.091 61.4152C273.185 61.615 273.278 61.8281 273.345 62.0412C273.451 62.3609 273.411 62.4941 273.118 62.6939C272.945 62.8137 272.745 62.8937 272.705 63.1201H274.051C274.078 62.8138 274.331 62.7471 274.558 62.6805C275.398 62.4408 276.251 62.2543 277.118 62.1344C277.211 62.1078 277.291 62.1344 277.371 62.1744C277.451 62.2277 277.491 62.2943 277.504 62.3875C277.571 62.6406 277.638 62.8803 277.704 63.1334H282.277C282.37 62.9336 282.384 62.7338 282.344 62.534C282.304 62.3476 282.384 62.201 282.584 62.2676C283.344 62.4808 284.09 62.7471 284.81 63.0668C284.837 63.0801 284.85 63.1201 284.877 63.1467L310.127 63.1467C310.127 62.9603 310.047 62.8137 309.887 62.7072C309.701 62.574 309.541 62.4275 309.368 62.281C309.194 62.1744 309.101 62.0146 309.101 61.8015C309.101 61.4418 309.021 61.0822 308.994 60.7226C308.874 59.1909 308.688 57.6725 308.408 56.1541C308.221 55.1552 308.274 55.0353 309.141 54.5291C309.181 54.5025 309.234 54.4759 309.274 54.4492C309.621 54.2894 309.927 54.063 310.194 53.7833C311.034 52.9308 311.741 51.9718 312.301 50.9063C312.554 50.4401 312.834 49.974 313.087 49.5078C313.82 48.1892 314.434 46.8173 314.674 45.3122C314.834 44.2733 314.82 43.2211 315.154 42.2088C315.274 41.8226 315.207 41.7293 314.834 41.5695C314.62 41.4896 314.514 41.3298 314.487 41.1033C314.287 40.0378 313.9 39.0521 313.327 38.1331C312.914 37.4938 312.754 37.5204 313.594 37.0143C314.714 36.3617 315.674 35.5358 316.5 34.5369C316.78 34.1906 316.927 33.7377 317.3 33.458V33.2449L317.18 33.1917ZM158.81 50.893C158.81 50.5467 158.81 50.2936 158.81 50.0406C158.81 49.8541 158.863 49.7076 159.01 49.5877C159.117 49.5078 159.237 49.4146 159.383 49.4678C159.543 49.5344 159.517 49.6943 159.49 49.8274C159.397 50.3469 159.303 50.8797 159.21 51.3991C159.21 51.4657 159.183 51.5323 159.143 51.5989C159.09 51.7188 159.01 51.7587 158.89 51.7188C158.757 51.6921 158.717 51.6122 158.743 51.479C158.77 51.2526 158.797 51.0395 158.81 50.893ZM159.023 55.4082C159.05 55.275 159.077 55.1152 159.103 54.942C159.277 53.7566 159.343 54.0763 160.17 54.3959C160.423 54.4892 160.437 54.5957 160.25 54.8222C159.983 55.1152 159.69 55.3816 159.357 55.608C159.277 55.6746 159.197 55.7545 159.09 55.6879C159.01 55.6346 159.023 55.5414 159.023 55.4082ZM149.478 52.4114C149.131 52.4513 149.064 52.3848 149.144 52.1317C149.184 51.9852 149.251 51.8387 149.331 51.7055C149.491 51.4524 149.518 51.1061 149.811 50.9463C150.091 51.1727 150.344 51.4257 150.544 51.7188C150.678 51.8919 150.624 52.0384 150.411 52.1184C150.064 52.2382 149.731 52.3448 149.478 52.4247V52.4114ZM167.342 48.3623C166.796 49.1748 165.543 50.3069 165.076 50.4401C164.996 50.2803 165.129 50.1871 165.196 50.0805C165.436 49.7608 165.649 49.4279 165.836 49.0816C166.143 48.4556 166.676 48.4023 167.329 48.3623H167.342ZM160.41 44.7928C160.57 44.7794 160.623 44.8593 160.597 44.9792C160.543 45.2456 160.49 45.5253 160.423 45.7917C160.183 46.6974 159.89 47.5765 159.73 48.5088C159.73 48.6021 159.69 48.6687 159.637 48.7486C159.517 48.8951 159.343 49.0549 159.157 48.975C158.93 48.8818 159.077 48.6687 159.117 48.5221C159.45 47.4832 159.69 46.4177 159.837 45.3389C159.837 45.1923 159.903 45.0591 160.01 44.9526C160.117 44.846 160.25 44.7928 160.397 44.7928H160.41ZM154.251 58.2186C154.051 58.2985 153.851 58.3251 153.637 58.2985C153.064 58.2985 153.051 58.2852 152.904 57.7258C152.651 56.7002 152.437 55.6746 152.291 54.6224C152.277 54.5158 152.224 54.3826 152.424 54.2627C152.797 54.8754 152.917 55.5947 153.224 56.234C153.544 56.8867 153.851 57.5393 154.237 58.2053L154.251 58.2186ZM110.535 53.9298C110.882 54.1029 111.162 54.1962 111.468 54.0363C111.548 53.9964 111.628 54.0363 111.708 54.1029C112.508 54.6357 113.082 55.3549 113.455 56.234C113.508 56.3938 113.668 56.5803 113.495 56.7002C113.322 56.8334 113.175 56.6203 113.068 56.5137C112.482 56.0076 111.828 55.6347 111.095 55.4082C110.788 55.3283 110.628 55.1152 110.615 54.7955C110.588 54.5425 110.562 54.2761 110.535 53.9165V53.9298ZM156.157 52.2649C155.784 52.2915 155.624 52.1716 155.53 51.9319C155.45 51.7054 155.37 51.479 155.277 51.2526C155.237 51.186 155.224 51.1061 155.264 51.0262C155.29 50.9463 155.357 50.893 155.437 50.8797C155.97 50.6799 156.504 50.4801 157.037 50.2803C157.184 50.2004 157.317 50.227 157.41 50.3735C157.637 50.7998 157.837 51.2393 157.997 51.6921C158.023 51.7587 158.023 51.812 157.997 51.8653C157.957 51.9186 157.917 51.9452 157.85 51.9585C157.264 52.0651 156.664 52.1716 156.184 52.2649H156.157ZM167.302 50.3602C167.276 50.2936 167.302 50.2404 167.369 50.2137C168.049 49.8008 168.716 49.3613 169.396 48.9617C169.742 48.7752 170.102 48.6154 170.475 48.4689C170.649 48.389 170.822 48.3756 170.929 48.5754C171.222 49.1482 171.542 49.6942 171.875 50.2403C171.982 50.4135 171.875 50.5067 171.715 50.52C171.529 50.5334 171.342 50.5334 171.142 50.5067C170.729 50.4401 170.316 50.4135 169.902 50.4268C169.196 50.4268 168.489 50.4268 167.782 50.4268C167.622 50.4268 167.436 50.4801 167.302 50.3735V50.3602ZM159.73 51.2659C159.837 50.7731 159.93 50.2803 160.037 49.8008C160.13 49.3613 160.197 49.2947 160.65 49.2547C160.783 49.2547 160.93 49.2547 161.063 49.268C161.636 49.308 162.21 49.2814 162.77 49.2148C163.476 49.1082 164.169 48.975 164.863 48.8152C164.983 48.7885 165.116 48.7353 165.209 48.8418C165.303 48.9617 165.209 49.0683 165.143 49.1748C164.916 49.5611 164.689 49.9473 164.463 50.3336C164.343 50.5334 164.183 50.6266 163.956 50.6266C163.276 50.7332 162.596 50.893 161.943 51.1061C161.33 51.2926 160.69 51.3458 160.077 51.519C159.863 51.5723 159.73 51.4924 159.73 51.2526V51.2659ZM158.663 54.1296C158.663 54.1962 158.637 54.2628 158.637 54.3294C158.49 55.5148 158.33 56.6869 158.09 57.859C157.992 58.374 157.681 58.5915 157.157 58.5116C156.744 58.4583 156.61 58.3251 156.557 57.9255C156.49 57.4461 156.45 56.9666 156.437 56.4871C156.437 55.5148 156.304 54.5558 156.05 53.6234C155.93 53.1839 156.024 53.0773 156.464 53.1573C157.144 53.3038 157.797 53.5036 158.45 53.7699C158.637 53.8232 158.703 53.9431 158.663 54.1429V54.1296ZM109.882 49.934C110.002 49.9606 110.042 49.9606 110.068 49.9739C110.988 50.7331 111.935 51.4524 112.922 52.1184C113.335 52.3847 113.695 52.6911 114.015 53.064C114.335 53.4503 114.535 53.8898 114.375 54.3959C114.241 54.8088 114.095 55.2084 113.948 55.6213C113.908 55.7279 113.895 55.8744 113.748 55.8877C113.601 55.8877 113.561 55.7545 113.495 55.6613C113.135 55.022 112.655 54.4892 112.068 54.0363C111.895 53.9165 111.788 53.7433 111.735 53.5435C111.548 52.8776 111.322 52.7577 110.655 52.9575C110.495 52.9974 110.442 52.9708 110.402 52.8243C110.162 51.8919 110.068 50.9329 109.895 49.934H109.882ZM157.17 49.4145C157.197 49.7875 157.17 49.8274 156.904 49.9074C156.41 50.0672 155.917 50.2137 155.41 50.3602C155.01 50.4668 154.89 50.4268 154.677 50.0805C154.264 49.4412 153.851 48.8019 153.251 48.3224C152.957 48.0959 153.024 47.9095 153.371 47.7496C154.011 47.4833 154.624 47.1769 155.237 46.8439C155.57 46.6575 155.917 46.5109 156.277 46.3778C156.624 46.2312 156.77 46.3111 156.904 46.6841C156.997 46.9238 157.05 47.1769 157.064 47.4433C157.09 48.1359 157.024 48.8285 157.197 49.4145H157.17ZM161.503 60.5894C161.383 59.9501 160.97 59.7103 160.53 59.4706C160.01 59.2042 159.463 58.9778 158.903 58.8046C158.557 58.6848 158.49 58.5915 158.53 58.2852C158.583 57.8457 158.663 57.3928 158.743 56.9533C158.783 56.7535 158.877 56.607 159.05 56.4871C159.65 56.0342 160.237 55.5947 160.81 55.1152C161.076 54.8621 161.356 54.8355 161.663 55.022C162.25 55.315 162.876 55.5281 163.49 55.7812C163.81 55.9144 164.143 56.0342 164.449 56.1674C164.689 56.274 164.716 56.3939 164.583 56.6203C164.529 56.7002 164.463 56.7801 164.383 56.86C163.823 57.4993 163.33 58.1786 162.916 58.9245C162.543 59.5239 162.05 59.99 161.503 60.5894ZM160.41 48.0826C160.41 48.0826 160.41 48.016 160.423 47.976C160.677 46.9238 160.93 45.8583 161.183 44.8061C161.236 44.5663 161.383 44.4065 161.623 44.3399C162.236 44.0868 162.823 43.8071 163.396 43.4875C164.649 42.7682 165.876 42.049 166.889 40.9834C167.249 40.6105 167.529 40.171 167.849 39.7581C168.089 39.465 168.169 39.465 168.369 39.798C168.556 40.131 168.649 40.5173 168.889 40.8103C169.076 41.0367 169.102 41.2765 168.969 41.5295C168.716 42.2221 168.449 42.9281 168.196 43.6207C168.129 43.8071 168.022 43.9536 167.876 44.0868C167.222 44.6462 166.569 45.219 165.903 45.7651C165.236 46.3112 164.503 46.7907 163.73 47.1769C162.756 47.6564 161.623 47.7496 160.65 48.2691C160.49 48.3623 160.397 48.2558 160.383 48.0826H160.41ZM133.039 60.1632C133.013 59.9901 133.079 59.8569 133.226 59.7636C134.053 59.0577 134.866 58.3251 135.706 57.6459C136.026 57.3795 136.306 57.0731 136.626 56.8067C137.786 55.9143 138.892 54.942 139.932 53.8898C140.092 53.7167 140.279 53.5435 140.465 53.397C141.079 52.8909 141.639 52.3314 142.145 51.7188C143.012 50.6799 143.772 49.5744 144.438 48.4023C145.038 47.39 145.585 46.3511 146.051 45.2722C146.105 45.0591 146.225 44.886 146.385 44.7528C146.518 44.9393 146.611 45.1524 146.651 45.3788C146.758 45.7384 146.838 46.1247 146.985 46.471C147.531 47.8029 148.184 49.0682 149.211 50.1205C149.331 50.227 149.411 50.3602 149.438 50.52C149.464 50.6799 149.438 50.8264 149.358 50.9729C149.104 51.4524 148.904 51.9452 148.704 52.438C148.638 52.5978 148.531 52.6911 148.371 52.7444C147.718 52.9708 147.078 53.2239 146.425 53.4503C144.638 54.1163 142.905 54.8754 141.199 55.7279C140.172 56.234 139.172 56.7934 138.172 57.3262C136.919 57.9922 135.679 58.6714 134.439 59.3507C133.986 59.6038 133.546 59.8702 133.066 60.1499L133.039 60.1632ZM191.033 63.1068C191.113 62.8137 190.9 62.6406 190.74 62.4808C189.993 61.7482 189.447 60.8558 188.78 60.07C187.5 58.5649 186.26 57.0465 184.967 55.568C184.274 54.7822 183.461 54.0896 182.741 53.3171C181.354 51.8253 179.741 50.6133 178.181 49.3213C176.995 48.349 175.755 47.4433 174.502 46.5242C174.222 46.3245 174.208 46.2712 174.422 45.9782C175.355 44.6196 176.515 43.5008 177.888 42.6084C178.155 42.4485 178.435 42.3154 178.728 42.2088C178.835 42.1689 178.995 42.1289 178.941 41.9691C178.901 41.8226 178.741 41.8359 178.621 41.8625C178.181 41.9557 177.728 41.9291 177.288 42.0756C177.035 42.1688 176.781 42.2221 176.515 42.2488C176.515 41.9824 176.661 41.8359 176.741 41.6494C176.875 41.3297 177.035 41.0234 177.141 40.6904C177.301 40.2109 177.141 40.0244 176.648 39.9845C175.915 39.9445 175.195 40.0378 174.502 40.2775C172.809 40.8369 171.249 41.6361 169.796 42.675C169.516 42.8748 169.222 43.0479 168.969 43.2344C168.849 43.1678 168.849 43.1012 168.876 43.0346C169.036 42.6084 169.196 42.1955 169.342 41.7693C169.396 41.5695 169.529 41.4763 169.729 41.5162C170.662 41.5429 171.515 41.1832 172.395 40.9168C172.622 40.8769 172.769 40.7437 172.835 40.5173C172.915 40.2775 173.062 40.0911 173.289 39.9712C173.635 39.7314 173.795 39.4118 173.782 38.9989C173.822 38.2929 173.662 37.627 173.329 37.001C173.222 36.8012 173.155 36.5881 173.142 36.3616C173.142 36.2684 173.142 36.1885 173.115 36.1086C172.902 35.4293 172.542 35.1496 171.889 35.4826C171.529 35.6691 171.155 35.6691 170.795 35.4826C170.409 35.3094 170.009 35.2961 169.609 35.416C169.209 35.5492 168.889 35.8022 168.676 36.1618C168.582 36.3084 168.516 36.4682 168.436 36.628C168.196 37.1475 168.196 37.1209 167.662 37.0543C166.596 36.9077 165.529 36.8811 164.476 37.1875C164.316 37.2407 164.143 37.2807 163.97 37.3073C163.503 37.3872 163.463 37.3339 163.61 36.9077C163.876 36.1618 164.116 35.4027 164.449 34.6701C165.076 33.2849 165.556 31.8331 166.303 30.5012C166.676 29.9018 166.996 29.2625 167.262 28.6098C167.342 28.3834 167.489 28.2768 167.742 28.41C168.089 28.6098 168.449 28.5965 168.782 28.3834C168.876 28.3301 168.969 28.3035 169.076 28.3035C169.662 28.3168 170.142 27.9971 170.622 27.7441C171.062 27.5043 171.435 27.1447 171.395 26.5587C171.395 26.3988 171.462 26.2523 171.582 26.1458C171.942 25.7195 171.902 25.2134 171.849 24.7073C171.795 24.5075 171.675 24.361 171.489 24.2944C171.129 24.1212 170.942 23.8282 170.915 23.442C170.849 22.9225 170.409 22.5895 169.876 22.5363C169.502 22.4963 169.116 22.4829 168.742 22.4696C168.449 22.4563 168.196 22.5496 167.996 22.776C167.622 23.1889 167.169 23.5085 166.636 23.7083C166.169 23.8681 166.009 24.2677 165.969 24.7206C165.943 25.0269 165.969 25.3466 165.903 25.653C165.863 25.8794 165.916 26.0659 166.076 26.239C166.503 26.7718 166.809 27.3445 167.023 27.9971C167.076 28.157 167.049 28.3035 166.956 28.4367C166.716 28.8762 166.463 29.3024 166.223 29.7553C165.623 30.9274 165.076 32.1128 164.556 33.3248C164.036 34.5635 163.53 35.8156 163.063 37.0809C162.93 37.5471 162.623 37.8534 162.17 37.9866C161.476 38.2263 161.503 38.253 161.49 37.5337C161.49 36.5215 161.37 35.5092 161.116 34.5236C160.797 33.2982 160.757 32.0595 161.01 30.8208C161.09 30.3547 161.09 29.8885 161.01 29.4356C160.823 28.1437 160.423 26.9183 159.81 25.7595C159.383 24.9737 159.09 24.1479 158.943 23.2688C158.93 23.1756 158.917 23.0956 158.89 23.0157C158.863 22.9358 158.863 22.8293 158.743 22.8293C158.637 22.8293 158.61 22.9225 158.597 23.0024C158.357 24.028 158.17 25.0536 158.383 26.1324C158.73 27.8506 158.437 29.5289 157.97 31.1938C157.81 31.7798 157.624 32.3526 157.464 32.9386C157.184 33.9775 157.13 35.0164 157.304 36.0686C157.517 37.3073 157.477 38.5327 157.184 39.7581C157.077 40.2775 156.797 40.6771 156.33 40.9302C155.024 41.6894 153.931 42.675 153.037 43.8871C152.984 43.9537 152.931 44.0202 152.864 44.0735C152.837 44.0868 152.797 44.1135 152.771 44.1135C152.624 44.0602 152.664 43.9536 152.677 43.8604C152.757 43.0746 152.904 42.2887 153.104 41.5162C153.184 41.2498 153.064 40.9301 153.291 40.7304C153.491 40.5439 153.797 40.6904 154.037 40.6105C154.477 40.4773 154.917 40.3042 155.144 39.838C155.304 39.545 155.504 39.2919 155.73 39.0522C155.93 38.8257 156.037 38.5593 156.077 38.2663C156.17 37.6803 156.29 37.1075 156.41 36.5348C156.57 35.7756 156.317 35.2828 155.584 35.043C155.277 34.9232 154.984 34.7767 154.717 34.6035C154.024 34.1906 153.277 33.9242 152.451 34.2572C152.237 34.3371 152.024 34.3904 151.797 34.417C151.677 34.417 151.557 34.4703 151.464 34.5502C151.144 34.8832 150.704 35.083 150.384 35.4293C150.091 35.7356 149.878 36.042 150.011 36.4815C150.051 36.708 150.024 36.9344 149.931 37.1342C149.771 37.5338 149.824 37.9067 150.078 38.253C150.331 38.6259 150.558 39.0122 150.824 39.3718C151.011 39.6515 151.238 39.8779 151.531 40.0378C151.651 40.1044 151.757 40.1843 151.837 40.3042C151.997 40.5706 152.224 40.6904 152.531 40.6638C152.784 40.6371 152.837 40.7703 152.797 40.9834C152.744 41.2232 152.704 41.4629 152.637 41.6893C152.304 42.9147 152.157 44.1667 151.917 45.4054C151.851 45.7651 151.731 46.1114 151.557 46.431C151.437 46.6841 151.318 46.7107 151.051 46.5775C150.944 46.5243 150.851 46.4577 150.758 46.3644C150.064 45.5786 149.384 44.7661 148.651 44.0069C148.584 43.927 148.531 43.8338 148.504 43.7405C148.264 42.9414 147.918 42.1822 147.745 41.3697C147.705 41.1832 147.718 40.9968 147.798 40.8103C148.224 39.545 148.531 38.253 148.731 36.9344C148.904 35.9088 148.878 34.8699 148.904 33.831C148.904 32.7521 148.784 31.6999 148.558 30.6477C148.544 30.5411 148.518 30.4479 148.478 30.3413C148.371 30.0483 148.225 29.9817 147.971 30.1282C147.771 30.2348 147.598 30.368 147.425 30.5145C145.438 32.2327 143.638 34.0974 142.238 36.335C141.599 37.3606 140.945 38.3729 140.279 39.3851C139.852 40.0378 139.585 40.7836 139.265 41.4896C138.639 42.8748 138.106 44.2999 137.612 45.7384C137.346 46.6042 137.132 47.4699 136.959 48.349C136.892 48.6686 136.826 48.9883 136.746 49.308C136.652 49.6676 136.559 49.7342 136.239 49.601C134.959 49.0815 133.626 48.8152 132.293 48.5221C131.88 48.4023 131.453 48.349 131.013 48.3357C130.613 48.3357 130.226 48.4289 129.866 48.6154C129.546 48.7486 129.226 48.8551 128.893 48.9484C128.453 49.0682 128.04 49.2281 127.64 49.4279C127.387 49.5611 127.267 49.4811 127.32 49.2014C127.4 48.7885 127.373 48.3757 127.427 47.9628C127.587 46.6175 127.48 45.2723 127.493 43.927C127.493 43.5674 127.387 43.5141 127.027 43.5674C126.827 43.594 126.64 43.7272 126.427 43.634C126.36 43.4875 126.467 43.4475 126.547 43.3942C127.387 42.7948 128.293 42.342 129.293 42.0756C130.386 41.7693 131.36 41.1832 132.319 40.6105C132.746 40.3441 133.159 40.0644 133.559 39.7581C134.373 39.1454 134.986 38.3462 135.546 37.5204C136.199 36.5881 136.759 35.5891 137.226 34.5502C137.599 33.6712 137.972 32.8054 138.319 31.913C138.572 31.247 138.639 30.5411 138.732 29.8352C138.919 28.1303 139.199 26.4521 139.559 24.7739C139.825 23.6551 140.359 22.6428 140.919 21.6438C141.092 21.3775 141.292 21.151 141.545 20.9513C142.252 20.2853 143.065 19.7392 143.732 19.0333C143.865 18.9267 143.972 18.7935 144.052 18.647C143.932 18.4872 143.825 18.5937 143.718 18.6337C143.105 18.9134 142.518 19.233 141.918 19.5527C141.265 19.9123 140.692 20.3918 139.999 20.6849C139.919 20.7248 139.852 20.7648 139.759 20.7914C138.572 21.0578 137.612 21.8037 136.559 22.3498C135.626 22.8426 134.653 23.2688 133.706 23.7216C133.053 24.0413 132.426 24.4143 131.853 24.8538C131.213 25.3466 130.533 25.7994 129.973 26.4121C129.173 27.2512 128.44 28.1437 127.8 29.116C127.493 29.5955 127.133 30.035 126.867 30.5411C126.28 31.62 126.013 32.7921 125.734 33.9775C125.4 35.3494 125.214 36.7612 124.747 38.1065C124.454 38.9456 123.987 39.6915 123.64 40.5039C123.16 41.6094 122.894 42.7682 122.84 43.967C122.84 44.2866 122.721 44.5663 122.494 44.7928C122.147 45.1524 121.881 45.5786 121.441 45.8583C121.281 45.9515 121.147 46.0448 120.974 45.9249C120.787 45.805 120.827 45.6319 120.881 45.4587C121.014 45.0059 121.241 44.593 121.307 44.1268C121.361 43.8338 121.387 43.5407 121.387 43.2477C121.387 41.8625 121.534 40.4906 121.841 39.1454C122.054 38.1065 122.267 37.0409 122.214 35.9621C122.174 34.4703 121.881 33.0185 121.374 31.6067C121.081 30.8475 120.601 30.1815 120.201 29.4756C119.681 28.5166 119.041 27.6375 118.494 26.6919C117.868 25.613 117.454 24.4542 117.521 23.1489C117.561 22.1766 117.548 21.2176 117.841 20.272C117.974 19.7259 118.214 19.2331 118.561 18.7935C118.721 18.5804 118.854 18.354 118.974 18.1009C118.788 17.9677 118.748 18.1009 118.681 18.1675C118.121 18.6603 117.814 19.3396 117.481 19.9656C116.908 21.0445 116.135 21.9768 115.441 22.9624C114.815 23.8415 114.335 24.7872 114.001 25.8128C113.508 27.3445 113.175 28.9162 113.002 30.5145C112.975 30.6876 112.975 30.8608 112.975 31.0339C113.042 32.3259 113.241 33.6046 113.601 34.8566C114.095 36.6547 114.975 38.2796 115.708 39.9845C116.175 41.05 116.734 42.0623 117.414 43.008C117.908 43.7139 118.454 44.3798 119.268 44.7794C119.694 44.9925 119.987 45.3655 120.281 45.7384C120.561 46.0847 120.441 46.471 120.027 46.8173C119.534 47.2435 119.028 47.6697 118.548 48.1226C118.254 48.3756 118.001 48.6554 117.774 48.9617C117.628 49.2014 117.414 49.3213 117.134 49.308C116.415 49.3213 116.148 49.7475 116.335 50.4535C116.388 50.5866 116.375 50.7198 116.308 50.853C115.721 51.6788 115.215 52.5579 114.788 53.4769C114.575 53.4769 114.588 53.3171 114.548 53.2106C114.428 52.811 114.335 52.4114 114.188 52.0118C114.055 51.6921 114.055 51.3725 114.161 51.0528C114.295 50.5733 114.388 50.0805 114.428 49.5744C114.428 49.4012 114.455 49.2281 114.508 49.0682C114.801 48.389 114.855 47.6697 115.001 46.9638C115.055 46.6575 115.175 46.4576 115.495 46.391C115.855 46.3244 116.055 46.098 116.068 45.7384C116.148 45.4321 116.068 45.179 115.788 45.0059C115.521 44.846 115.255 44.846 114.988 45.0059C114.868 45.0591 114.788 45.1524 114.748 45.2722C114.708 45.3921 114.708 45.512 114.748 45.6319C115.028 46.431 114.615 47.1503 114.521 47.9095C114.521 47.9894 114.495 48.0959 114.388 48.1092C114.295 48.1226 114.241 48.0426 114.188 47.976C114.041 47.7363 113.935 47.4833 113.855 47.2169C113.575 46.3245 113.415 45.4055 113.361 44.4731C113.335 44.2467 113.401 44.0469 113.575 43.8737C113.908 43.5274 113.908 43.2477 113.655 42.968C113.548 42.8348 113.415 42.7682 113.255 42.7549C113.095 42.7416 112.948 42.7816 112.815 42.8881C112.695 42.9813 112.615 43.1012 112.588 43.2477C112.562 43.3942 112.588 43.5408 112.668 43.6739C112.708 43.7539 112.762 43.8204 112.828 43.8737C113.002 44.0336 113.082 44.2334 113.068 44.4731C113.122 45.6718 113.361 46.8306 113.815 47.9494C113.895 48.1758 113.975 48.4023 114.055 48.6287C114.281 49.1482 114.281 49.6676 114.055 50.2004C113.948 50.4268 114.121 50.8264 113.801 50.853C113.575 50.8797 113.561 50.4801 113.441 50.2803C112.975 49.5344 112.535 48.7752 112.042 48.0293C111.628 47.4033 111.268 46.7507 110.975 46.0714C110.802 45.7917 110.815 45.512 111.015 45.2456C111.162 45.0458 111.188 44.8327 111.082 44.6063C110.935 44.2067 110.628 44.0202 110.295 44.1268C110.095 44.1934 109.949 44.3133 109.855 44.4997C109.762 44.6862 109.749 44.8727 109.802 45.0725C109.882 45.3255 110.055 45.4853 110.295 45.5653C110.522 45.6452 110.682 45.7917 110.762 46.0181C111.415 47.4965 112.148 48.9084 113.002 50.2803C113.295 50.7465 113.521 51.2526 113.695 51.7854C113.748 51.9053 113.761 52.0251 113.721 52.145C113.668 52.145 113.601 52.145 113.575 52.145C112.642 51.4391 111.588 50.8797 110.695 50.1071C110.495 49.934 110.322 49.7475 110.135 49.5744C109.895 49.3613 109.749 49.1481 109.909 48.8152C109.989 48.5887 109.922 48.4023 109.735 48.2558C109.495 47.9761 109.362 47.6431 109.349 47.2701C109.229 46.2046 109.042 45.1524 108.789 44.1135C108.735 43.9004 108.695 43.6739 108.669 43.4475C108.429 42.1422 108.069 40.8636 107.602 39.6115C107.189 38.4528 106.669 37.3473 106.202 36.2151C105.896 35.4693 105.656 35.4426 105.136 36.0819C104.856 36.4282 104.536 36.7479 104.229 37.0809C103.576 37.8268 103.096 38.6792 102.563 39.5183C101.389 41.3697 100.789 43.4475 100.19 45.5253C99.8562 46.6708 99.5229 47.8162 99.1496 48.9484C98.8697 49.8807 98.7097 50.8264 98.6564 51.7987C98.5897 52.5712 98.5364 53.3437 98.4297 54.1163C98.3364 54.7156 98.2964 55.3283 98.2697 55.9144C98.1631 58.0055 98.0964 60.0966 98.1497 62.1877C98.1497 62.4808 98.2164 62.7738 98.2431 63.0668H111.242C111.415 62.3875 111.442 61.7082 111.308 61.0156C111.082 59.364 111.082 57.6725 110.802 56.0209C110.735 55.6346 110.842 55.568 111.175 55.7279C111.668 55.9676 112.135 56.274 112.615 56.5404C113.321 56.94 113.415 57.4727 113.295 58.1786C113.055 59.5105 112.962 60.8425 113.002 62.2011C113.002 62.4941 113.042 62.7871 113.108 63.0668L122.974 63.0668C123.854 61.4152 124.574 59.697 125.16 57.9255C125.267 57.6059 125.534 57.526 125.814 57.4994C126.6 57.3928 127.373 57.2196 128.16 57.0598C129.493 56.7801 130.626 56.1008 131.733 55.3416C132.373 54.9021 132.866 54.2761 133.466 53.7833C134.159 53.1972 134.919 52.7444 135.746 52.3981C136.039 52.2782 136.132 52.3581 136.079 52.6777C135.986 53.1839 135.879 53.69 135.746 54.1962C135.546 54.982 135.279 55.7545 134.946 56.4871C134.119 58.2186 132.853 59.6437 131.533 61.0156C131.426 61.1222 131.306 61.2287 131.173 61.3087C130.56 61.7349 129.946 62.1478 129.333 62.574C129.146 62.7072 128.96 62.8271 128.907 63.0668H129.733C130.266 62.5074 130.96 62.1611 131.613 61.7748C133.199 60.8292 134.826 59.9368 136.412 58.9911C138.639 57.6991 140.932 56.5137 143.278 55.4482C145.078 54.5957 146.905 53.8232 148.784 53.1573C149.491 52.8909 150.211 52.771 150.958 52.7843C151.624 52.811 151.837 53.0107 151.864 53.69C151.877 54.1562 151.864 54.6224 151.917 55.0886C152.051 56.0342 152.224 56.9666 152.477 57.8856C152.557 58.2053 152.517 58.2586 152.197 58.2852C152.131 58.2852 152.064 58.2852 151.984 58.2852C151.051 58.2452 150.118 58.3918 149.184 58.4184C148.638 58.4184 148.078 58.4583 147.531 58.5249C146.025 58.7114 144.518 58.9112 143.012 59.1243C142.225 59.2176 141.439 59.3774 140.679 59.6171C138.266 60.3896 136.079 61.6949 133.759 62.6805C133.599 62.7471 133.426 62.8271 133.479 63.0535H160.81C160.916 62.8936 161.063 62.7738 161.25 62.7072C162.063 62.3209 162.85 61.908 163.623 61.4419C164.263 61.0556 164.929 60.6826 165.423 60.1366C166.156 59.3108 167.009 58.6048 167.729 57.7657C168.036 57.3928 168.422 57.2729 168.889 57.3928C170.262 57.6459 171.635 57.9389 173.035 58.0454C173.608 58.0854 174.168 58.2319 174.742 58.1653C175.835 58.0455 176.955 58.0721 178.021 57.7524C178.221 57.6858 178.395 57.7258 178.555 57.8723C178.995 58.2319 179.515 58.4983 179.968 58.8313C181.408 59.9102 183.007 60.7359 184.594 61.5884C185.607 62.1478 186.7 62.5473 187.74 63.0535H191.06L191.033 63.1068ZM46.1952 58.9112C46.8485 59.4307 47.4084 59.8702 47.9684 60.323C48.075 60.4163 48.1017 60.5362 48.035 60.656C47.9817 60.8025 47.9283 60.9491 47.8617 61.0823C47.835 61.1622 47.795 61.2154 47.7151 61.2554C47.635 61.282 47.5551 61.2687 47.4884 61.2154C47.1284 61.0423 46.7818 60.8558 46.4218 60.6826C46.2752 60.6294 46.1952 60.5228 46.1952 60.363C46.1952 59.9235 46.1019 59.4706 46.1952 58.9112ZM62.8068 47.1902C62.8068 47.1902 62.8868 47.2435 62.9001 47.2968C63.0468 48.0427 63.2068 48.7752 63.3401 49.5211C63.4067 49.8674 63.3134 49.934 62.9801 49.8008C62.5268 49.6277 62.1002 49.4145 61.6336 49.268C61.3803 49.1881 61.3536 49.0816 61.5403 48.8418C61.9402 48.3091 62.3668 47.7896 62.7135 47.2169C62.7135 47.1902 62.7668 47.1902 62.7935 47.1769L62.8068 47.1902ZM53.3145 59.9767C53.2878 60.07 53.2478 60.2165 53.1945 60.363C53.0078 60.8292 52.8079 61.282 52.6212 61.7482C52.5545 61.8947 52.4879 62.0279 52.4079 62.1611C52.3812 62.241 52.3146 62.2943 52.2346 62.3076C52.1546 62.3209 52.0746 62.3076 52.0213 62.241C51.6613 61.9746 51.3013 61.7082 50.9414 61.4285C50.8614 61.3886 50.8214 61.322 50.8214 61.2287C50.8214 61.1488 50.8481 61.0689 50.9147 61.029C51.448 60.4962 51.9413 59.9101 52.3679 59.2841C52.4346 59.1509 52.5412 59.111 52.6745 59.1376C53.0078 59.3241 53.2212 59.6038 53.3145 59.9634V59.9767ZM32.4633 45.3788C33.1033 45.8849 33.6765 46.3511 34.2498 46.804C35.0897 47.4699 35.8763 48.2025 36.8228 48.7219C37.3428 49.0016 37.8628 49.3213 38.4494 49.3613C38.7027 49.3479 38.8893 49.4545 38.9826 49.6942C40.0625 51.6655 41.3557 53.4636 42.8756 55.1152C42.9289 55.1685 43.0489 55.2217 42.9822 55.3549C40.2758 53.2904 32.8366 46.3778 32.45 45.3788H32.4633ZM46.0752 53.2505C46.1685 53.2905 46.2352 53.2905 46.2619 53.3171C47.1284 54.1828 48.0084 55.0486 48.8749 55.9144C49.0349 56.0742 49.0882 56.2607 49.0082 56.4871C48.9149 56.86 48.8216 57.2196 48.7416 57.5926C48.6349 58.0987 48.595 58.6182 48.4883 59.1243C48.4083 59.4973 48.315 59.5239 48.0084 59.2974C47.4617 58.8979 46.9418 58.485 46.3952 58.0721C46.1819 57.9256 46.0752 57.7125 46.0886 57.4461C46.0886 56.0742 46.0886 54.689 46.0886 53.2505H46.0752ZM55.9275 45.552C55.7675 45.4987 55.7675 45.3921 55.7409 45.2856C55.3943 44.0469 54.9676 42.8481 54.4344 41.6893C54.1144 40.9967 53.8077 40.2642 53.1812 39.7581C53.0078 39.6116 52.9278 39.4384 52.9278 39.212C52.9278 38.8524 52.7812 38.5726 52.4612 38.3995C52.1946 38.2396 52.0746 38.0132 52.1013 37.6936C52.1013 37.4272 52.0213 37.1875 51.8613 36.9743C51.608 36.628 51.408 36.2418 51.1281 35.9088C50.8347 35.6024 50.6881 35.2428 50.6881 34.8299C50.7414 33.8843 50.808 32.9386 50.8614 31.9929C50.8614 31.873 50.8747 31.7532 50.928 31.6466C51.248 31.1671 51.248 30.5944 51.368 30.0616C51.408 29.8885 51.4347 29.7286 51.488 29.5555C51.528 29.4223 51.6613 29.3424 51.768 29.4623C52.0479 29.7686 52.5812 29.9551 52.3279 30.5411C52.3146 30.6077 52.3279 30.6743 52.3279 30.7409C52.4612 31.7532 52.5146 32.7655 52.5012 33.7777C52.5012 34.1507 52.6079 34.4836 52.8212 34.79C53.1411 35.2561 53.4878 35.709 53.5811 36.295C53.6078 36.4016 53.6744 36.4815 53.7678 36.5348C54.2877 36.921 54.7943 37.3473 55.5276 37.3206C55.8875 37.3206 55.9409 37.3872 55.9409 37.7602C55.9409 38.5327 56.0075 39.3185 56.0342 40.0911C56.0875 41.7293 56.0475 43.3809 56.0475 45.0192C56.0475 45.179 56.0875 45.3655 55.9409 45.5253L55.9275 45.552ZM56.6341 46.1646C56.5541 46.0048 56.5408 45.845 56.5941 45.6851C56.6741 45.2456 56.7008 44.7928 56.6741 44.3399C56.6474 42.9414 56.6075 41.5562 56.5674 40.1576C56.5674 40.0244 56.5275 39.8779 56.5141 39.7447C56.4608 39.1054 56.3941 38.4794 56.3675 37.8401C56.3542 37.5071 56.4208 37.4805 56.7408 37.5471C57.0074 37.6003 57.314 37.6803 57.4874 37.4805C57.9006 37.001 58.5406 36.9078 58.9939 36.5215C59.0872 36.4416 59.1672 36.3617 59.2472 36.2684C59.5405 35.9488 59.8204 35.6291 60.1137 35.2961C60.2204 35.1629 60.3537 35.1096 60.527 35.1229C60.7537 35.1229 60.9536 35.1896 61.1136 35.3494C61.287 35.4959 61.3803 35.6824 61.407 35.9088C61.4336 36.1352 61.4469 36.3616 61.4469 36.5747C61.4469 36.8678 61.4469 37.1608 61.4869 37.4538C61.6869 38.6659 61.7936 39.8913 62.0336 41.09C62.0735 41.2232 62.0602 41.3697 62.0069 41.5029C61.7002 42.049 61.6736 42.7682 60.967 43.0346C60.3804 43.7006 59.6472 44.1934 58.9805 44.7661C58.2873 45.3522 57.594 45.9515 56.6341 46.1646ZM35.663 33.791C36.4229 35.669 37.1428 37.5071 38.0094 39.3052C38.876 41.09 39.7559 42.8748 40.6758 44.6329C41.2624 45.7518 41.9423 46.8173 42.5956 47.8961C43.4088 49.2281 44.2087 50.56 45.0887 51.8387C45.262 52.0917 45.3553 52.3581 45.3553 52.6645C45.3553 53.8898 45.3553 55.1152 45.3553 56.3406C45.3553 56.4471 45.3953 56.5936 45.2353 56.6469C45.0887 56.607 45.022 56.4871 44.9153 56.3938C44.1688 55.7412 43.6088 54.9154 42.9689 54.1828C42.2223 53.3437 41.5957 52.3981 40.9024 51.519C40.1559 50.5733 39.5692 49.5477 39.116 48.4422C38.756 47.5632 38.4227 46.6708 38.0361 45.805C37.6228 44.8993 37.1828 43.9936 36.8228 43.0612C36.3163 41.7426 35.8363 40.4107 35.4497 39.0388C35.1297 37.88 34.9164 36.6813 34.6498 35.5092C34.5831 35.2162 34.5431 34.9631 34.9164 34.8433C35.0364 34.8033 35.0897 34.6834 35.143 34.5769C35.303 34.3105 35.5163 34.0841 35.6763 33.8044L35.663 33.791ZM24.4108 46.2978C24.4642 46.2046 24.5575 46.2179 24.6375 46.2179C25.584 46.178 26.5306 46.2978 27.4772 46.3644C27.9971 46.4044 28.5171 46.3644 29.0237 46.431C30.0103 46.5376 30.9835 46.5509 31.97 46.471C32.21 46.431 32.41 46.5109 32.5566 46.7107C33.3299 47.6564 34.2098 48.5088 35.063 49.3879C36.4762 50.853 37.9694 52.2515 39.5292 53.5568C40.7824 54.609 42.0356 55.6746 43.3289 56.6735C43.9155 57.1264 44.502 57.5926 45.0753 58.0587C45.2753 58.2186 45.502 58.3917 45.502 58.6848C45.5153 59.111 45.5153 59.5505 45.502 59.9767C45.502 60.2032 45.3686 60.2298 45.182 60.1499C45.0753 60.0966 44.9687 60.0433 44.862 59.9901C44.0621 59.5772 43.2622 59.1642 42.4623 58.7647C41.0491 58.0721 39.6092 57.4461 38.1561 56.8467C37.7561 56.6869 37.4495 56.4205 37.2228 56.0475C36.5162 54.942 35.6763 53.9298 34.7298 53.0107C33.8098 52.1183 32.8366 51.3059 31.7967 50.5467C30.3969 49.5078 28.8904 48.6154 27.3172 47.8562C26.384 47.4033 25.4774 46.8839 24.5442 46.4443C24.4642 46.4044 24.3842 46.3777 24.3842 46.2712L24.4108 46.2978ZM90.4039 58.778L90.3106 58.8712C89.7373 58.4051 89.1507 57.9522 88.5908 57.4727C88.1241 57.0598 87.7242 56.5803 87.2176 56.2074C87.0176 56.0342 86.8576 55.8344 86.7243 55.608C86.111 54.649 85.6044 53.6234 84.9911 52.6511C83.8846 50.9463 82.618 49.3746 81.1915 47.9361C80.1916 46.9105 79.0984 45.9782 77.9385 45.1257C76.8586 44.3266 75.8321 43.4475 74.6456 42.7815C73.1524 41.9424 71.6592 41.1033 69.9927 40.6371C69.6461 40.5706 69.4461 40.3708 69.4061 40.0111C69.2461 39.0655 69.0461 38.1065 68.8595 37.1608C68.7928 36.7745 68.8595 36.668 69.2995 36.668C70.0994 36.6547 70.886 36.628 71.6859 36.5747C72.9791 36.4948 74.2856 36.6147 75.5654 36.3616C75.7388 36.3084 75.9121 36.3217 76.0721 36.3883C76.2454 36.4549 76.3654 36.5747 76.4587 36.7346C76.5654 36.8944 76.6987 37.0276 76.8453 37.1608C77.5652 37.8667 78.1652 38.6659 78.8185 39.4251C79.5517 40.2642 80.085 41.2365 80.7649 42.1023C81.4448 42.9148 82.0581 43.7672 82.6181 44.6596C83.4713 46.0714 84.3779 47.43 85.2045 48.8551C85.9644 50.1338 86.631 51.4524 87.3242 52.771C87.8842 53.8365 88.3774 54.942 88.9641 56.0076C89.4707 56.9133 89.8973 57.859 90.3639 58.778H90.4039ZM93.3636 63.1201C93.3236 62.6006 93.4036 62.0812 93.4169 61.5751C93.4302 60.9491 93.4836 60.3363 93.5769 59.7237C93.6569 59.0044 93.7902 58.2852 94.0035 57.5926C94.1902 56.9799 94.3501 56.3672 94.4835 55.7412C94.5101 55.608 94.5101 55.4615 94.4835 55.3283C94.4568 55.1818 94.4701 55.0486 94.5368 54.9287C94.9634 54.2494 94.9368 53.4636 95.0301 52.7177C95.1501 51.7587 95.2434 50.7998 95.2834 49.8274C95.3367 48.3756 95.4434 46.9238 95.3367 45.4853C95.2034 43.6739 95.1767 41.8625 94.8168 40.0777C94.6035 38.9989 94.3102 37.9333 93.9369 36.8811C93.8302 36.5881 93.7635 36.2817 93.6836 35.9887C93.2703 34.4703 92.7236 32.9919 92.0437 31.58C91.5904 30.6477 91.0572 29.7553 90.6305 28.8096C90.3772 28.2769 90.0573 27.784 89.6973 27.3179C89.164 26.572 88.6974 25.7861 88.1108 25.0802C87.5509 24.4142 87.0176 23.735 86.471 23.0823C86.1777 22.736 86.071 22.7627 85.8444 23.1623C85.6444 23.5352 85.5378 23.9348 85.5111 24.3477C85.4577 25.0003 85.3244 25.6529 85.2311 26.2923C85.0045 27.7707 85.0178 29.2492 85.2311 30.7276C85.3911 31.7798 85.4711 32.8587 85.5911 33.9242C85.6044 34.0574 85.6044 34.2039 85.6311 34.3371C86.0177 36.2684 86.2043 38.2397 86.5376 40.171C86.631 40.7171 86.7643 41.2498 86.9376 41.7826C87.2576 42.7149 87.4576 43.6873 87.7242 44.6329C88.0842 45.8983 88.3908 47.1769 88.9107 48.3889C89.3374 49.3612 89.604 50.3735 89.9639 51.3725C90.5772 53.0374 91.1905 54.7156 91.8304 56.3672C92.3637 57.7524 92.8036 59.1776 92.857 60.6826C92.857 61.0023 93.0303 61.3087 92.857 61.6816C92.5237 61.2687 92.257 60.8158 92.0571 60.3097C91.6971 59.444 91.2305 58.6315 90.8305 57.7924C89.964 56.0076 89.0041 54.2628 88.2041 52.438C87.8708 51.6788 87.3775 50.9995 86.9643 50.2803C86.551 49.5877 86.1643 48.8685 85.7511 48.1625C85.1778 47.2035 84.5245 46.2712 83.9113 45.3389C83.4313 44.6196 82.9647 43.9003 82.4581 43.1944C81.7382 42.1822 81.0582 41.1433 80.1916 40.2375C79.5784 39.5849 79.0451 38.8657 78.4585 38.1731C77.5653 37.1208 76.792 35.9621 75.7788 35.0031C75.6055 34.8699 75.5121 34.6834 75.5121 34.457C75.4855 34.0308 75.4988 33.5912 75.5388 33.165C75.7654 31.6333 75.4588 30.1682 74.9789 28.743C74.7256 27.9838 74.4456 27.2513 74.1123 26.5187C73.0191 24.321 71.5925 22.3631 69.8194 20.6449C68.7928 19.606 67.633 18.7402 66.3531 18.0343C65.9131 17.8079 65.7265 17.8612 65.6065 18.354C65.4865 18.8867 65.4732 19.4195 65.5532 19.9523C65.8065 21.8037 66.3531 23.5618 67.193 25.2267C67.233 25.32 67.2863 25.4132 67.353 25.4931C67.8596 26.0126 68.1262 26.6652 68.5129 27.2646C69.3128 28.5699 70.2593 29.742 71.3792 30.7809C72.3258 31.6333 73.1124 32.6056 73.9123 33.5779C74.4056 34.164 74.8855 34.7367 75.3788 35.3227C75.4721 35.4426 75.6188 35.5225 75.5921 35.7623C75.2188 35.5492 74.8189 35.4293 74.5122 35.1629C73.7523 34.4969 73.0457 33.8043 72.3525 33.0718C71.4059 32.0062 70.3927 30.994 69.1128 30.2614C68.0729 29.6754 67.113 28.9694 66.0598 28.3834C65.6998 28.1969 65.4199 27.9039 65.2466 27.5443C64.9532 26.9582 64.5666 26.4654 64.0867 26.0259C64.0067 25.9327 63.9134 25.8794 63.7934 25.8394C63.6867 25.7994 63.5667 25.7995 63.4467 25.8128C63.3267 25.8394 63.2201 25.8794 63.1401 25.9593C63.0468 26.0392 62.9801 26.1325 62.9401 26.239C62.6735 26.8251 62.5935 26.8916 62.0069 26.6652C60.1404 25.9726 58.194 25.6529 56.2475 25.3732C55.1543 25.2267 54.0477 25.1202 52.9412 25.3066C52.5679 25.3466 52.1813 25.3599 51.7946 25.3599C51.5947 25.3599 51.528 25.2667 51.5013 25.0802C51.3547 24.2144 51.2614 23.3354 51.1947 22.4563C51.128 22.0301 51.088 21.6039 51.088 21.1644C51.168 19.7658 51.2747 18.3806 51.728 17.0354C52.1546 15.8366 52.2612 14.6113 52.0479 13.3592C52.0079 13.1328 52.0213 12.9064 52.0079 12.6933C52.0079 12.6 51.968 12.5068 51.8746 12.5068C51.768 12.5068 51.7413 12.6 51.7013 12.68C51.6613 12.7732 51.6346 12.8797 51.608 12.973C51.3413 13.9852 50.8881 14.9176 50.2881 15.77C49.5682 16.7024 48.9683 17.7147 48.4616 18.7802C47.955 19.8457 47.6084 20.9646 47.3817 22.1234C47.3151 22.7494 47.3018 23.362 47.3551 23.988C47.3818 25.3999 46.9685 26.7185 46.4352 27.9971C46.2885 28.3301 46.1419 28.6631 46.0086 28.9961C45.8619 29.3424 45.8086 29.702 45.8353 30.0749C45.342 29.7419 44.9153 29.4623 44.5021 29.1559C43.9821 28.783 43.4755 28.3834 42.9689 28.0105C42.8089 27.8906 42.7022 27.7441 42.6623 27.5443C42.4089 26.5853 42.129 25.6529 41.929 24.6806C41.7423 23.8682 41.5024 23.0823 41.2091 22.3098C40.7558 20.9646 40.2625 19.6326 39.7559 18.314C39.6492 18.0343 39.6759 17.8611 39.9425 17.7146C40.0758 17.648 40.1559 17.5415 40.2092 17.4083C40.4492 16.729 40.8624 16.1696 41.449 15.7434C41.689 15.5569 41.7957 15.3172 41.7823 15.0108C41.7823 14.5447 41.849 14.0785 41.8757 13.6123C41.9023 13.1062 41.6224 12.7466 41.369 12.3736C41.3157 12.3204 41.2624 12.2804 41.1957 12.2538C40.5025 11.8675 39.9425 11.3481 39.5292 10.6688C39.3693 10.429 39.1559 10.2692 38.8626 10.2159C38.4227 10.096 37.9827 10.0427 37.5294 10.0561C37.3428 10.0561 37.1428 10.0561 36.9562 10.0161C36.7562 10.0161 36.5562 10.0428 36.3696 10.136C35.783 10.3225 35.5563 10.7753 35.4097 11.3081C35.3163 11.681 35.0897 11.9208 34.7298 12.0273C34.5831 12.0939 34.4498 12.1605 34.3165 12.2271C34.1298 12.307 34.0098 12.4536 33.9832 12.6667C33.9298 13.013 33.8898 13.3459 33.8499 13.6922C33.8232 13.9853 33.8898 14.2383 34.0632 14.4781C34.2765 14.7311 34.3431 15.0242 34.2765 15.3571C34.2231 15.7301 34.3165 16.0497 34.5698 16.3161C34.8497 16.6758 35.183 16.9688 35.5963 17.1819C35.783 17.2751 35.9563 17.395 36.1163 17.5149C36.2762 17.648 36.4629 17.7546 36.6629 17.8079C37.0628 17.8745 37.4095 18.0476 37.7161 18.3007C38.076 18.5804 38.5027 18.4872 38.8893 18.3007C39.2226 18.1542 39.2759 18.1675 39.3693 18.5005C39.6626 19.7525 40.2492 20.898 40.6225 22.1234C41.0358 23.3754 41.3824 24.6407 41.649 25.9193C41.729 26.2523 41.8357 26.5853 41.9557 26.905C41.9823 26.9849 42.009 27.0781 41.929 27.1447C41.849 27.198 41.769 27.198 41.689 27.1447C41.4357 27.0115 41.1824 26.8517 40.9158 26.7185C39.9159 26.1591 38.8626 25.7195 37.7561 25.4132C37.0228 25.24 36.2896 25.2267 35.543 25.4132C35.3164 25.4531 35.1164 25.5597 34.9564 25.7195C34.7964 25.8794 34.6898 26.0792 34.6498 26.3056C34.6498 26.3589 34.6231 26.4122 34.6097 26.4521C34.5431 26.6386 34.5831 26.8783 34.4098 27.0248C34.2498 27.1714 34.0365 27.0248 33.8632 27.0648C33.7299 27.0648 33.5966 27.1048 33.4632 27.158C32.9433 27.4377 32.4633 27.2646 31.9834 27.0381C31.9167 26.9982 31.8634 26.9716 31.8101 26.9316C30.9968 26.4388 30.2236 26.8384 30.1836 27.7973C30.1836 28.157 30.0502 28.4633 29.8236 28.7297C29.1303 29.5955 28.6637 30.5678 28.7304 31.7265C28.7171 32.1128 28.8637 32.4325 29.1703 32.6722C29.4903 32.912 29.7836 33.1917 29.7969 33.6445C29.8236 33.8044 29.9036 33.9375 30.0502 34.0175C30.1036 34.0574 30.1569 34.0974 30.2236 34.1373C31.0635 34.5103 31.85 34.9764 32.7166 35.2828C33.0633 35.4026 33.4232 35.4559 33.7832 35.4693C34.0232 35.4693 34.1165 35.5758 34.1565 35.7889C34.3431 36.6147 34.5565 37.4272 34.7298 38.2663C35.0231 39.6782 35.4897 41.0234 35.9296 42.3953C36.1296 43.0213 36.3429 43.634 36.5562 44.26C36.7429 44.8194 37.0095 45.3389 37.2495 45.8849C37.6228 46.7374 38.0627 47.5632 38.4094 48.4289C38.4893 48.6021 38.5427 48.8019 38.5427 48.9883C38.1161 48.5621 37.7294 48.1092 37.3561 47.6431C36.7162 46.9371 36.2096 46.1247 35.623 45.3788C35.0497 44.6729 34.4098 44.0602 33.6765 43.5274C33.0233 43.0346 32.3967 42.5285 31.7834 41.9957C31.5168 41.756 31.2768 41.4763 31.0635 41.1832C30.6902 40.7037 30.2769 40.2642 29.9303 39.7714C29.6236 39.3452 29.397 38.8923 29.2637 38.3862C29.077 37.6536 28.837 36.921 28.6237 36.2018C28.3438 35.2561 28.3438 34.2572 28.2238 33.2849C28.0504 31.913 28.1704 30.5278 28.0905 29.1426C28.0771 28.8895 28.1171 28.6231 28.1305 28.3701C28.1704 26.9582 28.0371 25.5464 28.0105 24.1213C27.9305 21.5373 27.5838 18.9933 26.9572 16.4893C26.4773 14.3316 25.864 12.2005 25.1041 10.1227C24.6908 9.05713 24.1842 8.04484 23.5843 7.05922C22.811 5.78056 21.8911 4.62179 20.8246 3.56957C20.0913 2.83701 19.398 2.05119 18.5714 1.42519C18.1048 1.06556 17.6382 0.719238 17.1583 0.359619C17.0116 0.266384 16.8916 0.146523 16.785 1.14441e-05H16.3717C15.8651 0.572742 15.7451 1.3053 15.5584 1.9979C15.3185 2.86366 15.1585 3.74272 15.0785 4.64843C14.9852 5.86048 14.9718 7.05922 15.0518 8.27127C15.1451 9.69644 15.2251 11.1216 15.4251 12.5468C15.5451 13.599 15.7318 14.6246 15.9851 15.6502C16.345 16.9288 16.7983 18.1808 17.3183 19.4062C18.1182 21.3508 18.9447 23.2954 19.8246 25.2134C20.3046 26.3322 20.9045 27.3844 21.6111 28.3701C22.3977 29.4223 23.2643 30.4079 23.9842 31.5001C24.4642 32.2193 24.9708 32.9253 25.4907 33.6046C26.224 34.5902 26.7439 35.709 27.5439 36.6547C27.7172 36.8411 27.8238 37.0676 27.8505 37.334C27.7705 37.3872 27.7038 37.3739 27.6371 37.3073C26.9439 36.8278 26.2506 36.335 25.5441 35.8688C24.6642 35.2961 23.7176 34.8699 22.7177 34.5902C22.4377 34.5103 22.1444 34.457 21.9711 34.1773C21.5445 33.5646 21.1845 32.912 20.9045 32.2327C20.6246 31.3936 20.2646 30.5944 19.8113 29.8352C18.9581 28.4633 18.0115 27.1314 17.0916 25.7994C16.1584 24.4942 15.1451 23.2555 14.0386 22.0834C13.1587 21.0844 12.1988 20.1654 11.1722 19.313C10.4257 18.7269 9.70572 18.1009 8.77249 17.7946C8.02591 17.5548 7.31931 17.2352 6.57269 16.9954C4.77289 16.3694 2.91977 16.103 1.01331 16.1829C0.639984 16.1696 0.293365 16.2762 6.10352e-05 16.5026V17.022C0.160065 17.2218 0.293365 17.4483 0.386688 17.7013C0.786652 18.5937 1.31995 19.3929 1.99985 20.0988C2.8931 21.0711 3.853 21.9635 4.89288 22.7627C6.86603 24.2944 8.99911 25.573 11.2789 26.5986C13.052 27.4244 14.7852 28.3301 16.345 29.5289C16.9316 29.9684 17.4516 30.4745 17.9048 31.0472C18.7581 32.0995 19.7047 33.0585 20.7446 33.9109C21.1312 34.2838 21.5311 34.6301 21.9578 34.9498C22.8243 35.5625 23.5709 36.3084 24.1975 37.1608C25.1041 38.3196 26.104 39.3984 26.8106 40.6904C27.5305 41.9824 28.5304 42.9813 29.8236 43.6872C30.1302 43.8471 30.4102 44.0469 30.6635 44.2866C31.0768 44.7128 31.4501 45.2057 31.8367 45.6718C31.9034 45.7518 32.0233 45.8583 31.9434 45.9915C31.89 46.098 31.7567 46.0581 31.6634 46.0714C31.5568 46.0714 31.4501 46.0714 31.3568 46.0714C30.7835 46.1247 30.2102 45.9382 29.6503 45.9782C28.3838 46.0581 27.2905 45.5786 26.1973 45.0059C25.4374 44.6196 24.8241 44.0069 24.0909 43.594C23.8642 43.5008 23.6642 43.3676 23.4909 43.1944C23.1043 42.7682 22.6777 42.3953 22.2111 42.0623C21.5445 41.5428 20.9445 40.9435 20.2913 40.3974C19.6913 39.8912 19.1714 39.3185 18.5848 38.7991C17.9849 38.2663 17.4516 37.6403 16.8916 37.0543C16.4917 36.628 16.105 36.1885 15.6918 35.7756C14.9585 35.0431 14.2519 34.2838 13.4787 33.5912C12.6387 32.832 11.7589 32.1394 10.8389 31.5134C9.77237 30.7809 8.70581 30.0483 7.47928 29.5821C6.99933 29.3957 6.50604 29.2092 6.01276 29.0627C4.67957 28.6764 3.33304 28.3434 1.9332 28.3301C1.30661 28.3301 1.23993 28.3967 1.23993 29.0094C1.21326 30.5278 1.71988 31.8997 2.45316 33.1917C3.23972 34.5636 4.29294 35.7356 5.38617 36.8678C5.71945 37.2141 6.13278 37.4805 6.46606 37.8401C7.13266 38.546 7.91922 39.1187 8.63916 39.7581C9.50574 40.5306 10.479 41.1566 11.3722 41.9025C12.1988 42.6084 13.0787 43.2477 14.0119 43.8204C14.7052 44.22 15.4118 44.5663 16.1584 44.8593C17.3849 45.3521 18.6381 45.7251 19.9313 45.9782C20.6379 46.1247 21.3445 46.0581 22.0511 46.0581C22.3844 46.0314 22.6244 46.1646 22.771 46.4577C22.8377 46.5909 22.931 46.7241 22.9977 46.8706C23.3709 47.683 23.9042 48.3756 24.3975 49.1082C25.1574 50.227 26.1973 51.0661 27.2505 51.8786C28.1571 52.5979 29.1037 53.2638 30.0369 53.9564C30.1969 54.0763 30.3835 54.1695 30.4102 54.4093C30.3569 54.4226 30.2902 54.4359 30.2369 54.4359C29.3303 54.2894 28.4238 54.1828 27.5038 54.1163C26.5573 54.0363 25.6107 53.9831 24.6642 53.9564C23.211 53.9032 21.7578 53.9431 20.3046 53.9564C20.0779 53.9564 19.8513 53.9697 19.6247 53.9964C18.9847 54.0497 18.3581 54.1429 17.7182 54.1562C16.145 54.2095 14.5852 54.4226 13.052 54.8088C11.2122 55.2351 9.42575 55.8344 7.6926 56.5936C6.23941 57.2196 4.87955 58.0188 3.61301 58.9645C2.94641 59.4573 2.95978 59.6038 3.69302 60.0433C4.18631 60.3097 4.67957 60.5495 5.18619 60.7626C6.77271 61.5351 8.41254 62.1744 10.1057 62.7205C10.479 62.8271 10.8922 62.8803 11.2256 63.1068H41.3557C41.3824 63.0002 41.369 62.907 41.3291 62.8137C41.1424 62.4008 41.1424 62.3875 41.5957 62.3076C42.0623 62.2277 42.5289 62.201 42.9822 62.1344C43.7288 62.0279 44.4621 62.0945 45.2086 62.0812C45.4886 62.0812 45.6086 62.2277 45.6086 62.5074C45.6086 62.7205 45.6353 62.9203 45.7153 63.1201H46.2352C46.2352 62.9336 46.2352 62.7338 46.2352 62.5473C46.2619 62.2676 46.3685 62.1877 46.6352 62.2011C46.7552 62.2144 46.8752 62.241 46.9951 62.281C47.1818 62.3343 47.2617 62.4408 47.1551 62.6273C47.0351 62.7738 47.0085 62.9336 47.0485 63.1201H48.6083C48.7283 62.9469 48.9016 62.827 49.1016 62.7605C49.3149 62.7072 49.5149 62.7205 49.7148 62.8137C49.9415 62.8803 50.1681 62.9869 50.3814 63.1068H51.208C51.1414 62.8271 50.9147 62.7472 50.6881 62.6539C50.4614 62.5607 50.2481 62.4674 50.0215 62.3609C49.9415 62.3209 49.8482 62.281 49.8882 62.1744C49.9282 62.0545 50.0081 62.0013 50.1281 62.0146C50.1948 62.0146 50.2614 62.0279 50.3281 62.0679C50.7947 62.4275 51.3413 62.6539 51.728 63.1201H52.8745C52.9279 62.9336 52.9145 62.7471 52.9945 62.5607C53.2611 61.9213 53.5011 61.282 53.7678 60.6427C53.9277 60.2564 53.9944 60.2431 54.301 60.5362C55.1543 61.2954 55.9008 62.1478 56.5141 63.1068H57.0341C57.0341 62.9203 57.0208 62.7338 56.9941 62.534C56.8474 61.5617 56.7808 60.5761 56.8208 59.5905C56.8341 58.445 57.1807 57.3395 57.1941 56.1941C57.1941 55.5681 57.274 54.9553 57.1807 54.3427C57.1407 54.0496 57.1274 53.7566 57.1407 53.4636C57.1407 53.3038 57.0874 53.0773 57.3007 53.0107C57.5007 52.9441 57.6207 53.1306 57.7273 53.2638C58.034 53.6367 58.3806 53.9697 58.6873 54.3427C59.5272 55.315 60.4471 56.194 61.4469 57.0065C62.1935 57.6458 62.9668 58.2452 63.74 58.8579C64.7399 59.6304 65.7798 60.3497 66.8597 60.989C67.153 61.1488 67.3663 61.3886 67.4996 61.6949C67.673 62.1611 67.8729 62.6273 68.0596 63.0934H70.0327C70.3393 62.6939 70.3393 62.6939 70.7793 62.867C70.9259 62.9203 71.0593 62.9869 71.1793 63.0934H76.792C76.7654 62.867 76.712 62.6539 76.6187 62.4408C76.0987 60.9224 75.3655 59.5239 74.4189 58.2319C73.4457 56.86 72.3925 55.5547 71.0459 54.5291C70.646 54.2228 70.286 53.9298 70.4327 53.357C70.4327 53.3171 70.4327 53.2905 70.4327 53.2505C70.286 52.2516 70.406 51.2526 70.2993 50.2537C70.2193 49.4678 70.326 48.6687 70.1794 47.8828C70.0994 47.6298 70.1127 47.39 70.2327 47.1636C70.3393 47.1769 70.4193 47.2435 70.4593 47.3367C71.0459 48.0826 71.6192 48.8418 72.2058 49.5877C72.4591 49.934 72.7391 50.267 73.0457 50.56C73.819 51.2526 74.6189 51.9053 75.4721 52.5046C76.392 53.1173 77.2986 53.7566 78.2585 54.3027C79.0451 54.7422 79.8584 55.1285 80.6849 55.4748C80.8183 55.5281 80.9916 55.5548 81.0316 55.7545C80.1783 56.2873 79.805 57.0998 79.565 58.0321C79.2717 59.071 79.1384 60.1233 79.1784 61.2021C79.2051 61.615 79.1784 62.0279 79.1784 62.4408C79.1651 62.6672 79.2051 62.8937 79.2851 63.1068H88.7374C88.7507 62.9469 88.7241 62.8004 88.6308 62.6539C88.1641 62.0146 87.8042 61.2953 87.2442 60.7226C86.3377 59.8036 85.3378 58.9644 84.4312 58.0454C84.1246 57.7124 83.7779 57.4194 83.3913 57.193C82.858 56.9133 82.3381 56.5936 81.8581 56.234C81.7515 56.1541 81.6048 56.1008 81.6048 55.901C81.8315 55.8744 82.0448 55.901 82.2448 55.9809C83.8979 56.4072 85.5777 56.7668 87.1909 57.3262C88.0175 57.6059 88.7374 58.0854 89.4707 58.5249C89.8306 58.738 90.1506 59.0444 90.5239 59.2575C90.7772 59.404 90.9505 59.6038 91.0572 59.8702C91.5238 60.9491 92.0037 62.0146 92.4704 63.0934H93.4036L93.3636 63.1201Z" fill="white"/>
</svg>
