<?xml version="1.0" encoding="utf-8"?>
<!-- Generator: Adobe Illustrator 16.0.0, SVG Export Plug-In . SVG Version: 6.00 Build 0)  -->
<!DOCTYPE svg PUBLIC "-//W3C//DTD SVG 1.1//EN" "http://www.w3.org/Graphics/SVG/1.1/DTD/svg11.dtd">
<svg version="1.1" id="Layer_1" xmlns="http://www.w3.org/2000/svg" xmlns:xlink="http://www.w3.org/1999/xlink" x="0px" y="0px"
	 width="1080px" height="1080px" viewBox="0 0 1080 1080" enable-background="new 0 0 1080 1080" xml:space="preserve">
<g>
	<circle cx="540" cy="455" r="455" fill="#FFFFFF" />
	<rect x="518.269" y="877.814" fill="#431020" width="38.827" height="169.609"/>
	<path fill="#0D694C" d="M518.269,33.753c-34.738,1.642-65.546,7.244-96.38,16.172l96.38,96.382V33.753z"/>
	<path fill="#0D694C" d="M518.269,433.012L241.271,156.316c-29.067,28.985-53.764,62.187-73.426,98.603l350.423,350.275V433.012z"/>
	<path fill="#3B8952" d="M518.269,203.568L379.096,64.7c-39.229,16.1-75.369,37.868-107.627,64.4l246.8,246.649V203.568z"/>
	<path fill="#0D694C" d="M500.729,874.97l-381.97-381.966C136.871,695.586,298.145,856.858,500.729,874.97z"/>
	<path fill="#3B8952" d="M518.269,662.455l-369.004-368.7c-18.093,43.693-28.932,91.069-31.315,140.713l400.319,400.17V662.455z"/>
	<path fill="#0D694C" d="M563.226,33.753v112.554l96.381-96.382C628.771,40.997,600.008,35.395,563.226,33.753z"/>
	<path fill="#0D694C" d="M840.246,156.316L563.226,433.012v172.183l349.681-350.275C893.24,218.503,869.314,185.301,840.246,156.316
		z"/>
	<path fill="#3B8952" d="M701.919,64.7L563.226,203.568V375.75l246.558-246.649C777.527,102.568,741.146,80.8,701.919,64.7z"/>
	<path fill="#0D694C" d="M961.77,493.003L579.8,874.97C782.386,856.858,943.66,695.586,961.77,493.003z"/>
	<path fill="#3B8952" d="M931.748,293.755l-368.522,368.7v172.184l400.075-400.17C960.92,384.824,949.838,337.449,931.748,293.755z"
		/>
</g>
</svg>
