<?xml version="1.0" encoding="utf-8"?>
<!-- Generator: Adobe Illustrator 16.0.0, SVG Export Plug-In . SVG Version: 6.00 Build 0)  -->
<!DOCTYPE svg PUBLIC "-//W3C//DTD SVG 1.1//EN" "http://www.w3.org/Graphics/SVG/1.1/DTD/svg11.dtd">
<svg version="1.1" id="Layer_1" xmlns="http://www.w3.org/2000/svg" xmlns:xlink="http://www.w3.org/1999/xlink" x="0px" y="0px"
	 width="1920px" height="552.564px" viewBox="0 0 1920 552.564" enable-background="new 0 0 1920 552.564" xml:space="preserve">
<g>
	<g>
		<rect x="217.165" y="426.083" fill="#431020" width="18.611" height="81.308"/>
		<path fill="#0D694C" d="M217.165,21.458c-16.653,0.788-31.422,3.473-46.203,7.753l46.203,46.205V21.458z"/>
		<path fill="#0D694C" d="M217.165,212.855L84.378,80.212c-13.935,13.893-25.773,29.811-35.2,47.267l167.986,167.916V212.855z"/>
		<path fill="#3B8952" d="M217.165,102.864l-66.716-66.57c-18.807,7.719-36.13,18.154-51.594,30.872l118.311,118.24V102.864z"/>
		<path fill="#0D694C" d="M208.757,424.718L25.648,241.612C34.331,338.726,111.642,416.037,208.757,424.718z"/>
		<path fill="#3B8952" d="M217.165,322.844L40.272,146.097c-8.674,20.947-13.87,43.658-15.012,67.454l191.905,191.836V322.844z"/>
		<path fill="#0D694C" d="M238.715,21.458v53.958l46.204-46.205C270.137,24.931,256.348,22.246,238.715,21.458z"/>
		<path fill="#0D694C" d="M371.514,80.212L238.715,212.855v82.541l167.63-167.916C396.918,110.023,385.448,94.105,371.514,80.212z"
			/>
		<path fill="#3B8952" d="M305.202,36.293l-66.487,66.57v82.541l118.196-118.24C341.447,54.447,324.007,44.012,305.202,36.293z"/>
		<path fill="#0D694C" d="M429.771,241.612L246.661,424.718C343.777,416.037,421.088,338.726,429.771,241.612z"/>
		<path fill="#3B8952" d="M415.377,146.097L238.715,322.844v82.544l191.788-191.836C429.361,189.755,424.05,167.044,415.377,146.097
			z"/>
	</g>
	<path fill="#0D694C" d="M737.592,483.582c-35.804,0-77.257-8.951-97.984-18.841l10.363-46.638
		c29.207,8.951,57.472,14.6,88.564,14.6c42.867,0,49.933-8.947,49.933-39.096c0-34.86-0.942-37.685-57.472-49.933
		c-75.842-16.96-86.205-31.563-86.205-97.986c0-57,25.907-85.264,105.52-85.264c27.323,0,60.298,3.297,91.389,10.364l-6.596,49.934
		c-25.909-5.654-56.529-9.421-83.85-9.421c-40.042,0-47.107,8.481-47.107,35.802c0,35.8,0.943,36.744,55.114,49.934
		c84.322,20.257,88.562,33.917,88.562,96.57C847.822,452.962,830.393,483.582,737.592,483.582z"/>
	<path fill="#0D694C" d="M966.058,478.871h-59.354V165.136h59.354V478.871z"/>
	<path fill="#0D694C" d="M1089.003,381.832c0,30.618,13.188,48.519,54.644,48.519c16.016,0,32.506-1.412,48.521-3.769v-95.158
		h56.058v138.024c-32.977,9.423-72.072,14.134-105.052,14.134c-76.783,0-113.528-32.503-113.528-94.687V255.111
		c0-64.538,37.688-94.687,119.185-94.687c25.439,0,61.71,2.828,89.974,10.364l-6.597,51.819c-28.735-6.125-57.468-8.479-88.09-8.479
		c-41.452,0-55.113,16.959-55.113,48.99V381.832z"/>
	<path fill="#0D694C" d="M1369.759,240.979v237.893h-57.94V165.136h79.141l119.181,238.363V165.136h57.943v313.735h-79.141
		L1369.759,240.979z"/>
	<path fill="#0D694C" d="M1813.505,413.864h-116.357l-19.783,65.007h-62.181l98.924-313.735h82.909l98.925,313.735h-62.182
		L1813.505,413.864z M1711.753,362.516h86.678l-42.869-148.387L1711.753,362.516z"/>
	<g>
		<g>
			<path fill="#0D694C" d="M427,516.742c0-5.673-3.216-10.255-8.998-10.255H120.893c-5.782,0-9.893,4.582-9.893,10.255v1.854
				c0,5.673,4.11,11.891,9.893,11.891h297.109c5.782,0,8.998-6.218,8.998-11.891V516.742z"/>
			<path fill="#0D694C" d="M91,517.12c0-5.884-3.696-10.633-9.69-10.633H39.102c-5.995,0-12.102,4.749-12.102,10.633v1.099
				c0,5.884,6.107,12.269,12.102,12.269H81.31c5.994,0,9.69-6.385,9.69-12.269V517.12z"/>
		</g>
	</g>
</g>
</svg>
