<svg width="82" height="82" viewBox="0 0 82 82" fill="none" xmlns="http://www.w3.org/2000/svg">
<mask id="mask0_13_1549" style="mask-type:luminance" maskUnits="userSpaceOnUse" x="0" y="0" width="82" height="82">
<path d="M81.3859 0.0795898H0.233887V81.6041H81.3859V0.0795898Z" fill="white"/>
</mask>
<g mask="url(#mask0_13_1549)">
<path d="M68.1772 63.5361C66.343 54.0183 59.6926 46.2237 50.878 42.7639C55.5096 39.5427 58.5446 34.174 58.5446 28.1027C58.5446 18.2668 50.5745 10.2734 40.7967 10.2734C31.0188 10.2734 23.0489 18.28 23.0489 28.1027C23.0489 34.174 26.0969 39.5427 30.7153 42.7639C21.914 46.2105 15.2635 54.005 13.4161 63.5361C8.33588 57.372 5.28768 49.4582 5.28768 40.8418C5.28768 21.1698 21.2146 5.16983 40.7967 5.16983C60.3787 5.16983 76.3056 21.1698 76.3056 40.8418C76.3056 49.4582 73.2574 57.3588 68.1772 63.5228V63.5361ZM28.1291 28.116C28.1291 21.0903 33.8163 15.377 40.8099 15.377C47.8035 15.377 53.4907 21.0903 53.4907 28.116C53.4907 35.1417 47.8035 40.855 40.8099 40.855C33.8163 40.855 28.1291 35.1417 28.1291 28.116ZM18.0213 68.1624C18.404 55.8476 28.4589 45.9453 40.8099 45.9453C53.1608 45.9453 63.2158 55.8476 63.5984 68.1624C57.423 73.372 49.4793 76.5137 40.8099 76.5137C32.1405 76.5137 24.1968 73.3588 18.0213 68.1624ZM40.8099 0.0927734C18.4436 0.0927734 0.233887 18.3861 0.233887 40.855C0.233887 63.324 18.4436 81.6173 40.8099 81.6173C63.1761 81.6173 81.3859 63.324 81.3859 40.855C81.3859 18.3861 63.1761 0.0927734 40.8099 0.0927734Z" fill="black"/>
</g>
</svg>
